<svg width="36" height="36" viewBox="0 0 36 36" fill="none" xmlns="http://www.w3.org/2000/svg">
<path d="M32 24.9993V20.5997C32 13.6412 26.4034 8 19.5 8C12.5966 8 7 13.6419 7 20.6003V25" stroke="#38C1AC" stroke-width="2" stroke-linecap="round" stroke-linejoin="round"/>
<path d="M10.6221 21H11.4549C11.9391 21.0002 12.4034 21.1858 12.7458 21.5161C13.0882 21.8464 13.2806 22.2943 13.2808 22.7614V29.2393C13.2804 29.7062 13.088 30.1538 12.7458 30.4839C12.4036 30.814 11.9395 30.9997 11.4555 31H10.6228C9.66219 30.9997 8.74103 30.6314 8.06172 29.9763C7.38242 29.3211 7.00054 28.4326 7 27.506V24.4953C7.00054 23.5688 7.38233 22.6804 8.06149 22.0252C8.74065 21.3701 9.66163 21.0018 10.6221 21.0013M28.3779 31H27.5451C27.0609 30.9998 26.5966 30.8142 26.2542 30.4839C25.9118 30.1536 25.7194 29.7057 25.7192 29.2386V22.7607C25.7196 22.2938 25.912 21.8462 26.2542 21.5161C26.5964 21.186 27.0605 21.0003 27.5445 21H28.3779C29.3384 21.0005 30.2594 21.3688 30.9385 22.0239C31.6177 22.6791 31.9995 23.5675 32 24.494V27.506C31.9995 28.4325 31.6177 29.3209 30.9385 29.9761C30.2594 30.6312 29.3384 30.9995 28.3779 31Z" stroke="#38C1AC" stroke-width="2" stroke-linecap="round" stroke-linejoin="round"/>
</svg>
