<svg width="24" height="24" viewBox="0 0 24 24" fill="none" xmlns="http://www.w3.org/2000/svg">
<path d="M16.32 0C12.0863 0 8.64 3.44437 8.64 7.68C8.64 8.62125 8.82375 9.51562 9.135 10.35L0.135 19.335L0 19.485V22.755L0.135 22.905L1.095 23.865L1.245 24H4.515L4.665 23.865L6.105 22.425L6.24 22.275V21.12H7.395L7.545 20.985L8.985 19.545L9.12 19.395V18.72H9.795L9.945 18.585L10.905 17.625L11.04 17.475V16.8H11.715L11.865 16.665L13.65 14.865C14.4844 15.1762 15.3787 15.36 16.32 15.36C20.5537 15.36 24 11.9138 24 7.68C24 3.44437 20.5537 0 16.32 0ZM16.32 0.96C20.0344 0.96 23.04 3.96375 23.04 7.68C23.04 11.3944 20.0344 14.4 16.32 14.4C15.3975 14.4 14.5237 14.2256 13.725 13.89C13.7194 13.8844 13.7156 13.8806 13.71 13.875C11.2969 12.855 9.6 10.4662 9.6 7.68C9.6 3.96375 12.6056 0.96 16.32 0.96ZM16.32 2.4C14.9681 2.4 13.6144 2.91563 12.585 3.945L12.24 4.29L12.585 4.62L19.38 11.415L19.71 11.76L20.055 11.415C22.1137 9.35813 22.1137 6.00187 20.055 3.945C19.0256 2.91563 17.6719 2.4 16.32 2.4ZM16.32 3.36C17.4244 3.36 18.5344 3.77437 19.38 4.62C20.9512 6.19125 21 8.63812 19.65 10.335L13.665 4.35C14.4487 3.7275 15.3712 3.36 16.32 3.36ZM9.54 11.295C10.2581 12.6375 11.3625 13.7419 12.705 14.46L11.31 15.84H10.08V17.07L9.39 17.76H8.16V18.99L6.99 20.16H5.28V21.87L4.11 23.04H1.65L1.17 22.56L9.12 14.61C9.2925 14.4619 9.33937 14.2144 9.23062 14.0156C9.12187 13.815 8.8875 13.7194 8.67 13.785C8.57812 13.8056 8.49562 13.8525 8.43 13.92L0.96 21.405V19.89L9.54 11.295Z" fill="#38C1AC"/>
</svg>
