<svg width="56" height="56" viewBox="0 0 56 56" fill="none" xmlns="http://www.w3.org/2000/svg">
<path d="M50.8098 18.222V18.2233V37.7767C50.8098 41.9239 49.5756 45.1738 47.3629 47.3864C45.1503 49.5991 41.9004 50.8333 37.7532 50.8333H18.2232C14.0759 50.8333 10.8262 49.5991 8.61361 47.3837C6.40098 45.1683 5.1665 41.9126 5.1665 37.7533V18.2233C5.1665 14.0761 6.40077 10.8262 8.61339 8.61355C10.826 6.40093 14.0759 5.16666 18.2232 5.16666H37.7765C41.9238 5.16666 45.1736 6.40097 47.3831 8.61333C49.5926 10.8256 50.8212 14.075 50.8098 18.222ZM39.5067 22.9869L39.5068 22.9869L39.5127 22.9808C40.3734 22.0904 40.3819 20.6816 39.5067 19.8064C38.6348 18.9345 37.1982 18.9345 36.3263 19.8064L24.6865 31.4462L19.6734 26.4331C18.8015 25.5612 17.3649 25.5612 16.4929 26.4331C15.621 27.305 15.621 28.7416 16.4929 29.6136L23.0963 36.2169C23.5156 36.6362 24.0857 36.8767 24.6865 36.8767C25.2873 36.8767 25.8574 36.6362 26.2767 36.2169L39.5067 22.9869Z" fill="#1EBBA3" stroke="#FAFCFC"/>
</svg>
