<svg width="172" height="180" viewBox="0 0 172 180" fill="none" xmlns="http://www.w3.org/2000/svg">
<path d="M44.2013 111.286C32.5992 114.255 16.7042 111.004 15.1035 106.346C13.4989 101.692 24.4376 93.0708 36.0359 90.1019C47.6379 87.1329 47.5801 81.0832 51.1517 85.1934C52.7563 89.8474 66.9002 101.422 44.2013 111.282V111.286Z" fill="#18B49C"/>
<path d="M36.032 90.1019C24.4299 93.0709 13.4951 101.692 15.0996 106.346C15.2732 106.855 15.5933 107.295 16.033 107.673C18.8603 107.233 21.7685 106.624 24.5649 105.911C36.167 102.942 42.6006 93.6454 40.9961 88.9876C40.9343 88.8102 40.8649 88.6444 40.7839 88.4863C39.4571 89.0686 37.895 89.6238 36.032 90.1019Z" fill="#1CA892"/>
<path d="M34.3579 102.085C22.7558 105.054 9.22128 106.126 7.61674 101.472C6.01219 96.8177 17.6451 91.6201 29.2472 88.6512C40.8493 85.6822 49.1883 80.5077 50.789 85.1617C52.3935 89.8156 45.9561 99.1158 34.3579 102.085Z" fill="#18B49C"/>
<path d="M34.6009 98.2299C46.1066 95.2879 51.7032 88.7678 50.2298 84.1177C47.6456 80.8133 39.8697 85.9338 29.2473 88.6521C20.0404 91.008 10.5559 93.4989 8.12207 98.1682C10.5906 102.178 23.481 101.072 34.6009 98.2299Z" fill="#1CA892"/>
<path d="M31.4301 97.9671C19.3845 99.3089 1.22148 98.2023 0.0643545 92.488C-1.09277 86.7737 13.5834 89.0756 25.6252 87.7338C37.6709 86.392 49.9904 79.4786 51.1436 85.1928C52.2969 90.9071 43.4719 96.6253 31.4263 97.9671H31.4301Z" fill="#18B49C"/>
<path d="M99.7082 17.794C94.7056 20.5624 89.8109 21.2912 88.7695 19.4173C87.732 17.5433 92.4916 16.0704 97.4942 13.302C102.497 10.5296 105.845 7.51442 106.882 9.38833C107.92 11.2622 104.707 15.0255 99.7043 17.7978L99.7082 17.794Z" fill="#5BB7AA"/>
<path d="M97.5258 9.78985C95.5162 15.1417 95.0109 20.2352 93.0053 19.4795C90.9996 18.7276 91.0034 13.7767 93.0091 8.4249C95.0187 3.07306 98.274 -0.655488 100.28 0.0963914C102.285 0.848271 99.5353 4.43416 97.5258 9.786V9.78985Z" fill="#82C8BE"/>
<path d="M147.366 91.1465C147.366 79.9686 127.85 104.117 124.22 81.7924C124.22 48.8755 117.343 14.0692 79.2273 14.9561C45.366 14.9561 38.7395 43.5159 38.7395 75.8274C36.6721 172.064 147.366 168.474 147.366 91.1504V91.1465Z" fill="#1EBBA3"/>
<path d="M73.5411 170.087L70.4092 171.649L74.0927 144.35L77.2362 144.774L73.5411 170.087Z" fill="#FFC50C"/>
<path d="M65.7696 175.197C70.3711 172.984 73.8386 170.647 73.5146 169.976C73.1906 169.305 69.1985 170.555 64.597 172.768C59.9955 174.981 56.528 177.318 56.852 177.989C57.176 178.659 61.1681 177.41 65.7696 175.197Z" fill="#FFC50C"/>
<path d="M65.4534 172.242C69.9893 171.733 73.6034 170.723 73.5186 169.983C73.4376 169.243 69.6885 169.058 65.1526 169.566C60.6166 170.075 57.0025 171.086 57.0874 171.826C57.1723 172.566 60.9175 172.751 65.4534 172.246V172.242Z" fill="#FFC50C"/>
<path d="M72.5847 174.105C71.2424 170.998 70.7063 168.237 71.3928 167.94C72.0755 167.643 73.7187 169.926 75.0609 173.034C76.4032 176.141 76.9393 178.902 76.2528 179.199C75.5701 179.496 73.9269 177.213 72.5847 174.105Z" fill="#FFC50C"/>
<path d="M101.571 170.87L104.703 172.432L101.019 145.133L97.876 145.557L101.571 170.87Z" fill="#FFC50C"/>
<path d="M109.343 175.98C104.742 173.767 101.274 171.43 101.598 170.759C101.922 170.088 105.914 171.338 110.516 173.551C115.117 175.764 118.585 178.101 118.261 178.772C117.937 179.443 113.945 178.193 109.343 175.98Z" fill="#FFC50C"/>
<path d="M109.663 173.025C105.127 172.516 101.513 171.506 101.598 170.766C101.683 170.026 105.428 169.837 109.964 170.349C114.5 170.858 118.114 171.869 118.029 172.609C117.944 173.349 114.199 173.534 109.663 173.025Z" fill="#FFC50C"/>
<path d="M100.056 173.813C101.398 170.705 103.041 168.422 103.724 168.719C104.406 169.016 103.874 171.773 102.532 174.885C101.19 177.993 99.5465 180.275 98.8638 179.978C98.1811 179.681 98.7134 176.924 100.056 173.813Z" fill="#FFC50C"/>
<path d="M144.551 91.9725C142.275 98.751 136.455 102.175 133.755 101.018C133.524 100.918 133.323 100.791 133.149 100.633C131.302 98.9438 132.683 93.9775 134.762 87.7812L139.691 89.8904L144.551 91.9725Z" fill="#5C85EE"/>
<path d="M135.923 99.445C135.19 99.5568 134.226 100.027 133.15 100.629C130.82 101.928 127.954 103.837 125.705 104.083C124.116 104.257 122.84 103.602 122.273 101.315C120.537 94.2936 127.198 66.9059 129.431 64.2339C131.711 61.504 134.731 70.0638 136.906 77.7407C137.778 80.8215 138.515 83.7557 139.012 85.7685C139.363 87.1951 139.587 88.5832 139.695 89.8942C140.104 95.0455 138.669 99.0247 135.927 99.4488L135.923 99.445Z" fill="#1EBBA3"/>
<path d="M139.687 89.8898C139.583 88.5788 139.359 87.1907 139.004 85.7641C138.507 83.7552 137.77 80.8171 136.898 77.7363C136.034 78.3571 135.24 78.9355 134.526 79.4522C130.978 82.0278 128.081 84.8927 126.01 87.7074C126.01 87.7074 127.51 90.6764 129.481 91.1545C131.456 91.6326 139.687 89.8898 139.687 89.8898Z" fill="#5BB7AA"/>
<path d="M75.5515 77.6758C75.5515 78.6166 75.3779 79.515 75.0578 80.3363C74.0357 82.9814 71.5324 84.8476 68.6088 84.8476C65.6851 84.8476 63.1818 82.9814 62.1597 80.3363C61.8396 79.515 61.666 78.6166 61.666 77.6758H75.5515Z" fill="#FFC50C"/>
<path d="M75.5515 77.6758C75.5515 78.6166 75.3779 79.515 75.0578 80.3363H62.1597C61.8396 79.515 61.666 78.6166 61.666 77.6758H75.5515Z" fill="#F9AB10"/>
<path d="M64.0883 89.3936C53.8169 89.3936 46.0526 92.0232 40.2168 96.5846C47.6417 138.829 81.125 154.333 108.711 146.829C109.633 116.924 98.5937 88.5916 64.0844 89.3936H64.0883Z" fill="#9FE7DC"/>
<g opacity="0.3">
<path d="M118.808 81.6277C120.367 91.2286 124.864 92.235 129.485 91.1554C127.09 90.1413 125.142 87.4692 124.22 81.7935C124.22 49 117.393 14.3287 79.6475 14.9456C112.641 17.61 118.808 50.4652 118.808 81.6277Z" fill="#5BB7AA"/>
</g>
<path d="M135.861 80.0233C145.666 72.9055 171.419 54.4517 171.377 62.7918C171.35 68.6217 150.31 110.877 140.501 117.995C130.696 125.113 128.868 105.267 125.038 100.872C121.208 96.476 126.052 87.1411 135.857 80.0233H135.861Z" fill="#1EBBA3"/>
<path d="M121.593 113.221C132.115 118.935 148.323 119.672 151.019 115.55C153.711 111.428 145.222 100.393 134.699 94.6785C124.177 88.9642 125.716 83.1111 121.246 86.2227C118.55 90.3446 102.007 98.1063 121.597 113.221H121.593Z" fill="#18B49C"/>
<path d="M134.696 94.6792C145.218 100.393 153.711 111.429 151.015 115.551C150.722 116.002 150.306 116.349 149.785 116.607C147.154 115.489 144.481 114.189 141.943 112.813C131.421 107.099 127.456 96.5068 130.152 92.385C130.253 92.2307 130.364 92.0842 130.48 91.9531C131.622 92.84 133.003 93.7615 134.692 94.6792H134.696Z" fill="#1CA892"/>
<path d="M133.384 106.709C143.906 112.423 156.765 116.776 159.462 112.654C162.154 108.533 152.149 100.651 141.626 94.9331C131.104 89.215 124.285 82.1589 121.593 86.2807C118.897 90.4026 122.862 100.991 133.384 106.709Z" fill="#18B49C"/>
<path d="M134.094 102.911C123.661 97.2425 119.827 89.5541 122.395 85.4052C125.712 82.8334 131.996 89.7006 141.631 94.9329C149.981 99.4673 158.567 104.206 159.782 109.327C156.407 112.612 144.176 108.386 134.094 102.911Z" fill="#1CA892"/>
<path d="M137.229 103.432C148.581 107.677 166.462 111.051 168.981 105.791C171.499 100.532 156.708 99.1749 145.36 94.9297C134.009 90.6845 123.757 80.964 121.238 86.2233C118.719 91.4826 125.878 99.1865 137.229 103.432Z" fill="#18B49C"/>
<path d="M92.2029 73.6462C98.5573 73.6462 103.709 66.3906 103.709 57.4403C103.709 48.49 98.5573 41.2344 92.2029 41.2344C85.8485 41.2344 80.6973 48.49 80.6973 57.4403C80.6973 66.3906 85.8485 73.6462 92.2029 73.6462Z" fill="white"/>
<path d="M92.2029 47.1569C97.8381 47.1569 102.528 52.8673 103.516 60.4015C103.643 59.4414 103.709 58.4505 103.709 57.4403C103.709 48.491 98.5594 41.2344 92.2029 41.2344C85.8465 41.2344 80.6973 48.491 80.6973 57.4403C80.6973 58.4505 80.7628 59.4414 80.8901 60.4015C81.8775 52.8673 86.5677 47.1569 92.2029 47.1569Z" fill="#EBEBFF"/>
<path d="M90.6974 66.88C95.0544 66.456 98.2426 62.5815 97.8184 58.226C97.3943 53.8704 93.5184 50.6833 89.1615 51.1073C84.8045 51.5313 81.6163 55.4059 82.0404 59.7614C82.4646 64.1169 86.3404 67.304 90.6974 66.88Z" fill="#0B1254"/>
<path d="M96.7622 57.44C98.6879 57.44 100.249 55.8795 100.249 53.9544C100.249 52.0293 98.6879 50.4688 96.7622 50.4688C94.8365 50.4688 93.2754 52.0293 93.2754 53.9544C93.2754 55.8795 94.8365 57.44 96.7622 57.44Z" fill="white"/>
<path d="M92.4344 57.4164C93.5645 56.9499 94.8605 57.4859 95.3311 58.6156C95.7978 59.7453 95.2616 61.0409 94.1315 61.5113C93.0014 61.9779 91.7054 61.4419 91.2349 60.3122C90.7682 59.1824 91.3043 57.8869 92.4344 57.4164Z" fill="white"/>
<path d="M80.6971 57.4401C79.972 50.2838 83.6401 41.0761 91.8325 40.6944C100.476 40.4978 104.464 49.9792 103.708 57.4401C103.149 51.5639 100.862 44.5194 94.6752 42.5683C90.4748 41.2188 86.0314 43.6518 83.8329 47.2608C81.8928 50.2529 81.0674 53.9082 80.6971 57.4363V57.4401Z" fill="#0B1254"/>
<path d="M57.0643 73.6462C63.4187 73.6462 68.5699 66.3906 68.5699 57.4403C68.5699 48.49 63.4187 41.2344 57.0643 41.2344C50.7099 41.2344 45.5586 48.49 45.5586 57.4403C45.5586 66.3906 50.7099 73.6462 57.0643 73.6462Z" fill="white"/>
<path d="M57.0643 47.1569C62.6994 47.1569 67.3897 52.8673 68.3771 60.4015C68.5044 59.4414 68.5699 58.4505 68.5699 57.4403C68.5699 48.491 63.4207 41.2344 57.0643 41.2344C50.7078 41.2344 45.5586 48.491 45.5586 57.4403C45.5586 58.4505 45.6242 59.4414 45.7514 60.4015C46.7389 52.8673 51.4291 47.1569 57.0643 47.1569Z" fill="#EBEBFF"/>
<path d="M55.7316 66.8526C60.0783 66.3337 63.1812 62.3905 62.6621 58.0453C62.143 53.7 58.1985 50.5982 53.8518 51.1171C49.5051 51.636 46.4022 55.5792 46.9213 59.9244C47.4404 64.2696 51.3849 67.3715 55.7316 66.8526Z" fill="#0B1254"/>
<path d="M58.2331 53.1601C58.6767 51.2862 60.5551 50.1256 62.4258 50.569C64.3003 51.0125 65.4613 52.8902 65.0177 54.7603C64.5742 56.6342 62.6958 57.7948 60.8251 57.3514C58.9506 56.908 57.7896 55.0302 58.2331 53.1601Z" fill="white"/>
<path d="M55.9799 58.9622C56.2615 57.7708 57.4533 57.0343 58.6451 57.3158C59.837 57.5973 60.5737 58.7887 60.2921 59.9802C60.0105 61.1716 58.8187 61.9081 57.6269 61.6266C56.435 61.3451 55.6983 60.1537 55.9799 58.9622Z" fill="white"/>
<path d="M45.5584 57.4401C44.8333 50.2838 48.5014 41.0761 56.6938 40.6944C65.3375 40.4978 69.3258 49.9792 68.5698 57.4401C68.0105 51.5639 65.7232 44.5194 59.5365 42.5683C55.3361 41.2188 50.8928 43.6518 48.6942 47.2608C46.7541 50.2529 45.9287 53.9082 45.5584 57.4363V57.4401Z" fill="#0B1254"/>
<path d="M50.4763 77.6758C49.5005 74.2711 56.0922 65.1406 63.0157 65.1406C69.9391 65.1406 75.555 70.7547 75.555 77.6758C75.555 77.6758 51.4521 81.0805 50.4763 77.6758Z" fill="#FFC50C"/>
<path d="M64.7282 66.706C67.5748 66.706 70.2014 67.6546 72.3074 69.2547C70.0124 66.7253 66.6992 65.1367 63.0157 65.1367C56.0884 65.1367 49.5005 74.2672 50.4763 77.6719C50.6113 78.1462 51.1976 78.4855 52.1002 78.7245C51.8302 74.9998 58.1288 66.7022 64.7282 66.7022V66.706Z" fill="#FCD575"/>
<path d="M100.163 35.6663C99.0523 38.0955 97.4207 35.6393 94.2001 34.1664C90.9794 32.6935 87.3923 32.7668 88.5032 30.3338C89.614 27.9046 93.1278 27.1257 96.3485 28.5987C99.5691 30.0716 101.278 33.2333 100.167 35.6663H100.163Z" fill="#1CA892"/>
<path d="M50.7892 34.856C51.6185 37.3969 53.5162 35.1413 56.8834 34.0424C60.2506 32.9435 63.8069 33.4216 62.9776 30.8807C62.1483 28.3397 58.7464 27.1714 55.383 28.2664C52.0158 29.3653 49.9599 32.315 50.7892 34.856Z" fill="#1CA892"/>
<path d="M130.669 55.717C134.102 57.3827 137.503 57.4598 138.263 55.8944C139.023 54.3289 136.855 51.7108 133.419 50.0451C129.982 48.3794 125.824 49.8678 125.824 49.8678C125.824 49.8678 127.232 54.0513 130.669 55.717Z" fill="#A9E0FF"/>
<path d="M29.8565 75.0184C28.0012 76.9386 25.7834 77.81 24.9079 76.9618C24.0323 76.1135 24.8269 73.8733 26.6821 71.9531C28.5374 70.0329 31.6307 70.0098 31.6307 70.0098C31.6307 70.0098 31.7117 73.0983 29.8565 75.0184Z" fill="#A9E0FF"/>
<path d="M22.933 59.5376C18.8214 58.0184 16.052 55.2653 16.7463 53.3914C17.4405 51.5175 21.3362 51.2322 25.444 52.7514C29.5556 54.2705 31.6307 58.8975 31.6307 58.8975C31.6307 58.8975 27.0408 61.0606 22.933 59.5376Z" fill="#A9E0FF"/>
</svg>
