<svg width="1002" height="308" viewBox="0 0 1002 308" fill="none" xmlns="http://www.w3.org/2000/svg">
<g clip-path="url(#clip0_105_251)">
<path d="M254.837 99.7714L318.242 86.6112C319.409 86.3775 320.544 87.1237 320.78 88.2765C321.014 89.4437 320.268 90.5791 319.115 90.8149C319.072 90.8084 319.024 90.8305 318.979 90.8383L254.823 99.7693L254.837 99.7714Z" fill="#9FB603"/>
<path d="M242.176 86.8055L277.656 59.9698C278.601 59.2615 279.942 59.4363 280.664 60.3841C281.372 61.3297 281.198 62.6698 280.25 63.3924C280.2 63.4289 280.134 63.4776 280.084 63.5141L242.188 86.822L242.176 86.8055Z" fill="#FDA014"/>
<path d="M236.326 76.876L269.108 6.70281C269.609 5.63289 270.885 5.16607 271.955 5.66711C273.025 6.16816 273.492 7.44435 272.991 8.51427C272.984 8.55735 272.949 8.59606 272.93 8.6226L236.312 76.8738L236.326 76.876Z" fill="#D12407"/>
<path d="M227.343 68.6148L228.097 47.6561C228.145 46.473 229.14 45.5372 230.337 45.5874C231.52 45.6354 232.456 46.6304 232.408 47.8134C232.401 47.9592 232.377 48.1172 232.343 48.2443L227.345 68.6005L227.343 68.6148Z" fill="#16C1D1"/>
<path d="M260.776 111.14L289.119 121.778C290.231 122.198 290.793 123.429 290.371 124.556C289.952 125.667 288.706 126.227 287.608 125.81C287.51 125.78 287.414 125.736 287.334 125.68L260.776 111.14Z" fill="#FDC63A"/>
<path d="M308.58 63.3156L305.42 67.2722L300.359 66.927L303.152 71.159L301.262 75.8527L306.154 74.5115L310.038 77.7632L310.251 72.6964L314.554 70.0162L309.8 68.2335L308.58 63.3156Z" fill="#FDC63A"/>
<path d="M242.985 13.9937L243.997 16.9988L242.109 19.5475L245.276 19.501L247.113 22.1029L248.06 19.0729L251.099 18.1253L248.499 16.2888L248.555 13.1231L245.99 15.01L242.985 13.9937Z" fill="#9FB603"/>
<path d="M318.915 105.627L318.185 109.454L314.624 111.028L318.041 112.901L318.42 116.779L321.281 114.114L325.08 114.929L323.412 111.412L325.381 108.038L321.513 108.536L318.915 105.627Z" fill="#16C1D1"/>
<path d="M252.208 60.706L253.22 63.7111L251.318 66.2576L254.499 66.2133L256.336 68.8152L257.269 65.783L260.323 64.8376L257.72 63.0155L257.764 59.8332L255.213 61.7223L252.208 60.706Z" fill="#9FB603"/>
<path d="M264.821 38.3069C262.792 39.9522 262.468 42.9449 264.113 44.9738C265.771 47.0193 268.751 47.3265 270.78 45.6812C272.824 44.038 273.131 41.0575 271.488 39.0142C269.845 36.9709 266.864 36.6637 264.821 38.3069Z" fill="#9FB603"/>
<path d="M301.254 106.184C299.78 107.37 299.557 109.511 300.743 110.985C301.929 112.459 304.084 112.684 305.544 111.496C307.018 110.31 307.243 108.154 306.041 106.693C304.852 105.233 302.714 104.995 301.254 106.184Z" fill="#D12407"/>
<path d="M246.628 92.3042C245.169 93.4926 244.929 95.6457 246.117 97.1053C247.306 98.5649 249.461 98.7905 250.921 97.6022C252.395 96.416 252.618 94.2751 251.432 92.8011C250.243 91.3414 248.102 91.1181 246.631 92.2899L246.628 92.3042Z" fill="#D12407"/>
<path d="M234.49 32.8028C233.03 33.9911 232.792 36.1299 233.979 37.6039C235.167 39.0635 237.322 39.2891 238.78 38.1151C240.254 36.9289 240.477 34.788 239.291 33.314C238.102 31.8544 235.964 31.6166 234.49 32.8028Z" fill="#FDA014"/>
<path d="M259.12 122.291C257.661 123.48 257.423 125.619 258.609 127.093C259.795 128.567 261.951 128.792 263.425 127.606C264.899 126.42 265.124 124.265 263.936 122.805C262.735 121.329 260.594 121.105 259.12 122.291Z" fill="#9FB603"/>
<path d="M294.267 44.8956C292.793 46.0818 292.569 48.2227 293.756 49.6967C294.944 51.1563 297.097 51.3962 298.557 50.2079C300.031 49.0217 300.256 46.8664 299.053 45.4046C297.867 43.9306 295.726 43.7072 294.252 44.8934L294.267 44.8956Z" fill="#16C1D1"/>
</g>
<g clip-path="url(#clip1_105_251)">
<path d="M154.644 201.327L157.546 202.782L154.133 177.346L151.221 177.741L154.644 201.327Z" fill="#FFC50C"/>
<path d="M161.846 206.088C157.582 204.026 154.369 201.848 154.67 201.223C154.97 200.598 158.669 201.762 162.932 203.824C167.196 205.887 170.409 208.064 170.108 208.689C169.808 209.314 166.109 208.15 161.846 206.088Z" fill="#FFC50C"/>
<path d="M162.139 203.336C157.936 202.861 154.588 201.92 154.666 201.23C154.741 200.541 158.215 200.365 162.418 200.839C166.621 201.313 169.969 202.254 169.891 202.944C169.812 203.634 166.342 203.806 162.139 203.336Z" fill="#FFC50C"/>
<path d="M155.531 205.067C156.775 202.172 157.272 199.599 156.635 199.323C156.003 199.046 154.48 201.173 153.237 204.069C151.993 206.964 151.496 209.537 152.132 209.813C152.765 210.09 154.287 207.963 155.531 205.067Z" fill="#FFC50C"/>
<path d="M128.673 202.057L125.771 203.508L129.184 178.075L132.097 178.471L128.673 202.057Z" fill="#FFC50C"/>
<path d="M121.472 206.817C125.735 204.755 128.948 202.578 128.648 201.953C128.348 201.328 124.649 202.492 120.385 204.554C116.122 206.616 112.909 208.793 113.209 209.418C113.509 210.044 117.208 208.88 121.472 206.817Z" fill="#FFC50C"/>
<path d="M121.175 204.065C125.378 203.591 128.727 202.646 128.648 201.96C128.569 201.27 125.099 201.094 120.896 201.572C116.694 202.046 113.345 202.987 113.424 203.677C113.502 204.367 116.972 204.54 121.175 204.069V204.065Z" fill="#FFC50C"/>
<path d="M130.078 204.798C128.834 201.902 127.312 199.776 126.679 200.052C126.046 200.329 126.54 202.898 127.783 205.797C129.027 208.693 130.549 210.82 131.182 210.543C131.815 210.266 131.321 207.698 130.078 204.798Z" fill="#FFC50C"/>
<path d="M203.166 137.247C212.622 131.413 222.064 123.056 219.999 118.964C217.933 114.872 205.142 116.596 195.686 122.431C186.23 128.266 182.241 124.303 182.674 129.358C184.739 133.45 181.962 146.032 203.162 137.247H203.166Z" fill="#18B49C"/>
<path opacity="0.3" d="M195.689 122.431C205.145 116.596 217.936 114.872 220.002 118.964C220.227 119.41 220.316 119.909 220.28 120.448C218.165 122.05 215.885 123.606 213.608 125.011C204.152 130.845 193.813 129.121 191.747 125.029C191.668 124.874 191.604 124.72 191.55 124.561C192.791 124.051 194.17 123.369 195.689 122.431Z" fill="#1CA892"/>
<path d="M204.745 129.081C214.202 123.247 223.644 114.89 221.582 110.798C219.519 106.706 206.729 108.43 197.269 114.265C187.812 120.099 180.822 125.007 182.884 129.099C184.95 133.191 195.289 134.916 204.745 129.081Z" fill="#18B49C"/>
<path d="M202.022 126.742C192.644 132.53 184.696 132.045 182.552 128.043C182.019 124.17 188.609 119.604 197.269 114.261C204.774 109.63 214.38 107.589 219.055 108.991C220.131 113.241 211.082 121.148 202.022 126.739V126.742Z" fill="#1CA892"/>
<path d="M203.891 124.454C212.551 117.268 223.529 104.403 220.474 99.9226C217.415 95.4424 201.475 101.051 192.816 108.236C184.157 115.422 179.618 124.881 182.677 129.358C185.736 133.838 195.235 131.639 203.895 124.454H203.891Z" fill="#18B49C"/>
<path d="M130.37 66.6215C135.005 69.2011 139.54 69.8801 140.505 68.1341C141.47 66.388 137.057 65.0156 132.421 62.436C127.786 59.8564 124.684 57.0433 123.723 58.7894C122.761 60.5355 125.738 64.042 130.374 66.6251L130.37 66.6215Z" fill="#15AE97"/>
<path d="M132.393 59.1632C134.255 64.1499 134.723 68.8923 136.582 68.1917C138.44 67.4911 138.436 62.8781 136.578 57.8914C134.716 52.9047 131.7 49.4305 129.841 50.1311C127.983 50.8317 130.531 54.1729 132.393 59.1596V59.1632Z" fill="#1EBBA3"/>
<path d="M89.4679 131.808C89.4679 121.393 107.551 143.894 110.914 123.092C110.914 92.4209 117.287 59.9894 152.603 60.8157C183.978 60.8157 190.118 87.427 190.118 117.534C192.033 207.205 89.4679 203.86 89.4679 131.812V131.808Z" fill="#1EBBA3"/>
<path d="M92.0769 132.573C94.1854 138.889 99.5783 142.08 102.08 141.002C102.294 140.908 102.48 140.79 102.641 140.643C104.353 139.069 103.074 134.442 101.147 128.668L96.5799 130.637L92.0769 132.577V132.573Z" fill="#5C85EE"/>
<path d="M100.071 139.536C100.75 139.64 101.644 140.078 102.641 140.639C104.8 141.85 107.455 143.628 109.538 143.858C111.011 144.02 112.194 143.409 112.719 141.278C114.327 134.736 108.155 109.217 106.086 106.727C103.974 104.184 101.176 112.159 99.16 119.313C98.3523 122.183 97.6697 124.917 97.2087 126.793C96.8835 128.122 96.6762 129.415 96.5761 130.637C96.1973 135.437 97.5268 139.144 100.068 139.54L100.071 139.536Z" fill="#1EBBA3"/>
<path d="M96.5796 130.633C96.6761 129.412 96.8834 128.118 97.2122 126.789C97.6732 124.917 98.3558 122.18 99.1635 119.309C99.9641 119.887 100.704 120.426 101.361 120.908C104.649 123.308 107.333 125.977 109.252 128.6C109.252 128.6 107.862 131.366 106.036 131.812C104.206 132.257 96.5796 130.633 96.5796 130.633Z" fill="#15AE97"/>
<path d="M129.327 76.383C130.356 78.6464 131.868 76.3578 134.852 74.9854C137.836 73.613 141.16 73.6812 140.131 71.4142C139.101 69.1472 135.846 68.4251 132.861 69.7975C129.877 71.1699 128.294 74.116 129.323 76.383H129.327Z" fill="#1CA892"/>
<path d="M182.595 73.8178C181.827 76.1854 180.068 74.0836 176.948 73.0597C173.828 72.0358 170.533 72.4813 171.302 70.1137C172.07 67.7461 175.222 66.6575 178.338 67.6778C181.458 68.7017 183.363 71.4502 182.595 73.8178Z" fill="#1CA892"/>
<path d="M166.631 130.17C176.148 130.17 183.342 132.62 188.749 136.87C181.869 176.232 150.845 190.679 125.285 183.687C124.431 155.818 134.659 129.422 166.634 130.17H166.631Z" fill="#24CCB2"/>
<path d="M100.129 121.439C91.0406 114.807 67.1817 97.6124 67.221 105.384C67.246 110.816 86.7412 150.188 95.8295 156.821C104.914 163.453 106.608 144.961 110.157 140.865C113.706 136.77 109.217 128.072 100.132 121.439H100.129Z" fill="#1EBBA3"/>
<g opacity="0.3">
<path d="M115.928 122.934C114.485 131.88 110.317 132.818 106.036 131.812C108.255 130.867 110.06 128.377 110.914 123.088C110.914 92.5323 117.24 60.2265 152.213 60.8013C121.643 63.2839 115.928 93.8975 115.928 122.934Z" fill="#00907A"/>
</g>
<path d="M152.786 98.3202C153.458 91.6521 150.059 83.0726 142.468 82.7205C134.459 82.5373 130.764 91.3718 131.465 98.3202C131.983 92.8449 134.102 86.2809 139.834 84.463C143.726 83.2056 147.843 85.4726 149.881 88.8354C151.678 91.6233 152.443 95.0292 152.786 98.3166V98.3202Z" fill="#0B1254"/>
<path d="M184.435 98.3202C185.107 91.6521 181.708 83.0726 174.117 82.7205C166.108 82.5373 162.413 91.3718 163.114 98.3202C163.632 92.8449 165.751 86.2809 171.483 84.463C175.375 83.2056 179.492 85.4726 181.529 88.8354C183.327 91.6233 184.092 95.0292 184.435 98.3166V98.3202Z" fill="#0B1254"/>
<path d="M162.606 128.442C165.315 127.842 167.777 123.523 168.814 118.059C169.071 116.69 169.242 115.253 169.303 113.78L157.027 116.492C156.991 117.34 156.991 118.163 157.027 118.953C157.306 124.996 159.604 129.106 162.602 128.445L162.606 128.442Z" fill="#FFC50C"/>
<g clip-path="url(#clip2_105_251)">
<path d="M164.565 125.703C166.571 123.261 167.676 118.934 167.95 117.501C166.855 117.322 159.616 117.666 158.206 117.501C158.062 121.868 160.143 130.815 164.565 125.706V125.703Z" fill="#984B52"/>
<path d="M164.565 125.703C163.898 124.317 163.682 123.43 162.166 122.957C161.061 122.609 159.866 122.537 159.041 123.609C159.469 125.68 161.554 129.339 164.569 125.706L164.565 125.703Z" fill="#D53C8C"/>
</g>
<path d="M157.027 116.744C158.864 116.722 164.01 116.625 168.814 116.23C169.071 115.447 169.242 114.62 169.303 113.776L157.027 115.332C156.991 115.817 156.991 116.291 157.027 116.744Z" fill="#FFB709"/>
<path d="M180.25 114.545C181.047 111.344 174.661 103.048 168.246 103.264C161.831 103.479 156.81 108.883 157.024 115.332C157.024 115.332 179.453 117.746 180.25 114.545Z" fill="#FFC50C"/>
<path d="M166.709 104.78C164.072 104.87 161.67 105.836 159.769 107.392C161.813 104.963 164.833 103.383 168.246 103.268C174.661 103.052 181.047 111.348 180.25 114.549C180.139 114.994 179.611 115.332 178.778 115.58C178.91 112.102 172.82 104.575 166.709 104.78Z" fill="#FCD575"/>
<path d="M101.073 136.518C93.3071 146.132 86.5562 158.48 90.3838 162.203C94.2113 165.925 107.166 159.616 114.932 150.002C122.698 140.387 128.527 143.301 126.058 137.966C122.23 134.244 108.839 126.904 101.073 136.518Z" fill="#18B49C"/>
<path d="M114.932 150.005C107.166 159.619 94.2108 165.932 90.3832 162.206C89.9651 161.8 89.6721 161.29 89.4969 160.694C91.1159 158.218 92.9278 155.743 94.8005 153.425C102.566 143.811 114.278 142.094 118.105 145.82C118.248 145.96 118.381 146.107 118.499 146.258C117.376 147.242 116.179 148.464 114.932 150.009V150.005Z" fill="#1CA892"/>
<path d="M102.631 145.927C94.8653 155.542 88.1143 167.89 91.9419 171.612C95.7695 175.334 108.725 169.025 116.49 159.411C124.256 149.797 129.764 142.044 125.936 138.318C122.109 134.592 110.397 136.31 102.631 145.924V145.927Z" fill="#18B49C"/>
<path d="M106.463 147.523C114.164 137.988 122.834 135.753 126.708 139.349C128.817 143.366 123.599 150.609 116.491 159.411C110.326 167.042 100.895 172.593 95.348 172.693C92.5104 168.454 99.0184 156.731 106.463 147.519V147.523Z" fill="#1CA892"/>
<path d="M105.379 150.655C99 161.459 92.4027 179.236 97.4454 183.033C102.488 186.831 117.259 175.215 123.638 164.412C130.017 153.609 131.1 141.767 126.061 137.97C121.018 134.172 111.762 139.852 105.383 150.655H105.379Z" fill="#18B49C"/>
</g>
<g clip-path="url(#clip3_105_251)">
<path d="M242.614 127.925C237.006 123.111 231.405 118.283 225.78 113.496C221.329 109.709 215.471 104.769 210.997 101.006C213.358 97.7143 216.185 93.1701 218.556 89.8932C220.218 87.5896 223.359 86.9698 225.786 88.4352C252.007 104.201 243.716 128.11 242.614 127.925Z" fill="#D53C8C"/>
<path d="M208.241 106.227C205.99 104.328 204.168 103.221 201.911 101.319C204.732 97.7114 218.313 79.9357 219.681 78.7803C228.479 83.2426 238.351 96.5749 241.916 105.408C238.756 101.574 223.829 86.3469 222.269 88.4422C218.903 92.979 211.532 101.628 208.241 106.227Z" fill="#C22D83"/>
<path d="M212.37 102.204C216.844 105.967 221.329 109.709 225.773 113.492C231.405 118.283 236.995 123.114 242.607 127.921C239.924 127.939 237.247 127.961 234.571 127.983C225.796 120.732 217.015 113.478 208.234 106.223C206.125 104.591 204.02 102.951 201.905 101.315C203.139 99.7047 204.376 98.1051 205.61 96.4946C207.86 98.3929 210.117 100.295 212.367 102.193L212.37 102.204Z" fill="#FAC411"/>
<path d="M194.206 110.817C195.605 109.145 197.008 107.466 198.406 105.794C200.561 107.379 202.726 108.961 204.881 110.546C211.78 116.447 218.668 122.35 225.567 128.251C222.345 128.307 219.118 128.371 215.896 128.428C210.747 124.063 205.593 119.705 200.444 115.341C198.363 113.835 196.283 112.33 194.206 110.817Z" fill="#F5C723"/>
<path d="M200.444 115.341C205.593 119.705 210.743 124.07 215.896 128.428C207.742 128.468 199.596 128.512 191.447 128.545C191.365 128.065 191.037 127.387 191.235 127.123C194.259 123.163 197.362 119.258 200.444 115.341Z" fill="#D53C8C"/>
<path d="M225.567 128.251C218.668 122.35 211.78 116.447 204.881 110.546C205.997 109.107 207.114 107.669 208.237 106.234C217.018 113.488 225.8 120.743 234.574 127.994C231.564 128.081 228.566 128.166 225.563 128.257L225.567 128.251Z" fill="#D53C8C"/>
<path d="M200.444 115.341C198.082 118.346 193.924 123.68 192.115 126C191.549 126.724 191.311 127.647 191.443 128.552C191.443 128.552 186.209 127.991 185.434 126.65C184.622 125.231 185.527 122.178 186.633 120.438C188.809 117.021 191.637 114.007 194.202 110.824C196.287 112.323 198.368 113.828 200.444 115.341Z" fill="#C22D83"/>
<path d="M208.241 106.227C207.125 107.666 206.008 109.104 204.885 110.539C202.726 108.961 200.565 107.372 198.41 105.787C199.576 104.294 200.75 102.805 201.916 101.312C204.024 102.945 206.129 104.584 208.245 106.22L208.241 106.227Z" fill="#C22D83"/>
</g>
<g filter="url(#filter0_d_105_251)">
<rect x="14" y="178" width="974" height="120" fill="#F3FFFA" shape-rendering="crispEdges"/>
<rect x="14.5" y="178.5" width="973" height="119" stroke="#EEEEEE" shape-rendering="crispEdges"/>
<path d="M96.8098 228.222V228.223V247.777C96.8098 251.924 95.5756 255.174 93.3629 257.386C91.1503 259.599 87.9004 260.833 83.7532 260.833H64.2232C60.0759 260.833 56.8262 259.599 54.6136 257.384C52.401 255.168 51.1665 251.913 51.1665 247.753V228.223C51.1665 224.076 52.4008 220.826 54.6134 218.614C56.826 216.401 60.0759 215.167 64.2232 215.167H83.7765C87.9238 215.167 91.1736 216.401 93.3831 218.613C95.5926 220.826 96.8212 224.075 96.8098 228.222ZM85.5067 232.987L85.5068 232.987L85.5127 232.981C86.3734 232.09 86.3819 230.682 85.5067 229.806C84.6348 228.935 83.1982 228.935 82.3263 229.806L70.6865 241.446L65.6734 236.433C64.8015 235.561 63.3649 235.561 62.4929 236.433C61.621 237.305 61.621 238.742 62.4929 239.614L69.0963 246.217C69.5156 246.636 70.0857 246.877 70.6865 246.877C71.2873 246.877 71.8574 246.636 72.2767 246.217L85.5067 232.987Z" fill="#1EBBA3" stroke="#FAFCFC"/>
<path d="M118.32 233.2C116.76 233.2 115.44 232.907 114.36 232.32C113.293 231.733 112.48 230.9 111.92 229.82C111.36 228.74 111.08 227.46 111.08 225.98C111.08 224.86 111.24 223.853 111.56 222.96C111.893 222.067 112.367 221.307 112.98 220.68C113.607 220.04 114.367 219.553 115.26 219.22C116.153 218.873 117.167 218.7 118.3 218.7C119.047 218.7 119.793 218.793 120.54 218.98C121.3 219.153 122.013 219.453 122.68 219.88C122.907 220.027 123.053 220.207 123.12 220.42C123.2 220.633 123.213 220.853 123.16 221.08C123.107 221.293 123.007 221.48 122.86 221.64C122.713 221.8 122.527 221.9 122.3 221.94C122.087 221.98 121.847 221.927 121.58 221.78C121.073 221.487 120.56 221.273 120.04 221.14C119.52 221.007 118.94 220.94 118.3 220.94C117.313 220.94 116.48 221.14 115.8 221.54C115.12 221.927 114.607 222.493 114.26 223.24C113.927 223.987 113.76 224.9 113.76 225.98C113.76 227.62 114.153 228.867 114.94 229.72C115.727 230.573 116.893 231 118.44 231C118.973 231 119.513 230.947 120.06 230.84C120.607 230.733 121.14 230.587 121.66 230.4L121.16 231.54V227.28H118.96C118.627 227.28 118.367 227.193 118.18 227.02C118.007 226.847 117.92 226.613 117.92 226.32C117.92 226.013 118.007 225.78 118.18 225.62C118.367 225.46 118.627 225.38 118.96 225.38H122.26C122.593 225.38 122.847 225.473 123.02 225.66C123.207 225.833 123.3 226.087 123.3 226.42V231.28C123.3 231.573 123.24 231.82 123.12 232.02C123.013 232.22 122.833 232.367 122.58 232.46C121.993 232.673 121.32 232.853 120.56 233C119.8 233.133 119.053 233.2 118.32 233.2ZM127.307 233.16C126.893 233.16 126.573 233.053 126.347 232.84C126.133 232.613 126.027 232.293 126.027 231.88V224.32C126.027 223.907 126.133 223.593 126.347 223.38C126.56 223.167 126.86 223.06 127.247 223.06C127.633 223.06 127.933 223.167 128.147 223.38C128.36 223.593 128.467 223.907 128.467 224.32V225.58H128.267C128.453 224.78 128.82 224.173 129.367 223.76C129.913 223.347 130.64 223.1 131.547 223.02C131.827 222.993 132.047 223.067 132.207 223.24C132.38 223.4 132.48 223.653 132.507 224C132.533 224.333 132.453 224.607 132.267 224.82C132.093 225.02 131.827 225.14 131.467 225.18L131.027 225.22C130.213 225.3 129.6 225.553 129.187 225.98C128.773 226.393 128.567 226.98 128.567 227.74V231.88C128.567 232.293 128.46 232.613 128.247 232.84C128.033 233.053 127.72 233.16 127.307 233.16ZM138.522 233.2C137.416 233.2 136.462 232.993 135.662 232.58C134.862 232.167 134.242 231.58 133.802 230.82C133.376 230.06 133.162 229.16 133.162 228.12C133.162 227.107 133.369 226.22 133.782 225.46C134.209 224.7 134.789 224.107 135.522 223.68C136.269 223.24 137.116 223.02 138.062 223.02C138.756 223.02 139.376 223.133 139.922 223.36C140.482 223.587 140.956 223.913 141.342 224.34C141.742 224.767 142.042 225.287 142.242 225.9C142.456 226.5 142.562 227.18 142.562 227.94C142.562 228.18 142.476 228.367 142.302 228.5C142.142 228.62 141.909 228.68 141.602 228.68H135.182V227.24H140.802L140.482 227.54C140.482 226.927 140.389 226.413 140.202 226C140.029 225.587 139.769 225.273 139.422 225.06C139.089 224.833 138.669 224.72 138.162 224.72C137.602 224.72 137.122 224.853 136.722 225.12C136.336 225.373 136.036 225.74 135.822 226.22C135.622 226.687 135.522 227.247 135.522 227.9V228.04C135.522 229.133 135.776 229.953 136.282 230.5C136.802 231.033 137.562 231.3 138.562 231.3C138.909 231.3 139.296 231.26 139.722 231.18C140.162 231.087 140.576 230.933 140.962 230.72C141.242 230.56 141.489 230.493 141.702 230.52C141.916 230.533 142.082 230.607 142.202 230.74C142.336 230.873 142.416 231.04 142.442 231.24C142.469 231.427 142.429 231.62 142.322 231.82C142.229 232.02 142.062 232.193 141.822 232.34C141.356 232.633 140.816 232.853 140.202 233C139.602 233.133 139.042 233.2 138.522 233.2ZM147.762 233.2C147.056 233.2 146.422 233.067 145.862 232.8C145.316 232.52 144.882 232.147 144.562 231.68C144.256 231.213 144.102 230.687 144.102 230.1C144.102 229.38 144.289 228.813 144.662 228.4C145.036 227.973 145.642 227.667 146.482 227.48C147.322 227.293 148.449 227.2 149.862 227.2H150.862V228.64H149.882C149.056 228.64 148.396 228.68 147.902 228.76C147.409 228.84 147.056 228.98 146.842 229.18C146.642 229.367 146.542 229.633 146.542 229.98C146.542 230.42 146.696 230.78 147.002 231.06C147.309 231.34 147.736 231.48 148.282 231.48C148.722 231.48 149.109 231.38 149.442 231.18C149.789 230.967 150.062 230.68 150.262 230.32C150.462 229.96 150.562 229.547 150.562 229.08V226.78C150.562 226.113 150.416 225.633 150.122 225.34C149.829 225.047 149.336 224.9 148.642 224.9C148.256 224.9 147.836 224.947 147.382 225.04C146.942 225.133 146.476 225.293 145.982 225.52C145.729 225.64 145.502 225.673 145.302 225.62C145.116 225.567 144.969 225.46 144.862 225.3C144.756 225.127 144.702 224.94 144.702 224.74C144.702 224.54 144.756 224.347 144.862 224.16C144.969 223.96 145.149 223.813 145.402 223.72C146.016 223.467 146.602 223.287 147.162 223.18C147.736 223.073 148.256 223.02 148.722 223.02C149.682 223.02 150.469 223.167 151.082 223.46C151.709 223.753 152.176 224.2 152.482 224.8C152.789 225.387 152.942 226.147 152.942 227.08V231.88C152.942 232.293 152.842 232.613 152.642 232.84C152.442 233.053 152.156 233.16 151.782 233.16C151.409 233.16 151.116 233.053 150.902 232.84C150.702 232.613 150.602 232.293 150.602 231.88V230.92H150.762C150.669 231.387 150.482 231.793 150.202 232.14C149.936 232.473 149.596 232.733 149.182 232.92C148.769 233.107 148.296 233.2 147.762 233.2ZM159.96 233.2C159.093 233.2 158.366 233.053 157.78 232.76C157.206 232.467 156.78 232.04 156.5 231.48C156.22 230.907 156.08 230.2 156.08 229.36V225.1H155.04C154.72 225.1 154.473 225.02 154.3 224.86C154.126 224.687 154.04 224.453 154.04 224.16C154.04 223.853 154.126 223.62 154.3 223.46C154.473 223.3 154.72 223.22 155.04 223.22H156.08V221.4C156.08 220.987 156.186 220.673 156.4 220.46C156.626 220.247 156.94 220.14 157.34 220.14C157.74 220.14 158.046 220.247 158.26 220.46C158.473 220.673 158.58 220.987 158.58 221.4V223.22H160.7C161.02 223.22 161.266 223.3 161.44 223.46C161.613 223.62 161.7 223.853 161.7 224.16C161.7 224.453 161.613 224.687 161.44 224.86C161.266 225.02 161.02 225.1 160.7 225.1H158.58V229.22C158.58 229.86 158.72 230.34 159 230.66C159.28 230.98 159.733 231.14 160.36 231.14C160.586 231.14 160.786 231.12 160.96 231.08C161.133 231.04 161.286 231.013 161.42 231C161.58 230.987 161.713 231.04 161.82 231.16C161.926 231.267 161.98 231.493 161.98 231.84C161.98 232.107 161.933 232.347 161.84 232.56C161.76 232.76 161.606 232.9 161.38 232.98C161.206 233.033 160.98 233.08 160.7 233.12C160.42 233.173 160.173 233.2 159.96 233.2ZM168.205 233.14C167.832 233.153 167.538 233.053 167.325 232.84C167.112 232.627 167.005 232.353 167.005 232.02C167.005 231.767 167.085 231.547 167.245 231.36C167.392 231.16 167.612 231.053 167.905 231.04L168.505 231C169.092 230.96 169.532 230.78 169.825 230.46C170.132 230.127 170.285 229.653 170.285 229.04V220.04C170.285 219.613 170.392 219.293 170.605 219.08C170.832 218.853 171.152 218.74 171.565 218.74C171.978 218.74 172.292 218.853 172.505 219.08C172.732 219.293 172.845 219.613 172.845 220.04V229.02C172.845 229.86 172.692 230.573 172.385 231.16C172.092 231.747 171.652 232.207 171.065 232.54C170.478 232.86 169.752 233.047 168.885 233.1L168.205 233.14ZM180.115 233.2C179.102 233.2 178.222 232.993 177.475 232.58C176.729 232.167 176.149 231.58 175.735 230.82C175.322 230.047 175.115 229.14 175.115 228.1C175.115 227.313 175.229 226.613 175.455 226C175.695 225.373 176.035 224.84 176.475 224.4C176.915 223.947 177.442 223.607 178.055 223.38C178.669 223.14 179.355 223.02 180.115 223.02C181.129 223.02 182.009 223.227 182.755 223.64C183.502 224.053 184.082 224.64 184.495 225.4C184.909 226.16 185.115 227.06 185.115 228.1C185.115 228.887 184.995 229.593 184.755 230.22C184.529 230.847 184.195 231.387 183.755 231.84C183.315 232.28 182.789 232.62 182.175 232.86C181.562 233.087 180.875 233.2 180.115 233.2ZM180.115 231.3C180.609 231.3 181.042 231.18 181.415 230.94C181.789 230.7 182.075 230.347 182.275 229.88C182.489 229.4 182.595 228.807 182.595 228.1C182.595 227.033 182.369 226.24 181.915 225.72C181.462 225.187 180.862 224.92 180.115 224.92C179.622 224.92 179.189 225.04 178.815 225.28C178.442 225.507 178.149 225.86 177.935 226.34C177.735 226.807 177.635 227.393 177.635 228.1C177.635 229.153 177.862 229.953 178.315 230.5C178.769 231.033 179.369 231.3 180.115 231.3ZM192.819 233.2C191.992 233.2 191.266 232.993 190.639 232.58C190.026 232.167 189.619 231.613 189.419 230.92L189.639 230.42V231.88C189.639 232.293 189.532 232.613 189.319 232.84C189.106 233.053 188.806 233.16 188.419 233.16C188.019 233.16 187.712 233.053 187.499 232.84C187.286 232.613 187.179 232.293 187.179 231.88V220C187.179 219.587 187.286 219.273 187.499 219.06C187.712 218.847 188.019 218.74 188.419 218.74C188.819 218.74 189.126 218.847 189.339 219.06C189.566 219.273 189.679 219.587 189.679 220V225.2H189.439C189.652 224.547 190.066 224.02 190.679 223.62C191.292 223.22 192.006 223.02 192.819 223.02C193.686 223.02 194.439 223.227 195.079 223.64C195.719 224.053 196.219 224.64 196.579 225.4C196.939 226.147 197.119 227.047 197.119 228.1C197.119 229.14 196.939 230.047 196.579 230.82C196.219 231.58 195.712 232.167 195.059 232.58C194.419 232.993 193.672 233.2 192.819 233.2ZM192.119 231.3C192.612 231.3 193.046 231.18 193.419 230.94C193.792 230.7 194.079 230.347 194.279 229.88C194.492 229.4 194.599 228.807 194.599 228.1C194.599 227.033 194.372 226.24 193.919 225.72C193.466 225.187 192.866 224.92 192.119 224.92C191.626 224.92 191.192 225.04 190.819 225.28C190.446 225.507 190.152 225.86 189.939 226.34C189.739 226.807 189.639 227.393 189.639 228.1C189.639 229.153 189.866 229.953 190.319 230.5C190.772 231.033 191.372 231.3 192.119 231.3ZM200.371 228.94C200.118 228.94 199.918 228.86 199.771 228.7C199.638 228.54 199.558 228.313 199.531 228.02L198.931 220.38C198.891 219.887 198.998 219.493 199.251 219.2C199.504 218.893 199.878 218.74 200.371 218.74C200.851 218.74 201.211 218.893 201.451 219.2C201.704 219.493 201.811 219.887 201.771 220.38L201.171 228.02C201.158 228.313 201.078 228.54 200.931 228.7C200.798 228.86 200.611 228.94 200.371 228.94ZM200.371 233.1C199.918 233.1 199.551 232.96 199.271 232.68C199.004 232.4 198.871 232.04 198.871 231.6C198.871 231.173 199.004 230.827 199.271 230.56C199.551 230.28 199.918 230.14 200.371 230.14C200.838 230.14 201.198 230.28 201.451 230.56C201.718 230.827 201.851 231.173 201.851 231.6C201.851 232.04 201.718 232.4 201.451 232.68C201.198 232.96 200.838 233.1 200.371 233.1Z" fill="#1EBBA3"/>
<path d="M114.382 258.098C114.214 258.098 114.079 258.056 113.976 257.972C113.873 257.879 113.789 257.743 113.724 257.566L110.63 248.732C110.565 248.536 110.579 248.373 110.672 248.242C110.775 248.102 110.933 248.032 111.148 248.032C111.307 248.032 111.433 248.074 111.526 248.158C111.619 248.233 111.699 248.354 111.764 248.522L114.662 257.02H114.172L117.126 248.564C117.191 248.387 117.271 248.256 117.364 248.172C117.457 248.079 117.583 248.032 117.742 248.032C117.891 248.032 118.008 248.079 118.092 248.172C118.185 248.256 118.265 248.387 118.33 248.564L121.242 257.02H120.808L123.734 248.522C123.781 248.363 123.851 248.242 123.944 248.158C124.047 248.074 124.177 248.032 124.336 248.032C124.532 248.032 124.677 248.097 124.77 248.228C124.863 248.359 124.873 248.527 124.798 248.732L121.69 257.566C121.625 257.743 121.541 257.879 121.438 257.972C121.345 258.056 121.209 258.098 121.032 258.098C120.864 258.098 120.729 258.056 120.626 257.972C120.533 257.879 120.449 257.743 120.374 257.566L117.56 249.46H117.868L115.026 257.566C114.961 257.743 114.881 257.879 114.788 257.972C114.695 258.056 114.559 258.098 114.382 258.098ZM128.718 258.126C127.999 258.126 127.379 257.986 126.856 257.706C126.343 257.417 125.941 257.011 125.652 256.488C125.372 255.965 125.232 255.34 125.232 254.612C125.232 253.903 125.372 253.287 125.652 252.764C125.932 252.232 126.315 251.817 126.8 251.518C127.295 251.219 127.864 251.07 128.508 251.07C128.965 251.07 129.376 251.149 129.74 251.308C130.104 251.457 130.412 251.677 130.664 251.966C130.925 252.255 131.121 252.605 131.252 253.016C131.392 253.427 131.462 253.889 131.462 254.402C131.462 254.551 131.42 254.663 131.336 254.738C131.252 254.803 131.131 254.836 130.972 254.836H126.1V254.094H130.706L130.482 254.276C130.482 253.772 130.407 253.347 130.258 253.002C130.109 252.647 129.889 252.377 129.6 252.19C129.32 252.003 128.965 251.91 128.536 251.91C128.06 251.91 127.654 252.022 127.318 252.246C126.991 252.461 126.744 252.764 126.576 253.156C126.408 253.539 126.324 253.987 126.324 254.5V254.584C126.324 255.443 126.529 256.096 126.94 256.544C127.36 256.992 127.953 257.216 128.718 257.216C129.035 257.216 129.348 257.174 129.656 257.09C129.973 257.006 130.281 256.866 130.58 256.67C130.711 256.586 130.827 256.549 130.93 256.558C131.042 256.558 131.131 256.591 131.196 256.656C131.261 256.712 131.303 256.787 131.322 256.88C131.35 256.964 131.341 257.057 131.294 257.16C131.257 257.263 131.177 257.351 131.056 257.426C130.748 257.65 130.384 257.823 129.964 257.944C129.544 258.065 129.129 258.126 128.718 258.126ZM135.175 258.126C134.503 258.126 133.99 257.921 133.635 257.51C133.28 257.099 133.103 256.511 133.103 255.746V248.606C133.103 248.419 133.15 248.279 133.243 248.186C133.336 248.083 133.476 248.032 133.663 248.032C133.84 248.032 133.98 248.083 134.083 248.186C134.186 248.279 134.237 248.419 134.237 248.606V255.662C134.237 256.166 134.335 256.544 134.531 256.796C134.736 257.039 135.035 257.16 135.427 257.16C135.511 257.16 135.586 257.155 135.651 257.146C135.716 257.137 135.782 257.132 135.847 257.132C135.95 257.123 136.02 257.146 136.057 257.202C136.104 257.258 136.127 257.37 136.127 257.538C136.127 257.706 136.09 257.832 136.015 257.916C135.94 258 135.819 258.056 135.651 258.084C135.576 258.093 135.497 258.103 135.413 258.112C135.329 258.121 135.25 258.126 135.175 258.126ZM139.318 258.126C138.646 258.126 138.132 257.921 137.778 257.51C137.423 257.099 137.246 256.511 137.246 255.746V248.606C137.246 248.419 137.292 248.279 137.386 248.186C137.479 248.083 137.619 248.032 137.806 248.032C137.983 248.032 138.123 248.083 138.226 248.186C138.328 248.279 138.38 248.419 138.38 248.606V255.662C138.38 256.166 138.478 256.544 138.674 256.796C138.879 257.039 139.178 257.16 139.57 257.16C139.654 257.16 139.728 257.155 139.794 257.146C139.859 257.137 139.924 257.132 139.99 257.132C140.092 257.123 140.162 257.146 140.2 257.202C140.246 257.258 140.27 257.37 140.27 257.538C140.27 257.706 140.232 257.832 140.158 257.916C140.083 258 139.962 258.056 139.794 258.084C139.719 258.093 139.64 258.103 139.556 258.112C139.472 258.121 139.392 258.126 139.318 258.126ZM147.588 258.126C146.981 258.126 146.449 257.981 145.992 257.692C145.544 257.403 145.194 256.997 144.942 256.474C144.699 255.942 144.578 255.317 144.578 254.598C144.578 253.87 144.699 253.245 144.942 252.722C145.194 252.19 145.544 251.784 145.992 251.504C146.449 251.215 146.981 251.07 147.588 251.07C148.204 251.07 148.731 251.224 149.17 251.532C149.608 251.84 149.902 252.255 150.052 252.778H149.898V248.606C149.898 248.419 149.944 248.279 150.038 248.186C150.14 248.083 150.285 248.032 150.472 248.032C150.649 248.032 150.784 248.083 150.878 248.186C150.98 248.279 151.032 248.419 151.032 248.606V257.51C151.032 257.697 150.985 257.841 150.892 257.944C150.798 258.047 150.658 258.098 150.472 258.098C150.294 258.098 150.154 258.047 150.052 257.944C149.958 257.841 149.912 257.697 149.912 257.51V256.18L150.066 256.376C149.916 256.908 149.618 257.333 149.17 257.65C148.731 257.967 148.204 258.126 147.588 258.126ZM147.826 257.216C148.246 257.216 148.614 257.113 148.932 256.908C149.249 256.703 149.492 256.404 149.66 256.012C149.837 255.62 149.926 255.149 149.926 254.598C149.926 253.749 149.734 253.1 149.352 252.652C148.978 252.204 148.47 251.98 147.826 251.98C147.396 251.98 147.023 252.083 146.706 252.288C146.398 252.484 146.155 252.778 145.978 253.17C145.81 253.553 145.726 254.029 145.726 254.598C145.726 255.438 145.917 256.087 146.3 256.544C146.682 256.992 147.191 257.216 147.826 257.216ZM155.988 258.126C155.325 258.126 154.751 257.981 154.266 257.692C153.78 257.403 153.402 256.997 153.132 256.474C152.87 255.942 152.74 255.317 152.74 254.598C152.74 254.057 152.814 253.571 152.964 253.142C153.113 252.703 153.332 252.33 153.622 252.022C153.911 251.714 154.252 251.481 154.644 251.322C155.045 251.154 155.493 251.07 155.988 251.07C156.65 251.07 157.224 251.215 157.71 251.504C158.195 251.793 158.568 252.204 158.83 252.736C159.1 253.259 159.236 253.879 159.236 254.598C159.236 255.139 159.161 255.625 159.012 256.054C158.862 256.483 158.643 256.857 158.354 257.174C158.064 257.482 157.719 257.72 157.318 257.888C156.926 258.047 156.482 258.126 155.988 258.126ZM155.988 257.216C156.408 257.216 156.776 257.113 157.094 256.908C157.411 256.703 157.654 256.404 157.822 256.012C157.999 255.62 158.088 255.149 158.088 254.598C158.088 253.749 157.896 253.1 157.514 252.652C157.14 252.204 156.632 251.98 155.988 251.98C155.558 251.98 155.185 252.083 154.868 252.288C154.56 252.484 154.317 252.778 154.14 253.17C153.972 253.553 153.888 254.029 153.888 254.598C153.888 255.438 154.079 256.087 154.462 256.544C154.844 256.992 155.353 257.216 155.988 257.216ZM161.499 258.098C161.312 258.098 161.172 258.047 161.079 257.944C160.986 257.841 160.939 257.697 160.939 257.51V251.672C160.939 251.485 160.986 251.345 161.079 251.252C161.172 251.149 161.308 251.098 161.485 251.098C161.662 251.098 161.798 251.149 161.891 251.252C161.994 251.345 162.045 251.485 162.045 251.672V252.876L161.891 252.708C162.087 252.167 162.404 251.761 162.843 251.49C163.291 251.21 163.804 251.07 164.383 251.07C164.924 251.07 165.372 251.168 165.727 251.364C166.091 251.56 166.362 251.859 166.539 252.26C166.716 252.652 166.805 253.151 166.805 253.758V257.51C166.805 257.697 166.754 257.841 166.651 257.944C166.558 258.047 166.422 258.098 166.245 258.098C166.058 258.098 165.914 258.047 165.811 257.944C165.718 257.841 165.671 257.697 165.671 257.51V253.828C165.671 253.193 165.545 252.731 165.293 252.442C165.05 252.143 164.658 251.994 164.117 251.994C163.492 251.994 162.992 252.19 162.619 252.582C162.255 252.965 162.073 253.478 162.073 254.122V257.51C162.073 257.902 161.882 258.098 161.499 258.098ZM171.962 258.126C171.243 258.126 170.623 257.986 170.1 257.706C169.587 257.417 169.185 257.011 168.896 256.488C168.616 255.965 168.476 255.34 168.476 254.612C168.476 253.903 168.616 253.287 168.896 252.764C169.176 252.232 169.559 251.817 170.044 251.518C170.539 251.219 171.108 251.07 171.752 251.07C172.209 251.07 172.62 251.149 172.984 251.308C173.348 251.457 173.656 251.677 173.908 251.966C174.169 252.255 174.365 252.605 174.496 253.016C174.636 253.427 174.706 253.889 174.706 254.402C174.706 254.551 174.664 254.663 174.58 254.738C174.496 254.803 174.375 254.836 174.216 254.836H169.344V254.094H173.95L173.726 254.276C173.726 253.772 173.651 253.347 173.502 253.002C173.353 252.647 173.133 252.377 172.844 252.19C172.564 252.003 172.209 251.91 171.78 251.91C171.304 251.91 170.898 252.022 170.562 252.246C170.235 252.461 169.988 252.764 169.82 253.156C169.652 253.539 169.568 253.987 169.568 254.5V254.584C169.568 255.443 169.773 256.096 170.184 256.544C170.604 256.992 171.197 257.216 171.962 257.216C172.279 257.216 172.592 257.174 172.9 257.09C173.217 257.006 173.525 256.866 173.824 256.67C173.955 256.586 174.071 256.549 174.174 256.558C174.286 256.558 174.375 256.591 174.44 256.656C174.505 256.712 174.547 256.787 174.566 256.88C174.594 256.964 174.585 257.057 174.538 257.16C174.501 257.263 174.421 257.351 174.3 257.426C173.992 257.65 173.628 257.823 173.208 257.944C172.788 258.065 172.373 258.126 171.962 258.126ZM177.019 259.33C176.926 259.451 176.828 259.521 176.725 259.54C176.623 259.559 176.534 259.54 176.459 259.484C176.385 259.428 176.343 259.349 176.333 259.246C176.333 259.143 176.38 259.031 176.473 258.91C176.623 258.714 176.725 258.513 176.781 258.308C176.837 258.112 176.865 257.93 176.865 257.762L176.921 258.056C176.679 258.056 176.483 257.986 176.333 257.846C176.193 257.697 176.123 257.51 176.123 257.286C176.123 257.062 176.189 256.88 176.319 256.74C176.459 256.591 176.641 256.516 176.865 256.516C177.108 256.516 177.299 256.6 177.439 256.768C177.579 256.927 177.649 257.16 177.649 257.468C177.649 257.664 177.631 257.865 177.593 258.07C177.556 258.285 177.491 258.499 177.397 258.714C177.304 258.929 177.178 259.134 177.019 259.33ZM184.654 260.618C184.514 260.618 184.402 260.581 184.318 260.506C184.234 260.431 184.183 260.329 184.164 260.198C184.155 260.077 184.178 259.951 184.234 259.82L185.2 257.65V258.14L182.512 251.896C182.456 251.756 182.437 251.625 182.456 251.504C182.475 251.383 182.531 251.285 182.624 251.21C182.717 251.135 182.848 251.098 183.016 251.098C183.165 251.098 183.282 251.131 183.366 251.196C183.45 251.261 183.525 251.378 183.59 251.546L185.886 257.174H185.508L187.832 251.546C187.907 251.378 187.986 251.261 188.07 251.196C188.154 251.131 188.275 251.098 188.434 251.098C188.583 251.098 188.695 251.135 188.77 251.21C188.854 251.285 188.901 251.383 188.91 251.504C188.929 251.616 188.91 251.742 188.854 251.882L185.27 260.17C185.195 260.338 185.111 260.455 185.018 260.52C184.934 260.585 184.813 260.618 184.654 260.618ZM193.066 258.126C192.403 258.126 191.829 257.981 191.344 257.692C190.858 257.403 190.48 256.997 190.21 256.474C189.948 255.942 189.818 255.317 189.818 254.598C189.818 254.057 189.892 253.571 190.042 253.142C190.191 252.703 190.41 252.33 190.7 252.022C190.989 251.714 191.33 251.481 191.722 251.322C192.123 251.154 192.571 251.07 193.066 251.07C193.728 251.07 194.302 251.215 194.788 251.504C195.273 251.793 195.646 252.204 195.908 252.736C196.178 253.259 196.314 253.879 196.314 254.598C196.314 255.139 196.239 255.625 196.09 256.054C195.94 256.483 195.721 256.857 195.432 257.174C195.142 257.482 194.797 257.72 194.396 257.888C194.004 258.047 193.56 258.126 193.066 258.126ZM193.066 257.216C193.486 257.216 193.854 257.113 194.172 256.908C194.489 256.703 194.732 256.404 194.9 256.012C195.077 255.62 195.166 255.149 195.166 254.598C195.166 253.749 194.974 253.1 194.592 252.652C194.218 252.204 193.71 251.98 193.066 251.98C192.636 251.98 192.263 252.083 191.946 252.288C191.638 252.484 191.395 252.778 191.218 253.17C191.05 253.553 190.966 254.029 190.966 254.598C190.966 255.438 191.157 256.087 191.54 256.544C191.922 256.992 192.431 257.216 193.066 257.216ZM200.425 258.126C199.874 258.126 199.417 258.028 199.053 257.832C198.698 257.627 198.428 257.323 198.241 256.922C198.064 256.521 197.975 256.021 197.975 255.424V251.672C197.975 251.476 198.022 251.331 198.115 251.238C198.218 251.145 198.358 251.098 198.535 251.098C198.722 251.098 198.862 251.145 198.955 251.238C199.058 251.331 199.109 251.476 199.109 251.672V255.41C199.109 256.007 199.23 256.455 199.473 256.754C199.725 257.043 200.117 257.188 200.649 257.188C201.228 257.188 201.699 256.992 202.063 256.6C202.427 256.208 202.609 255.695 202.609 255.06V251.672C202.609 251.476 202.656 251.331 202.749 251.238C202.852 251.145 202.996 251.098 203.183 251.098C203.36 251.098 203.496 251.145 203.589 251.238C203.692 251.331 203.743 251.476 203.743 251.672V257.51C203.743 257.902 203.561 258.098 203.197 258.098C203.02 258.098 202.88 258.047 202.777 257.944C202.684 257.841 202.637 257.697 202.637 257.51V256.236L202.819 256.432C202.632 256.983 202.324 257.403 201.895 257.692C201.475 257.981 200.985 258.126 200.425 258.126ZM211.616 258.126C211.149 258.126 210.729 258.037 210.356 257.86C209.992 257.673 209.703 257.421 209.488 257.104C209.273 256.787 209.166 256.432 209.166 256.04C209.166 255.536 209.292 255.139 209.544 254.85C209.805 254.561 210.23 254.355 210.818 254.234C211.415 254.113 212.227 254.052 213.254 254.052H213.884V254.794H213.268C212.512 254.794 211.915 254.831 211.476 254.906C211.047 254.971 210.743 255.088 210.566 255.256C210.398 255.424 210.314 255.662 210.314 255.97C210.314 256.353 210.445 256.665 210.706 256.908C210.977 257.151 211.341 257.272 211.798 257.272C212.171 257.272 212.498 257.183 212.778 257.006C213.067 256.829 213.291 256.586 213.45 256.278C213.618 255.97 213.702 255.615 213.702 255.214V253.618C213.702 253.039 213.585 252.624 213.352 252.372C213.119 252.111 212.736 251.98 212.204 251.98C211.877 251.98 211.551 252.022 211.224 252.106C210.897 252.19 210.552 252.325 210.188 252.512C210.057 252.577 209.945 252.601 209.852 252.582C209.759 252.554 209.684 252.503 209.628 252.428C209.572 252.353 209.539 252.269 209.53 252.176C209.521 252.073 209.539 251.975 209.586 251.882C209.642 251.789 209.726 251.714 209.838 251.658C210.249 251.453 210.655 251.303 211.056 251.21C211.457 251.117 211.84 251.07 212.204 251.07C212.792 251.07 213.277 251.168 213.66 251.364C214.043 251.551 214.327 251.84 214.514 252.232C214.701 252.615 214.794 253.109 214.794 253.716V257.51C214.794 257.697 214.747 257.841 214.654 257.944C214.57 258.047 214.444 258.098 214.276 258.098C214.099 258.098 213.963 258.047 213.87 257.944C213.777 257.841 213.73 257.697 213.73 257.51V256.418H213.856C213.781 256.773 213.637 257.076 213.422 257.328C213.217 257.58 212.96 257.776 212.652 257.916C212.344 258.056 211.999 258.126 211.616 258.126ZM217.472 258.098C217.285 258.098 217.141 258.047 217.038 257.944C216.945 257.841 216.898 257.697 216.898 257.51V251.672C216.898 251.485 216.945 251.345 217.038 251.252C217.131 251.149 217.267 251.098 217.444 251.098C217.621 251.098 217.757 251.149 217.85 251.252C217.953 251.345 218.004 251.485 218.004 251.672V252.806H217.864C218.013 252.255 218.298 251.831 218.718 251.532C219.138 251.233 219.656 251.075 220.272 251.056C220.412 251.047 220.524 251.079 220.608 251.154C220.692 251.219 220.739 251.336 220.748 251.504C220.757 251.663 220.72 251.789 220.636 251.882C220.552 251.975 220.421 252.031 220.244 252.05L220.02 252.078C219.385 252.134 218.895 252.339 218.55 252.694C218.214 253.039 218.046 253.515 218.046 254.122V257.51C218.046 257.697 217.995 257.841 217.892 257.944C217.799 258.047 217.659 258.098 217.472 258.098ZM224.9 258.126C224.181 258.126 223.56 257.986 223.038 257.706C222.524 257.417 222.123 257.011 221.834 256.488C221.554 255.965 221.414 255.34 221.414 254.612C221.414 253.903 221.554 253.287 221.834 252.764C222.114 252.232 222.496 251.817 222.982 251.518C223.476 251.219 224.046 251.07 224.69 251.07C225.147 251.07 225.558 251.149 225.922 251.308C226.286 251.457 226.594 251.677 226.846 251.966C227.107 252.255 227.303 252.605 227.434 253.016C227.574 253.427 227.644 253.889 227.644 254.402C227.644 254.551 227.602 254.663 227.518 254.738C227.434 254.803 227.312 254.836 227.154 254.836H222.282V254.094H226.888L226.664 254.276C226.664 253.772 226.589 253.347 226.44 253.002C226.29 252.647 226.071 252.377 225.782 252.19C225.502 252.003 225.147 251.91 224.718 251.91C224.242 251.91 223.836 252.022 223.5 252.246C223.173 252.461 222.926 252.764 222.758 253.156C222.59 253.539 222.506 253.987 222.506 254.5V254.584C222.506 255.443 222.711 256.096 223.122 256.544C223.542 256.992 224.134 257.216 224.9 257.216C225.217 257.216 225.53 257.174 225.838 257.09C226.155 257.006 226.463 256.866 226.762 256.67C226.892 256.586 227.009 256.549 227.112 256.558C227.224 256.558 227.312 256.591 227.378 256.656C227.443 256.712 227.485 256.787 227.504 256.88C227.532 256.964 227.522 257.057 227.476 257.16C227.438 257.263 227.359 257.351 227.238 257.426C226.93 257.65 226.566 257.823 226.146 257.944C225.726 258.065 225.31 258.126 224.9 258.126ZM235.036 258.126C234.569 258.126 234.149 258.037 233.776 257.86C233.412 257.673 233.123 257.421 232.908 257.104C232.693 256.787 232.586 256.432 232.586 256.04C232.586 255.536 232.712 255.139 232.964 254.85C233.225 254.561 233.65 254.355 234.238 254.234C234.835 254.113 235.647 254.052 236.674 254.052H237.304V254.794H236.688C235.932 254.794 235.335 254.831 234.896 254.906C234.467 254.971 234.163 255.088 233.986 255.256C233.818 255.424 233.734 255.662 233.734 255.97C233.734 256.353 233.865 256.665 234.126 256.908C234.397 257.151 234.761 257.272 235.218 257.272C235.591 257.272 235.918 257.183 236.198 257.006C236.487 256.829 236.711 256.586 236.87 256.278C237.038 255.97 237.122 255.615 237.122 255.214V253.618C237.122 253.039 237.005 252.624 236.772 252.372C236.539 252.111 236.156 251.98 235.624 251.98C235.297 251.98 234.971 252.022 234.644 252.106C234.317 252.19 233.972 252.325 233.608 252.512C233.477 252.577 233.365 252.601 233.272 252.582C233.179 252.554 233.104 252.503 233.048 252.428C232.992 252.353 232.959 252.269 232.95 252.176C232.941 252.073 232.959 251.975 233.006 251.882C233.062 251.789 233.146 251.714 233.258 251.658C233.669 251.453 234.075 251.303 234.476 251.21C234.877 251.117 235.26 251.07 235.624 251.07C236.212 251.07 236.697 251.168 237.08 251.364C237.463 251.551 237.747 251.84 237.934 252.232C238.121 252.615 238.214 253.109 238.214 253.716V257.51C238.214 257.697 238.167 257.841 238.074 257.944C237.99 258.047 237.864 258.098 237.696 258.098C237.519 258.098 237.383 258.047 237.29 257.944C237.197 257.841 237.15 257.697 237.15 257.51V256.418H237.276C237.201 256.773 237.057 257.076 236.842 257.328C236.637 257.58 236.38 257.776 236.072 257.916C235.764 258.056 235.419 258.126 235.036 258.126ZM242.602 258.098C242.443 258.098 242.303 258.056 242.182 257.972C242.06 257.888 241.962 257.753 241.888 257.566L239.802 251.896C239.746 251.737 239.727 251.597 239.746 251.476C239.774 251.355 239.834 251.261 239.928 251.196C240.021 251.131 240.138 251.098 240.278 251.098C240.418 251.098 240.53 251.131 240.614 251.196C240.707 251.261 240.782 251.383 240.838 251.56L242.798 257.16H242.462L244.478 251.56C244.543 251.392 244.622 251.275 244.716 251.21C244.818 251.135 244.949 251.098 245.108 251.098C245.257 251.098 245.383 251.135 245.486 251.21C245.588 251.285 245.668 251.401 245.724 251.56L247.698 257.16H247.376L249.364 251.532C249.429 251.364 249.508 251.252 249.602 251.196C249.695 251.131 249.807 251.098 249.938 251.098C250.087 251.098 250.199 251.135 250.274 251.21C250.358 251.285 250.404 251.383 250.414 251.504C250.423 251.625 250.4 251.756 250.344 251.896L248.258 257.566C248.192 257.743 248.094 257.879 247.964 257.972C247.842 258.056 247.702 258.098 247.544 258.098C247.385 258.098 247.245 258.056 247.124 257.972C247.002 257.879 246.909 257.743 246.844 257.566L244.772 251.882H245.374L243.316 257.566C243.25 257.743 243.157 257.879 243.036 257.972C242.914 258.056 242.77 258.098 242.602 258.098ZM254.991 258.126C254.273 258.126 253.652 257.986 253.129 257.706C252.616 257.417 252.215 257.011 251.925 256.488C251.645 255.965 251.505 255.34 251.505 254.612C251.505 253.903 251.645 253.287 251.925 252.764C252.205 252.232 252.588 251.817 253.073 251.518C253.568 251.219 254.137 251.07 254.781 251.07C255.239 251.07 255.649 251.149 256.013 251.308C256.377 251.457 256.685 251.677 256.937 251.966C257.199 252.255 257.395 252.605 257.525 253.016C257.665 253.427 257.735 253.889 257.735 254.402C257.735 254.551 257.693 254.663 257.609 254.738C257.525 254.803 257.404 254.836 257.245 254.836H252.373V254.094H256.979L256.755 254.276C256.755 253.772 256.681 253.347 256.531 253.002C256.382 252.647 256.163 252.377 255.873 252.19C255.593 252.003 255.239 251.91 254.809 251.91C254.333 251.91 253.927 252.022 253.591 252.246C253.265 252.461 253.017 252.764 252.849 253.156C252.681 253.539 252.597 253.987 252.597 254.5V254.584C252.597 255.443 252.803 256.096 253.213 256.544C253.633 256.992 254.226 257.216 254.991 257.216C255.309 257.216 255.621 257.174 255.929 257.09C256.247 257.006 256.555 256.866 256.853 256.67C256.984 256.586 257.101 256.549 257.203 256.558C257.315 256.558 257.404 256.591 257.469 256.656C257.535 256.712 257.577 256.787 257.595 256.88C257.623 256.964 257.614 257.057 257.567 257.16C257.53 257.263 257.451 257.351 257.329 257.426C257.021 257.65 256.657 257.823 256.237 257.944C255.817 258.065 255.402 258.126 254.991 258.126ZM261.673 258.126C261.253 258.126 260.828 258.075 260.399 257.972C259.979 257.869 259.587 257.692 259.223 257.44C259.129 257.375 259.064 257.3 259.027 257.216C258.989 257.123 258.975 257.034 258.985 256.95C259.003 256.857 259.041 256.777 259.097 256.712C259.162 256.647 259.237 256.609 259.321 256.6C259.414 256.581 259.517 256.6 259.629 256.656C259.993 256.88 260.343 257.039 260.679 257.132C261.024 257.216 261.365 257.258 261.701 257.258C262.233 257.258 262.634 257.16 262.905 256.964C263.175 256.768 263.311 256.502 263.311 256.166C263.311 255.905 263.222 255.699 263.045 255.55C262.867 255.391 262.587 255.27 262.205 255.186L260.931 254.906C260.343 254.785 259.904 254.575 259.615 254.276C259.335 253.977 259.195 253.59 259.195 253.114C259.195 252.694 259.302 252.335 259.517 252.036C259.741 251.728 260.053 251.49 260.455 251.322C260.856 251.154 261.323 251.07 261.855 251.07C262.265 251.07 262.653 251.126 263.017 251.238C263.39 251.341 263.726 251.509 264.025 251.742C264.118 251.807 264.179 251.887 264.207 251.98C264.244 252.064 264.249 252.153 264.221 252.246C264.202 252.33 264.16 252.405 264.095 252.47C264.029 252.526 263.95 252.559 263.857 252.568C263.763 252.577 263.665 252.549 263.563 252.484C263.283 252.297 262.998 252.162 262.709 252.078C262.419 251.985 262.135 251.938 261.855 251.938C261.332 251.938 260.935 252.041 260.665 252.246C260.394 252.451 260.259 252.722 260.259 253.058C260.259 253.319 260.343 253.534 260.511 253.702C260.679 253.87 260.94 253.991 261.295 254.066L262.569 254.332C263.175 254.463 263.628 254.673 263.927 254.962C264.235 255.242 264.389 255.625 264.389 256.11C264.389 256.726 264.141 257.216 263.647 257.58C263.152 257.944 262.494 258.126 261.673 258.126ZM268.945 258.126C268.282 258.126 267.708 257.981 267.223 257.692C266.737 257.403 266.359 256.997 266.089 256.474C265.827 255.942 265.697 255.317 265.697 254.598C265.697 254.057 265.771 253.571 265.921 253.142C266.07 252.703 266.289 252.33 266.579 252.022C266.868 251.714 267.209 251.481 267.601 251.322C268.002 251.154 268.45 251.07 268.945 251.07C269.607 251.07 270.181 251.215 270.667 251.504C271.152 251.793 271.525 252.204 271.787 252.736C272.057 253.259 272.193 253.879 272.193 254.598C272.193 255.139 272.118 255.625 271.969 256.054C271.819 256.483 271.6 256.857 271.311 257.174C271.021 257.482 270.676 257.72 270.275 257.888C269.883 258.047 269.439 258.126 268.945 258.126ZM268.945 257.216C269.365 257.216 269.733 257.113 270.051 256.908C270.368 256.703 270.611 256.404 270.779 256.012C270.956 255.62 271.045 255.149 271.045 254.598C271.045 253.749 270.853 253.1 270.471 252.652C270.097 252.204 269.589 251.98 268.945 251.98C268.515 251.98 268.142 252.083 267.825 252.288C267.517 252.484 267.274 252.778 267.097 253.17C266.929 253.553 266.845 254.029 266.845 254.598C266.845 255.438 267.036 256.087 267.419 256.544C267.801 256.992 268.31 257.216 268.945 257.216ZM274.484 258.098C274.297 258.098 274.157 258.047 274.064 257.944C273.971 257.841 273.924 257.697 273.924 257.51V251.672C273.924 251.485 273.971 251.345 274.064 251.252C274.157 251.149 274.293 251.098 274.47 251.098C274.647 251.098 274.783 251.149 274.876 251.252C274.979 251.345 275.03 251.485 275.03 251.672V252.904L274.876 252.708C275.053 252.185 275.338 251.784 275.73 251.504C276.131 251.215 276.607 251.07 277.158 251.07C277.737 251.07 278.203 251.21 278.558 251.49C278.922 251.761 279.165 252.185 279.286 252.764H279.076C279.244 252.241 279.543 251.831 279.972 251.532C280.411 251.224 280.919 251.07 281.498 251.07C282.011 251.07 282.431 251.168 282.758 251.364C283.094 251.56 283.346 251.859 283.514 252.26C283.682 252.652 283.766 253.151 283.766 253.758V257.51C283.766 257.697 283.715 257.841 283.612 257.944C283.519 258.047 283.379 258.098 283.192 258.098C283.015 258.098 282.875 258.047 282.772 257.944C282.679 257.841 282.632 257.697 282.632 257.51V253.814C282.632 253.189 282.525 252.731 282.31 252.442C282.095 252.143 281.731 251.994 281.218 251.994C280.658 251.994 280.215 252.19 279.888 252.582C279.571 252.965 279.412 253.487 279.412 254.15V257.51C279.412 257.697 279.361 257.841 279.258 257.944C279.165 258.047 279.025 258.098 278.838 258.098C278.661 258.098 278.521 258.047 278.418 257.944C278.325 257.841 278.278 257.697 278.278 257.51V253.814C278.278 253.189 278.166 252.731 277.942 252.442C277.727 252.143 277.368 251.994 276.864 251.994C276.304 251.994 275.861 252.19 275.534 252.582C275.217 252.965 275.058 253.487 275.058 254.15V257.51C275.058 257.902 274.867 258.098 274.484 258.098ZM288.952 258.126C288.234 258.126 287.613 257.986 287.09 257.706C286.577 257.417 286.176 257.011 285.886 256.488C285.606 255.965 285.466 255.34 285.466 254.612C285.466 253.903 285.606 253.287 285.886 252.764C286.166 252.232 286.549 251.817 287.034 251.518C287.529 251.219 288.098 251.07 288.742 251.07C289.2 251.07 289.61 251.149 289.974 251.308C290.338 251.457 290.646 251.677 290.898 251.966C291.16 252.255 291.356 252.605 291.486 253.016C291.626 253.427 291.696 253.889 291.696 254.402C291.696 254.551 291.654 254.663 291.57 254.738C291.486 254.803 291.365 254.836 291.206 254.836H286.334V254.094H290.94L290.716 254.276C290.716 253.772 290.642 253.347 290.492 253.002C290.343 252.647 290.124 252.377 289.834 252.19C289.554 252.003 289.2 251.91 288.77 251.91C288.294 251.91 287.888 252.022 287.552 252.246C287.226 252.461 286.978 252.764 286.81 253.156C286.642 253.539 286.558 253.987 286.558 254.5V254.584C286.558 255.443 286.764 256.096 287.174 256.544C287.594 256.992 288.187 257.216 288.952 257.216C289.27 257.216 289.582 257.174 289.89 257.09C290.208 257.006 290.516 256.866 290.814 256.67C290.945 256.586 291.062 256.549 291.164 256.558C291.276 256.558 291.365 256.591 291.43 256.656C291.496 256.712 291.538 256.787 291.556 256.88C291.584 256.964 291.575 257.057 291.528 257.16C291.491 257.263 291.412 257.351 291.29 257.426C290.982 257.65 290.618 257.823 290.198 257.944C289.778 258.065 289.363 258.126 288.952 258.126Z" fill="#9C9B9B"/>
</g>
<g filter="url(#filter1_d_105_251)">
<rect x="827" y="210" width="129" height="54" rx="16" fill="#1EBBA3" shape-rendering="crispEdges"/>
<rect x="828" y="211" width="127" height="52" rx="15" stroke="#1EBBA3" stroke-width="2" shape-rendering="crispEdges"/>
<path d="M865.445 242.144C864.325 242.144 863.365 241.909 862.565 241.44C861.765 240.971 861.146 240.304 860.709 239.44C860.282 238.565 860.069 237.536 860.069 236.352C860.069 235.467 860.192 234.672 860.437 233.968C860.682 233.253 861.034 232.645 861.493 232.144C861.952 231.632 862.512 231.243 863.173 230.976C863.845 230.709 864.602 230.576 865.445 230.576C866.085 230.576 866.698 230.667 867.285 230.848C867.882 231.029 868.394 231.285 868.821 231.616C868.992 231.733 869.104 231.867 869.157 232.016C869.21 232.165 869.216 232.309 869.173 232.448C869.141 232.576 869.072 232.688 868.965 232.784C868.869 232.869 868.746 232.917 868.597 232.928C868.448 232.928 868.288 232.869 868.117 232.752C867.744 232.464 867.333 232.256 866.885 232.128C866.448 231.989 865.978 231.92 865.477 231.92C864.656 231.92 863.957 232.096 863.381 232.448C862.816 232.789 862.384 233.291 862.085 233.952C861.797 234.603 861.653 235.403 861.653 236.352C861.653 237.291 861.797 238.096 862.085 238.768C862.384 239.429 862.816 239.936 863.381 240.288C863.957 240.629 864.656 240.8 865.477 240.8C865.978 240.8 866.453 240.731 866.901 240.592C867.36 240.453 867.781 240.24 868.165 239.952C868.336 239.835 868.49 239.781 868.629 239.792C868.778 239.803 868.901 239.851 868.997 239.936C869.093 240.011 869.157 240.117 869.189 240.256C869.232 240.384 869.232 240.517 869.189 240.656C869.146 240.795 869.05 240.917 868.901 241.024C868.464 241.397 867.941 241.68 867.333 241.872C866.736 242.053 866.106 242.144 865.445 242.144ZM873.839 242.144C873.071 242.144 872.405 241.979 871.839 241.648C871.274 241.317 870.837 240.848 870.527 240.24C870.218 239.632 870.063 238.917 870.063 238.096C870.063 237.477 870.149 236.923 870.319 236.432C870.501 235.931 870.757 235.504 871.087 235.152C871.418 234.8 871.813 234.533 872.271 234.352C872.741 234.16 873.263 234.064 873.839 234.064C874.607 234.064 875.274 234.229 875.839 234.56C876.405 234.891 876.842 235.36 877.151 235.968C877.461 236.565 877.615 237.275 877.615 238.096C877.615 238.715 877.525 239.275 877.343 239.776C877.173 240.277 876.922 240.704 876.591 241.056C876.261 241.408 875.861 241.68 875.391 241.872C874.933 242.053 874.415 242.144 873.839 242.144ZM873.839 240.992C874.309 240.992 874.714 240.88 875.055 240.656C875.407 240.432 875.674 240.107 875.855 239.68C876.047 239.253 876.143 238.725 876.143 238.096C876.143 237.157 875.935 236.443 875.519 235.952C875.103 235.461 874.543 235.216 873.839 235.216C873.381 235.216 872.975 235.328 872.623 235.552C872.282 235.765 872.015 236.085 871.823 236.512C871.631 236.939 871.535 237.467 871.535 238.096C871.535 239.035 871.743 239.755 872.159 240.256C872.586 240.747 873.146 240.992 873.839 240.992ZM880.201 242.112C879.977 242.112 879.801 242.048 879.673 241.92C879.545 241.792 879.481 241.605 879.481 241.36V234.832C879.481 234.587 879.545 234.405 879.673 234.288C879.801 234.16 879.977 234.096 880.201 234.096C880.425 234.096 880.595 234.16 880.713 234.288C880.841 234.405 880.905 234.587 880.905 234.832V236.144L880.729 235.904C880.953 235.296 881.315 234.837 881.817 234.528C882.329 234.219 882.91 234.064 883.561 234.064C884.19 234.064 884.707 234.176 885.113 234.4C885.518 234.624 885.822 234.965 886.025 235.424C886.227 235.883 886.329 236.464 886.329 237.168V241.36C886.329 241.605 886.265 241.792 886.137 241.92C886.019 242.048 885.843 242.112 885.609 242.112C885.374 242.112 885.193 242.048 885.065 241.92C884.937 241.792 884.873 241.605 884.873 241.36V237.248C884.873 236.555 884.739 236.048 884.473 235.728C884.206 235.408 883.779 235.248 883.193 235.248C882.51 235.248 881.961 235.461 881.545 235.888C881.139 236.304 880.937 236.869 880.937 237.584V241.36C880.937 241.861 880.691 242.112 880.201 242.112ZM891.869 242.144C891.239 242.144 890.711 242.032 890.285 241.808C889.869 241.584 889.554 241.259 889.341 240.832C889.138 240.405 889.037 239.883 889.037 239.264V235.328H888.013C887.821 235.328 887.671 235.28 887.565 235.184C887.458 235.077 887.405 234.939 887.405 234.768C887.405 234.587 887.458 234.448 887.565 234.352C887.671 234.256 887.821 234.208 888.013 234.208H889.037V232.464C889.037 232.219 889.101 232.037 889.229 231.92C889.357 231.792 889.538 231.728 889.773 231.728C890.007 231.728 890.183 231.792 890.301 231.92C890.429 232.037 890.493 232.219 890.493 232.464V234.208H892.429C892.631 234.208 892.786 234.256 892.893 234.352C892.999 234.448 893.053 234.587 893.053 234.768C893.053 234.939 892.999 235.077 892.893 235.184C892.786 235.28 892.631 235.328 892.429 235.328H890.493V239.136C890.493 239.723 890.615 240.165 890.861 240.464C891.106 240.763 891.511 240.912 892.077 240.912C892.279 240.912 892.45 240.896 892.589 240.864C892.727 240.821 892.85 240.8 892.957 240.8C893.053 240.789 893.133 240.821 893.197 240.896C893.271 240.971 893.309 241.109 893.309 241.312C893.309 241.461 893.282 241.6 893.229 241.728C893.186 241.845 893.095 241.925 892.957 241.968C892.829 242.011 892.658 242.048 892.445 242.08C892.231 242.123 892.039 242.144 891.869 242.144ZM895.216 242.08C894.992 242.08 894.816 242.011 894.688 241.872C894.56 241.733 894.496 241.541 894.496 241.296V234.912C894.496 234.656 894.56 234.464 894.688 234.336C894.816 234.197 894.992 234.128 895.216 234.128C895.451 234.128 895.632 234.197 895.76 234.336C895.888 234.464 895.952 234.656 895.952 234.912V241.296C895.952 241.541 895.888 241.733 895.76 241.872C895.643 242.011 895.461 242.08 895.216 242.08ZM895.216 232.4C894.928 232.4 894.699 232.325 894.528 232.176C894.368 232.016 894.288 231.808 894.288 231.552C894.288 231.275 894.368 231.067 894.528 230.928C894.699 230.779 894.928 230.704 895.216 230.704C895.525 230.704 895.755 230.779 895.904 230.928C896.064 231.067 896.144 231.275 896.144 231.552C896.144 231.808 896.064 232.016 895.904 232.176C895.755 232.325 895.525 232.4 895.216 232.4ZM899.013 242.112C898.789 242.112 898.613 242.048 898.485 241.92C898.357 241.792 898.293 241.605 898.293 241.36V234.832C898.293 234.587 898.357 234.405 898.485 234.288C898.613 234.16 898.789 234.096 899.013 234.096C899.237 234.096 899.408 234.16 899.525 234.288C899.653 234.405 899.717 234.587 899.717 234.832V236.144L899.541 235.904C899.765 235.296 900.128 234.837 900.629 234.528C901.141 234.219 901.722 234.064 902.373 234.064C903.002 234.064 903.52 234.176 903.925 234.4C904.33 234.624 904.634 234.965 904.837 235.424C905.04 235.883 905.141 236.464 905.141 237.168V241.36C905.141 241.605 905.077 241.792 904.949 241.92C904.832 242.048 904.656 242.112 904.421 242.112C904.186 242.112 904.005 242.048 903.877 241.92C903.749 241.792 903.685 241.605 903.685 241.36V237.248C903.685 236.555 903.552 236.048 903.285 235.728C903.018 235.408 902.592 235.248 902.005 235.248C901.322 235.248 900.773 235.461 900.357 235.888C899.952 236.304 899.749 236.869 899.749 237.584V241.36C899.749 241.861 899.504 242.112 899.013 242.112ZM910.233 242.144C909.604 242.144 909.076 242.027 908.649 241.792C908.233 241.557 907.924 241.211 907.721 240.752C907.519 240.293 907.417 239.717 907.417 239.024V234.832C907.417 234.587 907.476 234.405 907.593 234.288C907.721 234.16 907.903 234.096 908.137 234.096C908.372 234.096 908.553 234.16 908.681 234.288C908.809 234.405 908.873 234.587 908.873 234.832V239.024C908.873 239.685 909.007 240.176 909.273 240.496C909.54 240.805 909.961 240.96 910.537 240.96C911.177 240.96 911.695 240.747 912.089 240.32C912.495 239.893 912.697 239.328 912.697 238.624V234.832C912.697 234.587 912.756 234.405 912.873 234.288C913.001 234.16 913.183 234.096 913.417 234.096C913.652 234.096 913.833 234.16 913.961 234.288C914.089 234.405 914.153 234.587 914.153 234.832V241.36C914.153 241.861 913.919 242.112 913.449 242.112C913.215 242.112 913.033 242.048 912.905 241.92C912.788 241.792 912.729 241.605 912.729 241.36V239.968L912.937 240.24C912.724 240.859 912.377 241.333 911.897 241.664C911.428 241.984 910.873 242.144 910.233 242.144ZM920.096 242.144C919.253 242.144 918.528 241.984 917.92 241.664C917.323 241.333 916.859 240.869 916.528 240.272C916.197 239.664 916.032 238.949 916.032 238.128C916.032 237.317 916.192 236.608 916.512 236C916.843 235.392 917.291 234.917 917.856 234.576C918.432 234.235 919.088 234.064 919.824 234.064C920.347 234.064 920.816 234.155 921.232 234.336C921.659 234.507 922.021 234.757 922.32 235.088C922.619 235.419 922.843 235.824 922.992 236.304C923.152 236.773 923.232 237.307 923.232 237.904C923.232 238.075 923.179 238.208 923.072 238.304C922.976 238.389 922.832 238.432 922.64 238.432H917.168V237.504H922.272L922 237.728C922 237.173 921.915 236.704 921.744 236.32C921.584 235.925 921.344 235.627 921.024 235.424C920.715 235.221 920.325 235.12 919.856 235.12C919.344 235.12 918.907 235.243 918.544 235.488C918.181 235.723 917.904 236.059 917.712 236.496C917.52 236.923 917.424 237.419 917.424 237.984V238.08C917.424 239.04 917.653 239.765 918.112 240.256C918.571 240.747 919.232 240.992 920.096 240.992C920.437 240.992 920.784 240.949 921.136 240.864C921.499 240.779 921.845 240.624 922.176 240.4C922.336 240.304 922.48 240.261 922.608 240.272C922.747 240.272 922.859 240.315 922.944 240.4C923.029 240.475 923.083 240.571 923.104 240.688C923.125 240.795 923.109 240.912 923.056 241.04C923.003 241.168 922.901 241.28 922.752 241.376C922.4 241.621 921.979 241.813 921.488 241.952C921.008 242.08 920.544 242.144 920.096 242.144Z" fill="#FAFCFC"/>
</g>
<defs>
<filter id="filter0_d_105_251" x="0" y="160" width="1002" height="148" filterUnits="userSpaceOnUse" color-interpolation-filters="sRGB">
<feFlood flood-opacity="0" result="BackgroundImageFix"/>
<feColorMatrix in="SourceAlpha" type="matrix" values="0 0 0 0 0 0 0 0 0 0 0 0 0 0 0 0 0 0 127 0" result="hardAlpha"/>
<feOffset dy="-4"/>
<feGaussianBlur stdDeviation="7"/>
<feComposite in2="hardAlpha" operator="out"/>
<feColorMatrix type="matrix" values="0 0 0 0 0 0 0 0 0 0 0 0 0 0 0 0 0 0 0.04 0"/>
<feBlend mode="normal" in2="BackgroundImageFix" result="effect1_dropShadow_105_251"/>
<feBlend mode="normal" in="SourceGraphic" in2="effect1_dropShadow_105_251" result="shape"/>
</filter>
<filter id="filter1_d_105_251" x="827" y="210" width="129" height="58" filterUnits="userSpaceOnUse" color-interpolation-filters="sRGB">
<feFlood flood-opacity="0" result="BackgroundImageFix"/>
<feColorMatrix in="SourceAlpha" type="matrix" values="0 0 0 0 0 0 0 0 0 0 0 0 0 0 0 0 0 0 127 0" result="hardAlpha"/>
<feOffset dy="4"/>
<feComposite in2="hardAlpha" operator="out"/>
<feColorMatrix type="matrix" values="0 0 0 0 0.106944 0 0 0 0 0.583333 0 0 0 0 0.51051 0 0 0 1 0"/>
<feBlend mode="normal" in2="BackgroundImageFix" result="effect1_dropShadow_105_251"/>
<feBlend mode="normal" in="SourceGraphic" in2="effect1_dropShadow_105_251" result="shape"/>
</filter>
<clipPath id="clip0_105_251">
<rect width="123.038" height="106.026" fill="white" transform="translate(340.16 15.9729) rotate(98.6647)"/>
</clipPath>
<clipPath id="clip1_105_251">
<rect width="154.868" height="167.644" fill="white" transform="matrix(-1 0 0 1 221.867 50.0447)"/>
</clipPath>
<clipPath id="clip2_105_251">
<rect width="9.75096" height="9.79363" fill="white" transform="matrix(-1 0 0 1 167.95 117.448)"/>
</clipPath>
<clipPath id="clip3_105_251">
<rect width="52.3608" height="58.7712" fill="white" transform="translate(228.898 151.938) rotate(-150)"/>
</clipPath>
</defs>
</svg>
