<svg width="178" height="135" viewBox="0 0 178 135" fill="none" xmlns="http://www.w3.org/2000/svg">
<path d="M28.6846 82.4265C32.6698 98.6112 42.7437 112.272 57.0242 120.907C71.3159 129.552 88.1094 132.11 104.272 128.124C120.456 124.139 134.117 114.065 142.763 99.7735C151.409 85.4819 153.977 68.6995 149.981 52.5259C145.995 36.3413 135.933 22.6918 121.63 14.0349C113.637 9.20826 104.881 6.27467 95.8917 5.32263C88.7846 4.56986 81.5226 5.05693 74.3823 6.81709C58.1977 10.8024 44.5371 20.8762 35.8913 35.1679C27.2454 49.4595 24.6771 66.2419 28.6735 82.4155L28.6846 82.4265ZM146.981 55.8359C146.781 56.4337 146.449 57.0758 145.984 57.74C145.486 58.4596 145.652 59.4669 146.372 59.9651C146.914 60.3304 147.612 60.3415 148.132 60.0205C151.896 89.5336 132.578 117.884 103.53 125.036C74.4709 132.198 44.1828 116.058 33.8211 88.1609C34.43 88.1941 35.0167 87.8731 35.3267 87.2974C35.7252 86.5225 35.4152 85.5483 34.6403 85.1498C33.9208 84.7845 33.323 84.3638 32.8912 83.9321C32.7695 83.8103 32.5923 83.6775 32.3266 83.5889C32.1384 82.9579 31.9613 82.3158 31.8063 81.6738L31.751 81.4413C31.9171 81.2752 32.0388 81.0649 32.1163 80.8324C34.5628 73.0501 58.3195 61.5814 86.2053 54.7068C113.914 47.8765 140.25 46.9798 146.173 52.6588C146.35 52.8359 146.582 52.9577 146.826 53.0241L146.903 53.3008C147.069 53.954 147.213 54.6071 147.335 55.2603C147.169 55.4263 147.058 55.6256 146.981 55.8359ZM85.4193 51.596C59.1276 58.0721 37.2861 68.1792 30.7879 76.6922C25.9945 46.4152 45.1791 17.3116 75.1572 9.9389C105.135 2.54401 135.645 19.415 145.464 48.4521C135.755 43.9244 111.733 45.12 85.4193 51.596Z" fill="white" fill-opacity="0.1"/>
<path d="M80.6452 78.5483C80.4792 78.5373 80.3242 78.5372 80.1581 78.5705C78.4422 78.9358 76.7374 79.2679 74.9662 79.6C74.147 79.7992 73.6267 80.6074 73.7817 81.4487C73.9477 82.3011 74.778 82.8878 75.6525 82.7218C77.3463 82.4007 79.0843 82.0576 80.8334 81.6812C81.6637 81.493 82.2282 80.6184 82.0622 79.7882C81.9183 79.0908 81.3426 78.6037 80.6674 78.5262L80.6452 78.5483Z" fill="white" fill-opacity="0.1"/>
<path d="M39.0647 82.335C37.216 82.1689 35.5333 81.9032 34.0831 81.5822C34.0278 81.5711 33.9613 81.549 33.8949 81.549C33.7178 81.5268 33.5296 81.5379 33.3525 81.5822C32.7658 81.7261 32.3008 82.191 32.168 82.7888C32.0794 83.2095 32.1458 83.6302 32.3894 83.9844C32.6218 84.3497 32.9872 84.5822 33.3968 84.6818C34.8359 84.9918 36.4521 85.2575 38.1902 85.4457C38.788 85.5121 39.4411 85.5453 39.9171 85.1579C40.2492 84.8922 40.4596 84.5047 40.4928 84.073C40.537 83.6523 40.4042 83.2316 40.1385 82.8995C39.8728 82.5674 39.4964 82.3682 39.0758 82.3239L39.0647 82.335Z" fill="white" fill-opacity="0.1"/>
<path d="M54.697 85.5228C56.4129 85.401 58.162 85.246 59.9886 85.0578C60.8742 84.9471 61.4831 84.1833 61.3945 83.2977C61.3502 82.877 61.1399 82.4895 60.8078 82.2238C60.5643 82.0246 60.2764 81.9139 59.9775 81.8807C59.8779 81.8696 59.745 81.8696 59.6454 81.8807C57.8742 82.0578 56.1472 82.2128 54.4978 82.3346L54.21 82.3788C53.4572 82.5781 52.948 83.2645 53.0144 84.0394C53.0697 84.9139 53.8225 85.5781 54.7192 85.5228L54.697 85.5228Z" fill="white" fill-opacity="0.1"/>
<path d="M50.954 84.1513C50.9429 83.7196 50.7658 83.3211 50.4558 83.0332C50.2123 82.7897 49.8691 82.6458 49.537 82.6015C49.4595 82.5904 49.3931 82.5904 49.3156 82.6015C47.4779 82.6458 45.7399 82.6568 44.1679 82.6347C44.024 82.6236 43.8912 82.6458 43.7362 82.6679C43.0388 82.834 42.5406 83.465 42.5295 84.1845C42.5074 85.0701 43.227 85.7676 44.0904 85.8118C45.8063 85.845 47.5997 85.8451 49.4041 85.7897C50.2897 85.7676 50.9761 85.0369 50.954 84.1513Z" fill="white" fill-opacity="0.1"/>
<path d="M91.4052 76.3346C91.217 76.235 91.0178 76.1685 90.8185 76.1464C90.6192 76.1242 90.431 76.1353 90.2539 76.2018C88.6266 76.6114 86.9661 77.032 85.3387 77.4195L85.1616 77.3973L85.0509 77.508C84.2981 77.7737 83.8553 78.5708 84.0435 79.3567C84.1432 79.7663 84.3978 80.1317 84.752 80.3531C85.1173 80.5856 85.538 80.6519 85.9476 80.5523C87.6524 80.1538 89.3683 79.7221 91.062 79.2903C91.9144 79.08 92.4237 78.1944 92.2133 77.342C92.1026 76.9213 91.8037 76.556 91.4052 76.3346Z" fill="white" fill-opacity="0.1"/>
<path d="M120.587 66.1275C120.41 66.1054 120.221 66.1165 120.033 66.1718L119.779 66.2493C118.24 66.9246 116.646 67.5888 114.996 68.242C114.598 68.3969 114.288 68.7069 114.122 69.0944C113.956 69.4818 113.945 69.9136 114.1 70.3121C114.254 70.7106 114.564 71.0206 114.952 71.1866C115.35 71.3637 115.771 71.3637 116.17 71.2088C117.863 70.5335 119.491 69.8582 121.063 69.1718C121.86 68.8176 122.236 67.8656 121.882 67.0685C121.649 66.5261 121.14 66.1718 120.598 66.1165L120.587 66.1275Z" fill="white" fill-opacity="0.1"/>
<path d="M129.985 61.5343C129.808 61.5122 129.619 61.5233 129.442 61.5676L129.431 61.5786C129.265 61.6118 129.155 61.6561 129.044 61.7225C127.605 62.5196 126.066 63.3056 124.461 64.0916C124.073 64.2797 123.797 64.6008 123.653 65.0104C123.509 65.42 123.542 65.8517 123.719 66.2281C124.095 67.003 125.048 67.3351 125.856 66.9698C127.538 66.1506 129.132 65.3314 130.583 64.5233C130.959 64.324 131.236 63.9809 131.346 63.5823C131.468 63.1727 131.413 62.741 131.214 62.3646C130.948 61.8997 130.494 61.6008 129.985 61.5565L129.985 61.5343Z" fill="white" fill-opacity="0.1"/>
<path d="M100.925 73.3232C100.748 73.301 100.559 73.3121 100.371 73.3675L100.283 73.3896C98.6554 73.8878 96.9838 74.3859 95.2901 74.862C94.4487 75.1055 93.9506 75.98 94.183 76.8324C94.3048 77.242 94.5705 77.5963 94.9469 77.7955C95.3122 78.0059 95.755 78.0502 96.1535 77.9395C97.8694 77.4634 99.5521 76.9542 101.202 76.4561C101.611 76.3343 101.943 76.0465 102.143 75.6701C102.342 75.2937 102.375 74.8619 102.253 74.4523C102.065 73.8213 101.512 73.4007 100.892 73.3343L100.925 73.3232Z" fill="white" fill-opacity="0.1"/>
<path d="M110.855 70.013C110.678 69.9909 110.49 70.002 110.302 70.0573L110.136 70.1127C108.542 70.6883 106.903 71.264 105.221 71.8175C104.39 72.0942 103.925 73.002 104.213 73.8433C104.49 74.6957 105.387 75.1275 106.239 74.8507C107.944 74.2751 109.604 73.6994 111.232 73.1127C112.062 72.8138 112.494 71.895 112.195 71.0647C111.984 70.478 111.453 70.0795 110.866 70.0241L110.855 70.013Z" fill="white" fill-opacity="0.1"/>
<path d="M138.708 55.755C138.531 55.7329 138.343 55.744 138.155 55.7993C137.911 55.8657 137.701 55.9654 137.513 56.1314C136.372 57.0945 135 58.0908 133.45 59.1093C133.085 59.3418 132.852 59.7071 132.752 60.1167C132.664 60.5373 132.752 60.958 132.974 61.3123C133.206 61.6776 133.572 61.9101 133.981 62.0097C134.402 62.0982 134.834 62.0208 135.177 61.7883C136.826 60.7145 138.31 59.6296 139.561 58.5779C140.236 58.0133 140.313 57.0059 139.749 56.3307C139.472 56.0096 139.096 55.8104 138.697 55.7661L138.708 55.755Z" fill="white" fill-opacity="0.1"/>
<path d="M83.1686 62.5632C82.9361 62.3972 82.6815 62.2975 82.4047 62.2643C82.2276 62.2422 82.0394 62.2532 81.8512 62.3086C81.4748 62.3972 81.1649 62.6186 80.9434 62.9285L68.1242 80.7737C67.0061 80.9397 65.8991 81.1169 64.6371 81.294C63.84 81.4932 63.3308 82.246 63.4304 83.0541C63.4858 83.4859 63.7072 83.8623 64.0503 84.1169C64.3935 84.3715 64.8142 84.4822 65.2238 84.4268C65.3234 84.4158 65.423 84.4047 65.5227 84.3936L51.6849 103.656L51.7071 102.195C51.7182 101.763 51.5521 101.353 51.2532 101.054C50.9543 100.755 50.5669 100.567 50.1462 100.567C50.0133 100.567 49.8694 100.578 49.7255 100.611C49.017 100.789 48.5189 101.42 48.5078 102.139L48.4303 108.283C48.4303 108.77 48.6517 109.235 49.0281 109.545C49.4045 109.855 49.9026 109.955 50.3897 109.844L57.5189 108.183C57.9617 108.095 58.3271 107.862 58.5374 107.519C58.7699 107.154 58.8363 106.711 58.7256 106.268C58.5263 105.405 57.6739 104.885 56.8104 105.084L54.1314 105.704L69.9286 83.7294L70.4489 83.6519C70.8696 83.5855 71.246 83.3641 71.4895 83.0098C71.7441 82.6667 71.8438 82.235 71.7773 81.8143C71.7552 81.6593 71.6999 81.5154 71.6334 81.3604L83.545 64.7773C83.7996 64.4341 83.8992 64.0023 83.8217 63.5927C83.7553 63.1721 83.5228 62.8068 83.1796 62.5522L83.1686 62.5632Z" fill="white" fill-opacity="0.1"/>
</svg>
