<svg width="175" height="97" viewBox="0 0 175 97" fill="none" xmlns="http://www.w3.org/2000/svg">
<path d="M0 0L33.58 46.0712L55.8075 21.7618L0 0Z" fill="#466EB6"/>
<path d="M58.8161 9.02764L55.8075 21.7618L0 0L58.8161 9.02764Z" fill="#9BC1F9"/>
<path d="M55.8075 26.6228L0 0L51.87 46.0712L55.8075 26.6228Z" fill="#9BC1F9"/>
<path d="M89.7027 81.8317C89.2893 81.7933 79.4795 80.7836 67.0489 73.0469C54.5672 65.2803 49.8967 51.7196 49.8967 49.5469C49.8967 48.7161 50.57 48.043 51.401 48.043C52.232 48.043 52.8925 48.6991 52.9053 49.517C53.0417 50.9656 57.0261 63.2651 68.6384 70.4949C80.4213 77.8312 89.8902 78.8324 89.9839 78.8409C90.8106 78.9218 91.4157 79.6546 91.3348 80.4811C91.2538 81.3076 90.5208 81.9126 89.6941 81.8359L89.7027 81.8317Z" fill="#F7CC7F"/>
<path d="M150.7 95.4566C133.305 91.9674 116.664 85.5471 101.238 76.3704C88.5348 68.8125 78.2904 57.2883 65.3315 50.8893C64.5857 50.5229 64.2789 49.6197 64.6496 48.8742C65.0161 48.1286 65.9195 47.8219 66.6653 48.1925C80.0802 54.8131 90.2437 66.3288 102.781 73.7843C117.913 82.7864 134.234 89.0875 151.297 92.5085C157.566 93.7653 164.998 94.2254 173.384 93.8761C174.219 93.842 174.914 94.4853 174.948 95.3161C174.982 96.1468 174.339 96.8455 173.508 96.8839C166.063 97.1949 158.043 96.9307 150.705 95.4609L150.7 95.4566Z" fill="#F7CC7F"/>
</svg>
