<svg width="18" height="18" viewBox="0 0 18 18" fill="none" xmlns="http://www.w3.org/2000/svg">
<path d="M16.2442 11.9523C15.6933 11.6406 15.0383 11.6473 14.4933 11.9748L12.8516 12.9598C12.5941 12.2315 11.8983 11.7082 11.0833 11.7082H6.5C5.96583 11.7082 5.47999 11.8998 5.08999 12.2073C4.82249 11.904 4.43583 11.7082 4 11.7082H2.33333C1.52917 11.7082 0.875 12.3623 0.875 13.1665V16.4998C0.875 17.304 1.52917 17.9582 2.33333 17.9582H4C4.435 17.9582 4.82249 17.7623 5.08999 17.459C5.47999 17.7665 5.96583 17.9582 6.5 17.9582H11.1641C12.0599 17.9582 12.9383 17.6498 13.6375 17.0907L16.4733 14.8215C16.8875 14.4898 17.125 13.9949 17.125 13.4649C17.1258 12.8307 16.7958 12.2656 16.2442 11.9523ZM4.20915 16.4998C4.20915 16.6148 4.11581 16.7082 4.00081 16.7082H2.33415C2.21915 16.7082 2.12581 16.6148 2.12581 16.4998V13.1665C2.12581 13.0515 2.21915 12.9582 2.33415 12.9582H4.00081C4.11581 12.9582 4.20915 13.0515 4.20915 13.1665V13.9998V15.6665V16.4998ZM15.6925 13.8456L12.8566 16.1148C12.3791 16.4973 11.7775 16.7082 11.165 16.7082H6.50081C5.92665 16.7082 5.45915 16.2407 5.45915 15.6665V13.9998C5.45915 13.4257 5.92665 12.9582 6.50081 12.9582H11.0841C11.4283 12.9582 11.7091 13.2382 11.7091 13.5832C11.7091 13.9282 11.4283 14.2082 11.0841 14.2082H8.16748C7.82248 14.2082 7.54248 14.4882 7.54248 14.8332C7.54248 15.1782 7.82248 15.4582 8.16748 15.4582H11.0841C11.7866 15.4582 12.4 15.0698 12.7216 14.4965L15.1367 13.0474C15.3583 12.9141 15.555 12.999 15.6283 13.0415C15.7025 13.0832 15.8758 13.209 15.8758 13.4657C15.8758 13.614 15.8092 13.7531 15.6925 13.8456ZM9.00498 4.20817C10.1542 4.20817 11.0883 3.27317 11.0883 2.12484C11.0883 0.976504 10.1542 0.0415039 9.00498 0.0415039C7.85582 0.0415039 6.92165 0.976504 6.92165 2.12484C6.92165 3.27317 7.85582 4.20817 9.00498 4.20817ZM9.00498 1.2915C9.46498 1.2915 9.83832 1.66567 9.83832 2.12484C9.83832 2.584 9.46498 2.95817 9.00498 2.95817C8.54498 2.95817 8.17165 2.584 8.17165 2.12484C8.17165 1.66567 8.54498 1.2915 9.00498 1.2915ZM7.33496 9.62484H10.6667C11.8408 9.62484 12.5425 8.92653 12.5425 7.75737C12.5425 6.40487 11.705 5.0415 9.83415 5.0415H8.16748C6.29665 5.0415 5.45915 6.4057 5.45915 7.75737C5.45915 8.92653 6.16079 9.62484 7.33496 9.62484ZM8.16748 6.2915H9.83415C11.1025 6.2915 11.2925 7.20987 11.2925 7.75737C11.2925 8.23653 11.1525 8.37484 10.6667 8.37484H7.33496C6.84913 8.37484 6.70915 8.23653 6.70915 7.75737C6.70915 7.20987 6.89915 6.2915 8.16748 6.2915Z" fill="#25314C"/>
</svg>
