<svg width="25" height="24" viewBox="0 0 25 24" fill="none" xmlns="http://www.w3.org/2000/svg">
<path d="M3.24609 6C3.24609 5.586 3.58209 5.25 3.99609 5.25H21.9961C22.4101 5.25 22.7461 5.586 22.7461 6C22.7461 6.414 22.4101 6.75 21.9961 6.75H3.99609C3.58209 6.75 3.24609 6.414 3.24609 6ZM21.9961 11.25H3.99609C3.58209 11.25 3.24609 11.586 3.24609 12C3.24609 12.414 3.58209 12.75 3.99609 12.75H21.9961C22.4101 12.75 22.7461 12.414 22.7461 12C22.7461 11.586 22.4101 11.25 21.9961 11.25ZM21.9961 17.25H3.99609C3.58209 17.25 3.24609 17.586 3.24609 18C3.24609 18.414 3.58209 18.75 3.99609 18.75H21.9961C22.4101 18.75 22.7461 18.414 22.7461 18C22.7461 17.586 22.4101 17.25 21.9961 17.25Z" fill="#25314C"/>
</svg>
