<svg width="22" height="22" viewBox="0 0 22 22" fill="none" xmlns="http://www.w3.org/2000/svg">
<path d="M16 17.4297H12L7.54999 20.3897C6.88999 20.8297 6 20.3598 6 19.5598V17.4297C3 17.4297 1 15.4297 1 12.4297V6.42969C1 3.42969 3 1.42969 6 1.42969H16C19 1.42969 21 3.42969 21 6.42969V12.4297C21 15.4297 19 17.4297 16 17.4297Z" stroke="black" stroke-width="1.5" stroke-miterlimit="10" stroke-linecap="round" stroke-linejoin="round"/>
<path d="M10.9998 10.3594V10.1494C10.9998 9.46939 11.4198 9.1094 11.8398 8.8194C12.2498 8.5394 12.6598 8.17941 12.6598 7.51941C12.6598 6.59941 11.9198 5.85938 10.9998 5.85938C10.0798 5.85938 9.33984 6.59941 9.33984 7.51941" stroke="black" stroke-width="1.5" stroke-linecap="round" stroke-linejoin="round"/>
<path d="M10.9955 12.75H11.0045" stroke="black" stroke-width="1.5" stroke-linecap="round" stroke-linejoin="round"/>
</svg>
