<svg width="25" height="25" viewBox="0 0 25 25" fill="none" xmlns="http://www.w3.org/2000/svg">
<path d="M18.1819 19.8065H13.6365L8.57965 23.1701C7.82965 23.6701 6.81829 23.1361 6.81829 22.227V19.8065C3.4092 19.8065 1.13647 17.5337 1.13647 14.1246V7.30645C1.13647 3.89736 3.4092 1.62463 6.81829 1.62463H18.1819C21.591 1.62463 23.8637 3.89736 23.8637 7.30645V14.1246C23.8637 17.5337 21.591 19.8065 18.1819 19.8065Z" stroke="#C9C9C9" stroke-width="1.5" stroke-miterlimit="10" stroke-linecap="round" stroke-linejoin="round"/>
<path d="M12.4998 11.772V11.5334C12.4998 10.7607 12.9771 10.3516 13.4544 10.022C13.9203 9.70386 14.3862 9.29478 14.3862 8.54478C14.3862 7.49933 13.5453 6.65839 12.4998 6.65839C11.4544 6.65839 10.6135 7.49933 10.6135 8.54478" stroke="#C9C9C9" stroke-width="1.5" stroke-linecap="round" stroke-linejoin="round"/>
<path d="M12.4949 14.4886H12.5051" stroke="#C9C9C9" stroke-width="1.5" stroke-linecap="round" stroke-linejoin="round"/>
</svg>
