<svg width="88" height="22" viewBox="0 0 88 22" fill="none" xmlns="http://www.w3.org/2000/svg">
<rect y="1" width="20" height="20" rx="10" fill="#EBAF53"/>
<path d="M15 13.3699V7.33485C15 6.73485 14.51 6.28985 13.915 6.33985H13.885C12.835 6.42985 11.24 6.96485 10.35 7.52485L10.265 7.57985C10.12 7.66985 9.88 7.66985 9.735 7.57985L9.61 7.50485C8.72 6.94985 7.13 6.41985 6.08 6.33485C5.485 6.28485 5 6.73485 5 7.32985V13.3699C5 13.8499 5.39 14.2998 5.87 14.3598L6.015 14.3799C7.1 14.5249 8.775 15.0749 9.735 15.5999L9.755 15.6098C9.89 15.6848 10.105 15.6848 10.235 15.6098C11.195 15.0798 12.875 14.5249 13.965 14.3799L14.13 14.3598C14.61 14.2998 15 13.8499 15 13.3699Z" stroke="white" stroke-linecap="round" stroke-linejoin="round"/>
<path d="M10 7.74512V15.2451" stroke="white" stroke-linecap="round" stroke-linejoin="round"/>
<path d="M7.875 9.24512H6.75" stroke="white" stroke-linecap="round" stroke-linejoin="round"/>
<path d="M8.25 10.7451H6.75" stroke="white" stroke-linecap="round" stroke-linejoin="round"/>
<path d="M30.096 16.112C29.8613 16.112 29.68 16.048 29.552 15.92C29.424 15.7813 29.36 15.5893 29.36 15.344V5.472C29.36 5.22667 29.424 5.04 29.552 4.912C29.6907 4.784 29.8773 4.72 30.112 4.72H33.92C35.136 4.72 36.0693 5.008 36.72 5.584C37.3813 6.14933 37.712 6.95467 37.712 8C37.712 8.68267 37.5627 9.26933 37.264 9.76C36.9653 10.24 36.5333 10.608 35.968 10.864C35.4027 11.12 34.72 11.248 33.92 11.248L34.08 11.024H34.432C34.8587 11.024 35.2267 11.1307 35.536 11.344C35.856 11.5573 36.1387 11.8987 36.384 12.368L37.856 15.072C37.952 15.2427 37.9947 15.408 37.984 15.568C37.9733 15.728 37.9147 15.8613 37.808 15.968C37.7013 16.064 37.5467 16.112 37.344 16.112C37.1307 16.112 36.96 16.0693 36.832 15.984C36.704 15.888 36.592 15.7493 36.496 15.568L34.768 12.4C34.5333 11.952 34.2667 11.6587 33.968 11.52C33.6693 11.3707 33.2693 11.296 32.768 11.296H30.848V15.344C30.848 15.5893 30.784 15.7813 30.656 15.92C30.5387 16.048 30.352 16.112 30.096 16.112ZM30.848 10.144H33.68C34.5333 10.144 35.1733 9.968 35.6 9.616C36.0267 9.25333 36.24 8.72533 36.24 8.032C36.24 7.33867 36.0267 6.816 35.6 6.464C35.1733 6.112 34.5333 5.936 33.68 5.936H30.848V10.144ZM43.3461 16.144C42.5035 16.144 41.7781 15.984 41.1701 15.664C40.5728 15.3333 40.1088 14.8693 39.7781 14.272C39.4475 13.664 39.2821 12.9493 39.2821 12.128C39.2821 11.3173 39.4421 10.608 39.7621 10C40.0928 9.392 40.5408 8.91733 41.1061 8.576C41.6821 8.23467 42.3381 8.064 43.0741 8.064C43.5968 8.064 44.0661 8.15467 44.4821 8.336C44.9088 8.50667 45.2715 8.75733 45.5701 9.088C45.8688 9.41867 46.0928 9.824 46.2421 10.304C46.4021 10.7733 46.4821 11.3067 46.4821 11.904C46.4821 12.0747 46.4288 12.208 46.3221 12.304C46.2261 12.3893 46.0821 12.432 45.8901 12.432H40.4181V11.504H45.5221L45.2501 11.728C45.2501 11.1733 45.1648 10.704 44.9941 10.32C44.8341 9.92533 44.5941 9.62667 44.2741 9.424C43.9648 9.22133 43.5755 9.12 43.1061 9.12C42.5941 9.12 42.1568 9.24267 41.7941 9.488C41.4315 9.72267 41.1541 10.0587 40.9621 10.496C40.7701 10.9227 40.6741 11.4187 40.6741 11.984V12.08C40.6741 13.04 40.9035 13.7653 41.3621 14.256C41.8208 14.7467 42.4821 14.992 43.3461 14.992C43.6875 14.992 44.0341 14.9493 44.3861 14.864C44.7488 14.7787 45.0955 14.624 45.4261 14.4C45.5861 14.304 45.7301 14.2613 45.8581 14.272C45.9968 14.272 46.1088 14.3147 46.1941 14.4C46.2795 14.4747 46.3328 14.5707 46.3541 14.688C46.3755 14.7947 46.3595 14.912 46.3061 15.04C46.2528 15.168 46.1515 15.28 46.0021 15.376C45.6501 15.6213 45.2288 15.8133 44.7381 15.952C44.2581 16.08 43.7941 16.144 43.3461 16.144ZM50.773 16.144C50.2397 16.144 49.7543 16.0373 49.317 15.824C48.8903 15.6107 48.5543 15.3227 48.309 14.96C48.0743 14.5973 47.957 14.192 47.957 13.744C47.957 13.168 48.101 12.7147 48.389 12.384C48.677 12.0533 49.1623 11.8187 49.845 11.68C50.5277 11.5307 51.445 11.456 52.597 11.456H53.349V12.384H52.629C51.8077 12.384 51.157 12.4213 50.677 12.496C50.2077 12.5707 49.877 12.704 49.685 12.896C49.493 13.0773 49.397 13.3333 49.397 13.664C49.397 14.08 49.541 14.4213 49.829 14.688C50.1277 14.9547 50.533 15.088 51.045 15.088C51.4503 15.088 51.8077 14.992 52.117 14.8C52.4263 14.5973 52.6717 14.3307 52.853 14C53.0343 13.6587 53.125 13.2693 53.125 12.832V10.992C53.125 10.3627 52.997 9.90933 52.741 9.632C52.485 9.344 52.053 9.2 51.445 9.2C51.093 9.2 50.7303 9.248 50.357 9.344C49.9837 9.44 49.5943 9.58933 49.189 9.792C49.029 9.86667 48.8903 9.89333 48.773 9.872C48.6557 9.84 48.5597 9.776 48.485 9.68C48.421 9.57333 48.3837 9.46133 48.373 9.344C48.373 9.216 48.3997 9.09333 48.453 8.976C48.517 8.85867 48.6237 8.77333 48.773 8.72C49.2423 8.48533 49.7063 8.32 50.165 8.224C50.6343 8.11733 51.0717 8.064 51.477 8.064C52.1703 8.064 52.741 8.176 53.189 8.4C53.637 8.61333 53.973 8.94933 54.197 9.408C54.421 9.856 54.533 10.432 54.533 11.136V15.36C54.533 15.6053 54.4743 15.792 54.357 15.92C54.2397 16.048 54.069 16.112 53.845 16.112C53.6317 16.112 53.461 16.048 53.333 15.92C53.2157 15.792 53.157 15.6053 53.157 15.36V14.224H53.301C53.2157 14.6187 53.0557 14.96 52.821 15.248C52.5863 15.536 52.293 15.76 51.941 15.92C51.5997 16.0693 51.2103 16.144 50.773 16.144ZM59.8003 16.144C59.1176 16.144 58.5149 15.984 57.9923 15.664C57.4803 15.3333 57.0803 14.864 56.7923 14.256C56.5043 13.6373 56.3603 12.9173 56.3603 12.096C56.3603 11.264 56.4989 10.5493 56.7763 9.952C57.0643 9.344 57.4643 8.88 57.9763 8.56C58.4989 8.22933 59.1069 8.064 59.8003 8.064C60.4936 8.064 61.0909 8.24 61.5923 8.592C62.0936 8.93333 62.4296 9.392 62.6003 9.968H62.4243V5.344C62.4243 5.09867 62.4829 4.91733 62.6003 4.8C62.7283 4.672 62.9096 4.608 63.1443 4.608C63.3789 4.608 63.5603 4.672 63.6883 4.8C63.8163 4.91733 63.8802 5.09867 63.8802 5.344V15.36C63.8802 15.6053 63.8163 15.792 63.6883 15.92C63.5603 16.048 63.3789 16.112 63.1443 16.112C62.9203 16.112 62.7443 16.048 62.6163 15.92C62.4883 15.792 62.4243 15.6053 62.4243 15.36V13.904L62.6003 14.192C62.4403 14.7893 62.1043 15.264 61.5923 15.616C61.0909 15.968 60.4936 16.144 59.8003 16.144ZM60.1363 14.992C60.6056 14.992 61.0109 14.88 61.3523 14.656C61.7043 14.432 61.9709 14.1067 62.1523 13.68C62.3443 13.2533 62.4403 12.7253 62.4403 12.096C62.4403 11.1573 62.2323 10.4427 61.8163 9.952C61.4003 9.46133 60.8403 9.216 60.1363 9.216C59.6776 9.216 59.2723 9.328 58.9203 9.552C58.5789 9.76533 58.3123 10.0853 58.1203 10.512C57.9283 10.9387 57.8323 11.4667 57.8323 12.096C57.8323 13.0347 58.0403 13.7547 58.4563 14.256C58.8829 14.7467 59.4429 14.992 60.1363 14.992ZM66.9349 16.08C66.7109 16.08 66.5349 16.0107 66.4069 15.872C66.2789 15.7333 66.2149 15.5413 66.2149 15.296V8.912C66.2149 8.656 66.2789 8.464 66.4069 8.336C66.5349 8.19733 66.7109 8.128 66.9349 8.128C67.1695 8.128 67.3509 8.19733 67.4789 8.336C67.6069 8.464 67.6709 8.656 67.6709 8.912V15.296C67.6709 15.5413 67.6069 15.7333 67.4789 15.872C67.3615 16.0107 67.1802 16.08 66.9349 16.08ZM66.9349 6.4C66.6469 6.4 66.4175 6.32533 66.2469 6.176C66.0869 6.016 66.0069 5.808 66.0069 5.552C66.0069 5.27467 66.0869 5.06667 66.2469 4.928C66.4175 4.77867 66.6469 4.704 66.9349 4.704C67.2442 4.704 67.4735 4.77867 67.6229 4.928C67.7829 5.06667 67.8629 5.27467 67.8629 5.552C67.8629 5.808 67.7829 6.016 67.6229 6.176C67.4735 6.32533 67.2442 6.4 66.9349 6.4ZM70.7318 16.112C70.5078 16.112 70.3318 16.048 70.2038 15.92C70.0758 15.792 70.0118 15.6053 70.0118 15.36V8.832C70.0118 8.58667 70.0758 8.40533 70.2038 8.288C70.3318 8.16 70.5078 8.096 70.7318 8.096C70.9558 8.096 71.1264 8.16 71.2438 8.288C71.3718 8.40533 71.4358 8.58667 71.4358 8.832V10.144L71.2598 9.904C71.4838 9.296 71.8464 8.83733 72.3478 8.528C72.8598 8.21867 73.4411 8.064 74.0918 8.064C74.7211 8.064 75.2384 8.176 75.6438 8.4C76.0491 8.624 76.3531 8.96533 76.5558 9.424C76.7584 9.88267 76.8598 10.464 76.8598 11.168V15.36C76.8598 15.6053 76.7958 15.792 76.6678 15.92C76.5504 16.048 76.3744 16.112 76.1398 16.112C75.9051 16.112 75.7238 16.048 75.5958 15.92C75.4678 15.792 75.4038 15.6053 75.4038 15.36V11.248C75.4038 10.5547 75.2704 10.048 75.0038 9.728C74.7371 9.408 74.3104 9.248 73.7238 9.248C73.0411 9.248 72.4918 9.46133 72.0758 9.888C71.6704 10.304 71.4678 10.8693 71.4678 11.584V15.36C71.4678 15.8613 71.2224 16.112 70.7318 16.112ZM82.672 19.024C82.096 19.024 81.536 18.96 80.992 18.832C80.4587 18.704 79.9733 18.5067 79.536 18.24C79.3973 18.1547 79.3013 18.0533 79.248 17.936C79.2053 17.8293 79.1947 17.7173 79.216 17.6C79.248 17.4827 79.3013 17.376 79.376 17.28C79.4613 17.1947 79.5573 17.136 79.664 17.104C79.7813 17.0827 79.8987 17.1093 80.016 17.184C80.4853 17.4507 80.9333 17.632 81.36 17.728C81.7867 17.824 82.192 17.872 82.576 17.872C83.3333 17.872 83.8987 17.6747 84.272 17.28C84.656 16.896 84.848 16.3307 84.848 15.584V13.856H84.992C84.8427 14.4533 84.5067 14.928 83.984 15.28C83.472 15.632 82.8747 15.808 82.192 15.808C81.488 15.808 80.8747 15.648 80.352 15.328C79.8293 14.9973 79.424 14.544 79.136 13.968C78.848 13.3813 78.704 12.704 78.704 11.936C78.704 11.3493 78.784 10.8213 78.944 10.352C79.1147 9.872 79.3493 9.46667 79.648 9.136C79.9573 8.79467 80.3253 8.53333 80.752 8.352C81.1787 8.16 81.6587 8.064 82.192 8.064C82.8853 8.064 83.488 8.24 84 8.592C84.512 8.944 84.8427 9.41867 84.992 10.016L84.816 10.24V8.832C84.816 8.58667 84.88 8.40533 85.008 8.288C85.136 8.16 85.3173 8.096 85.552 8.096C85.776 8.096 85.952 8.16 86.08 8.288C86.208 8.40533 86.272 8.58667 86.272 8.832V15.392C86.272 16.5973 85.9627 17.504 85.344 18.112C84.736 18.72 83.8453 19.024 82.672 19.024ZM82.512 14.656C82.992 14.656 83.4027 14.5493 83.744 14.336C84.096 14.112 84.3627 13.7973 84.544 13.392C84.736 12.976 84.832 12.4907 84.832 11.936C84.832 11.0933 84.624 10.432 84.208 9.952C83.792 9.46133 83.2267 9.216 82.512 9.216C82.032 9.216 81.616 9.328 81.264 9.552C80.9227 9.76533 80.656 10.0747 80.464 10.48C80.272 10.8853 80.176 11.3707 80.176 11.936C80.176 12.768 80.384 13.4293 80.8 13.92C81.2267 14.4107 81.7973 14.656 82.512 14.656Z" fill="#EBAF53"/>
</svg>
