<svg width="19" height="19" viewBox="0 0 19 19" fill="none" xmlns="http://www.w3.org/2000/svg">
<path d="M7.98002 1.14001C4.41604 1.14001 1.52002 4.03603 1.52002 7.60002C1.52002 11.164 4.41604 14.06 7.98002 14.06C9.39018 14.06 10.6935 13.6058 11.7563 12.8369L16.7556 17.8244L17.8244 16.7556L12.8844 11.8038C13.8552 10.6727 14.44 9.20463 14.44 7.60002C14.44 4.03603 11.544 1.14001 7.98002 1.14001ZM7.98002 1.90001C11.1328 1.90001 13.68 4.4472 13.68 7.60002C13.68 10.7528 11.1328 13.3 7.98002 13.3C4.82721 13.3 2.28002 10.7528 2.28002 7.60002C2.28002 4.4472 4.82721 1.90001 7.98002 1.90001Z" fill="black"/>
</svg>
