<svg width="24" height="24" viewBox="0 0 24 24" fill="none" xmlns="http://www.w3.org/2000/svg">
<path d="M1.34437 0C0.6075 0 0 0.6075 0 1.34437V19.2C0 19.4644 0.215625 19.68 0.48 19.68H12.96C13.1325 19.6819 13.2938 19.5919 13.3819 19.4419C13.4681 19.2919 13.4681 19.1081 13.3819 18.9581C13.2938 18.8081 13.1325 18.7181 12.96 18.72H0.96V4.32H20.16V12.96C20.1581 13.1325 20.2481 13.2938 20.3981 13.3819C20.5481 13.4681 20.7319 13.4681 20.8819 13.3819C21.0319 13.2938 21.1219 13.1325 21.12 12.96V1.34437C21.12 0.6075 20.5125 0 19.7756 0H1.34437ZM1.34437 0.96H19.7756C19.9987 0.96 20.16 1.12125 20.16 1.34437V3.36H0.96V1.34437C0.96 1.12125 1.12125 0.96 1.34437 0.96ZM3.36 7.2V8.16H5.28V7.2H3.36ZM6.72 7.2V8.16H17.76V7.2H6.72ZM3.36 9.6V10.56H5.28V9.6H3.36ZM6.72 9.6V10.56H17.76V9.6H6.72ZM3.36 12V12.96H5.28V12H3.36ZM6.72 12V12.96H17.76V12H6.72ZM3.36 14.4V15.36H5.28V14.4H3.36ZM6.72 14.4V15.36H14.9156C15.2419 14.9962 15.6094 14.6719 16.0181 14.4H6.72ZM18.72 14.4V15.84C18.7181 16.0125 18.8081 16.1737 18.9581 16.26C19.1081 16.3481 19.2919 16.3481 19.4419 16.26C19.5919 16.1737 19.6819 16.0125 19.68 15.84V15.4556C21.5794 15.6956 23.04 17.2275 23.04 19.2C23.04 21.3431 21.3431 23.04 19.2 23.04C17.0569 23.04 15.36 21.3431 15.36 19.2C15.36 18.0469 15.8737 17.0231 16.6387 16.3425C16.7737 16.23 16.8375 16.0537 16.8037 15.8812C16.77 15.7087 16.6444 15.57 16.4775 15.5156C16.3106 15.4631 16.1287 15.5044 16.0012 15.6244C15.0375 16.4812 14.4 17.7619 14.4 19.2C14.4 21.8569 16.5431 24 19.2 24C21.8569 24 24 21.8569 24 19.2C24 16.5431 21.8569 14.4 19.2 14.4H18.72ZM17.2744 16.7944C17.0794 16.7962 16.905 16.9144 16.83 17.0944C16.7569 17.2762 16.8 17.4825 16.9406 17.6194L18.2737 18.9525C18.2512 19.0331 18.24 19.1156 18.24 19.2C18.24 19.7306 18.6694 20.16 19.2 20.16C19.7306 20.16 20.16 19.7306 20.16 19.2C20.16 18.6694 19.7306 18.24 19.2 18.24C19.1156 18.24 19.0331 18.2512 18.9525 18.2719L17.6194 16.9406C17.5294 16.8469 17.4056 16.7962 17.2744 16.7944Z" fill="#38C1AC"/>
</svg>
