<svg width="24" height="24" viewBox="0 0 24 24" fill="none" xmlns="http://www.w3.org/2000/svg">
<path d="M21.3921 0C21.1048 0 20.8705 0.299479 20.8705 0.666667V3.33333C20.8705 3.70052 21.1048 4 21.3921 4H23.4784C23.7657 4 24 3.70052 24 3.33333V0.666667C24 0.299479 23.7657 0 23.4784 0H21.3921ZM0.528715 1.33333C0.341271 1.33073 0.166052 1.45573 0.0702918 1.66406C-0.0234306 1.8724 -0.0234306 2.1276 0.0702918 2.33594C0.166052 2.54427 0.341271 2.66927 0.528715 2.66667H18.2626C18.45 2.66927 18.6252 2.54427 18.721 2.33594C18.8147 2.1276 18.8147 1.8724 18.721 1.66406C18.6252 1.45573 18.45 1.33073 18.2626 1.33333H0.528715ZM21.9137 1.33333H22.9568V2.66667H21.9137V1.33333ZM21.3921 6.66667C21.1048 6.66667 20.8705 6.96615 20.8705 7.33333V10C20.8705 10.3672 21.1048 10.6667 21.3921 10.6667H23.4784C23.7657 10.6667 24 10.3672 24 10V7.33333C24 6.96615 23.7657 6.66667 23.4784 6.66667H21.3921ZM0.528715 8C0.341271 7.9974 0.166052 8.1224 0.0702918 8.33073C-0.0234306 8.53906 -0.0234306 8.79427 0.0702918 9.0026C0.166052 9.21094 0.341271 9.33594 0.528715 9.33333H18.2626C18.45 9.33594 18.6252 9.21094 18.721 9.0026C18.8147 8.79427 18.8147 8.53906 18.721 8.33073C18.6252 8.1224 18.45 7.9974 18.2626 8H0.528715ZM21.9137 8H22.9568V9.33333H21.9137V8ZM21.3921 13.3333C21.1048 13.3333 20.8705 13.6328 20.8705 14V16.6667C20.8705 17.0339 21.1048 17.3333 21.3921 17.3333H23.4784C23.7657 17.3333 24 17.0339 24 16.6667V14C24 13.6328 23.7657 13.3333 23.4784 13.3333H21.3921ZM0.528715 14.6667C0.341271 14.6641 0.166052 14.7891 0.0702918 14.9974C-0.0234306 15.2057 -0.0234306 15.4609 0.0702918 15.6693C0.166052 15.8776 0.341271 16.0026 0.528715 16H18.2626C18.45 16.0026 18.6252 15.8776 18.721 15.6693C18.8147 15.4609 18.8147 15.2057 18.721 14.9974C18.6252 14.7891 18.45 14.6641 18.2626 14.6667H0.528715ZM21.9137 14.6667H22.9568V16H21.9137V14.6667ZM21.3921 20C21.1048 20 20.8705 20.2995 20.8705 20.6667V23.3333C20.8705 23.7005 21.1048 24 21.3921 24H23.4784C23.7657 24 24 23.7005 24 23.3333V20.6667C24 20.2995 23.7657 20 23.4784 20H21.3921ZM0.528715 21.3333C0.341271 21.3307 0.166052 21.4557 0.0702918 21.6641C-0.0234306 21.8724 -0.0234306 22.1276 0.0702918 22.3359C0.166052 22.5443 0.341271 22.6693 0.528715 22.6667H18.2626C18.45 22.6693 18.6252 22.5443 18.721 22.3359C18.8147 22.1276 18.8147 21.8724 18.721 21.6641C18.6252 21.4557 18.45 21.3307 18.2626 21.3333H0.528715ZM21.9137 21.3333H22.9568V22.6667H21.9137V21.3333Z" fill="#38C1AC"/>
</svg>
