<svg width="21" height="28" viewBox="0 0 21 28" fill="none" xmlns="http://www.w3.org/2000/svg">
<path d="M9.81034 0.0155892C10.0879 0.0155892 10.3655 0.0311748 10.6584 0.0701395L10.7818 0.0857227C11.4217 0.163652 12.1465 0.257165 12.8018 0.522125L13.0177 0.607848C13.6808 0.872807 14.4287 1.16115 15.0609 1.62873L15.2305 1.75341C15.7162 2.10409 16.3176 2.5405 16.7879 3.03924C17.8365 4.16143 18.6615 5.43947 19.2551 6.84999C19.949 8.4865 20.3808 9.98275 20.5813 11.4244C20.8511 13.3181 20.9822 14.8845 20.9976 16.3418C21.013 17.9237 20.9513 19.5135 20.8897 21.0097V21.0877C20.8434 22.2878 20.8048 23.4645 20.7971 24.6179C20.7817 26.4804 19.2783 28 17.451 28C16.5798 28 15.7085 27.6259 15.0763 26.9791C14.4441 26.3323 14.0971 25.4907 14.1048 24.6179C14.1202 23.6204 14.1511 22.6385 14.1896 21.4461L14.2051 21.1812V21.1188V20.9396C14.2667 19.2953 14.313 17.8068 14.3361 16.3418C14.1357 16.4743 13.9352 16.5834 13.727 16.6925C12.9715 17.0821 12.2236 17.4406 11.4603 17.6588C10.4657 17.9471 9.4711 18.0952 8.49192 18.0952C6.26372 18.0952 4.25911 17.3704 2.69398 15.9911C1.76106 15.1728 1.04403 14.0896 0.512036 12.6791C0.242184 11.9699 0.141957 11.2686 0.0571464 10.5516C0.0108861 10.1698 -0.0276647 9.71778 0.0263055 9.24242L0.0648522 8.94629C0.134242 8.33844 0.203634 7.65266 0.427225 7.02143C0.635396 6.42138 0.866697 5.78236 1.19823 5.19009C1.91526 3.90426 2.90215 2.80546 4.21286 1.82355C5.40791 0.935155 6.77258 0.350684 8.16039 0.148068C8.68467 0.0701383 9.24751 0 9.81034 0M8.49192 11.3465C8.63841 11.3465 8.78491 11.3465 8.92369 11.3387C9.30148 11.253 9.67156 11.1439 10.0416 11.0192C10.5505 10.762 11.0285 10.4737 11.5065 10.1386C11.9306 9.78013 12.3624 9.3671 12.825 8.87615C12.6939 8.64236 12.5551 8.41637 12.4086 8.19817C12.1773 7.92541 11.9306 7.67604 11.653 7.41887C11.414 7.25522 11.1519 7.10715 10.8897 6.96688C10.6276 6.88116 10.3732 6.81102 10.1265 6.75647C9.98767 6.75647 9.8566 6.74089 9.71782 6.74089H9.56362H9.41713C9.1627 6.79544 8.9314 6.86557 8.7001 6.93571C8.43025 7.08378 8.19124 7.22405 7.95993 7.37991C7.72092 7.59032 7.50504 7.80852 7.30458 8.02672C7.15809 8.26051 7.01931 8.4865 6.89595 8.72029C6.80342 9.01642 6.74174 9.23463 6.70319 9.42166C6.69548 9.62427 6.69548 9.82689 6.69548 10.0295C6.73403 10.1776 6.77259 10.3256 6.81885 10.4737C6.87282 10.575 6.9345 10.6841 6.99618 10.7698C7.06557 10.8478 7.14267 10.9179 7.21206 10.988C7.31229 11.0504 7.41252 11.1049 7.50504 11.1595C7.69779 11.2218 7.89054 11.2686 8.06787 11.3075C8.20665 11.3153 8.34543 11.3231 8.47651 11.3231" fill="#8BBAFC"/>
</svg>
