<svg width="64" height="46" viewBox="0 0 64 46" fill="none" xmlns="http://www.w3.org/2000/svg">
<path d="M9.98342 0.983193C4.09418 6.82575 0.764076 14.7665 0.724239 23.0621C0.684401 31.3577 3.93808 39.3301 9.77094 45.229L14.6301 40.3699C10.088 35.7587 7.55968 29.5346 7.59951 23.0622C7.63934 16.5898 10.244 10.3972 14.8425 5.84232L9.98342 0.983193ZM49.1387 5.64638C51.4662 7.89951 53.3228 10.5927 54.6005 13.5695C55.8782 16.5463 56.5516 19.7474 56.5816 22.9867C56.6116 26.226 55.9976 29.439 54.7752 32.4389C53.5528 35.4389 51.7464 38.166 49.461 40.4618L54.3222 45.3222C57.2467 42.3888 59.5601 38.9043 61.1285 35.0706C62.6968 31.2369 63.489 27.13 63.459 22.988C63.429 18.846 62.5775 14.751 60.9539 10.9404C59.3302 7.12972 56.9666 3.67909 54 0.78833L49.1387 5.64638ZM40.3286 14.4565C38.3136 12.5661 35.7085 11.4281 32.9524 11.2342C30.1962 11.0404 27.4575 11.8025 25.1977 13.3923C22.9379 14.982 21.2952 17.3021 20.5464 19.9616C19.7975 22.6212 19.9884 25.4575 21.0867 27.9928C22.1851 30.5281 24.1238 32.6072 26.5762 33.8799C29.0286 35.1526 31.8447 35.541 34.55 34.9797C37.2553 34.4183 39.6845 32.9416 41.4281 30.7983C43.1717 28.6551 44.1233 25.9762 44.1223 23.2133C44.1234 21.5717 43.7873 19.9473 43.1347 18.441C42.4821 16.9346 41.527 15.5784 40.3286 14.4565ZM32.0911 28.3695C31.0713 28.3695 30.0743 28.0671 29.2264 27.5006C28.3785 26.934 27.7176 26.1287 27.3273 25.1865C26.937 24.2443 26.8349 23.2076 27.0339 22.2074C27.2328 21.2071 27.7239 20.2884 28.445 19.5673C29.1662 18.8462 30.0849 18.3551 31.0851 18.1561C32.0853 17.9572 33.1221 18.0593 34.0643 18.4495C35.0065 18.8398 35.8117 19.5007 36.3783 20.3486C36.9449 21.1966 37.2473 22.1935 37.2473 23.2133C37.2473 24.5808 36.7041 25.8923 35.7371 26.8593C34.7701 27.8263 33.4586 28.3695 32.0911 28.3695Z" fill="#38C1AC"/>
</svg>
