<svg width="21" height="20" viewBox="0 0 21 20" fill="none" xmlns="http://www.w3.org/2000/svg">
<path d="M0.419655 3.7638C0.480175 3.61527 0.546748 3.46674 0.625424 3.31821C1.13379 2.34038 1.74505 1.62867 2.43498 1.20784L2.6589 1.0655C2.94335 0.886024 3.2399 0.700356 3.5546 0.57658C3.97824 0.409484 4.40189 0.279526 4.80737 0.186695C6.45352 -0.178442 8.35991 -0.00516438 10.1816 0.681788C11.9306 1.34399 13.7462 2.42084 15.5921 3.88757C17.214 5.18102 18.727 6.61063 20.125 7.95978C20.5729 8.39299 20.8876 8.81382 20.9784 9.45126C21.0328 9.85353 20.9844 10.2682 20.8331 10.6457C20.7544 10.8376 20.6576 11.017 20.5366 11.1779C20.1795 11.6483 19.6469 11.9639 19.072 12.0506C18.5636 12.1248 17.8132 12.0134 17.3835 11.5926C16.3365 10.5838 15.2168 9.50696 14.0367 8.48582C13.843 8.67148 13.6494 8.86334 13.4557 9.06138C12.2453 10.3363 11.3496 11.4812 10.6415 12.657C10.4963 12.9417 10.3571 13.2264 10.2179 13.5359C11.1741 14.2661 12.2211 15.0088 13.5223 15.8814C14.0185 16.2156 14.309 16.8716 14.3756 17.3791C14.4301 17.7813 14.3817 18.196 14.2304 18.5735C14.1517 18.7654 14.0549 18.9448 13.9338 19.1057C13.5828 19.5761 13.0502 19.8917 12.4692 19.9784C11.9064 20.0588 11.3678 19.9165 10.7807 19.5266C8.09362 17.7256 5.29758 15.7019 3.05834 13.1336C2.53181 12.5271 1.98108 11.8587 1.54533 11.0975L1.44245 10.918C1.08538 10.2991 0.716204 9.6555 0.510436 8.95617C0.153366 7.73698 -0.0705585 6.70346 0.0202219 5.58948C0.0746901 4.92109 0.207835 4.30222 0.425707 3.75142M10.345 5.79371C9.50374 5.33574 8.72303 5.00155 7.95442 4.76638C7.45816 4.66117 6.98005 4.59928 6.48983 4.57452C6.15092 4.59928 5.84227 4.6426 5.55177 4.71068C5.39442 4.77257 5.23706 4.83445 5.07971 4.90871C4.98893 4.9706 4.89815 5.03868 4.81342 5.11294C4.7529 5.18102 4.69843 5.25529 4.65002 5.32955C4.63186 5.37288 4.61371 5.4162 4.59555 5.45333C4.57739 5.50284 4.55319 5.55854 4.53503 5.60805C4.51082 5.77514 4.49267 5.94842 4.48056 6.11552C4.50477 6.43734 4.55319 6.76534 4.63186 7.11191C4.77711 7.5575 4.94657 7.97216 5.15234 8.37442C5.57598 9.05519 6.08435 9.73595 6.71376 10.4538C7.56104 8.93141 8.71698 7.44611 10.3389 5.78133" fill="#DF67AD"/>
</svg>
