<svg width="22" height="20" viewBox="0 0 22 20" fill="none" xmlns="http://www.w3.org/2000/svg">
<path d="M20.4444 14.2217V10.7997C20.4444 5.38763 16.0915 1 10.7222 1C5.35293 1 1 5.38816 1 10.8003V14.2222" stroke="#38C1AC" stroke-width="2" stroke-linecap="round" stroke-linejoin="round"/>
<path d="M3.8172 11.1112H4.46489C4.8415 11.1113 5.20265 11.2557 5.46895 11.5126C5.73526 11.7695 5.88493 12.1179 5.88507 12.4812V17.5195C5.88479 17.8827 5.73513 18.2308 5.46895 18.4876C5.20278 18.7443 4.84185 18.8887 4.46541 18.889H3.81772C3.07059 18.8887 2.35414 18.6023 1.82579 18.0928C1.29744 17.5832 1.00042 16.8921 1 16.1714V13.8298C1.00042 13.1092 1.29736 12.4182 1.8256 11.9086C2.35384 11.3991 3.07016 11.1126 3.8172 11.1122M17.6272 18.889H16.9796C16.6029 18.8888 16.2418 18.7445 15.9755 18.4876C15.7092 18.2307 15.5595 17.8823 15.5594 17.519V12.4806C15.5597 12.1175 15.7093 11.7694 15.9755 11.5126C16.2417 11.2558 16.6026 11.1115 16.979 11.1112H17.6272C18.3743 11.1116 19.0906 11.3981 19.6188 11.9076C20.1471 12.4172 20.444 13.1081 20.4444 13.8288V16.1714C20.444 16.8921 20.1471 17.583 19.6188 18.0926C19.0906 18.6021 18.3743 18.8886 17.6272 18.889Z" stroke="#38C1AC" stroke-width="2" stroke-linecap="round" stroke-linejoin="round"/>
</svg>
