<svg width="918" height="855" viewBox="0 0 918 855" fill="none" xmlns="http://www.w3.org/2000/svg">
<g opacity="0.1" clip-path="url(#clip0_485_40165)">
<path d="M589.796 453.848C499.146 452.981 417.118 452.207 357.659 451.641C327.996 451.509 303.975 451.377 287.312 451.302C279.047 451.321 272.632 451.339 268.178 451.339C266.027 451.377 264.386 451.396 263.197 451.415C262.083 451.434 261.499 451.472 261.499 451.509C261.499 451.547 262.065 451.585 263.197 451.622C264.386 451.641 266.027 451.698 268.178 451.736C272.613 451.792 279.047 451.868 287.312 451.981C303.993 452.075 327.996 452.207 357.659 452.358C417.118 452.396 499.164 452.452 589.815 452.509C680.428 452.509 762.474 452.622 821.877 453.056C851.578 453.264 875.618 453.546 892.224 453.867C900.526 454.018 906.98 454.188 911.358 454.358C915.736 454.527 918.019 454.697 918.019 454.848C918.019 455.018 915.717 455.15 911.339 455.282C906.961 455.414 900.508 455.508 892.205 455.584C875.599 455.735 851.559 455.772 821.858 455.678C762.456 455.508 680.41 454.791 589.815 453.867L589.796 453.848Z" fill="#EBEBEB"/>
<path d="M588.004 474.014C498.598 459.263 417.685 445.926 359.037 436.25C329.751 431.571 306.05 427.78 289.596 425.139C281.425 423.894 275.085 422.932 270.688 422.253C268.575 421.951 266.933 421.725 265.763 421.555C264.65 421.404 264.084 421.348 264.065 421.385C264.065 421.423 264.612 421.536 265.725 421.763C266.895 421.97 268.518 422.272 270.613 422.649C274.991 423.385 281.331 424.441 289.464 425.818C305.918 428.459 329.619 432.269 358.905 436.966C417.647 446.115 498.674 458.716 588.211 472.656C677.73 486.52 758.757 499.196 817.367 508.722C846.672 513.476 870.373 517.437 886.733 520.304C894.903 521.738 901.263 522.888 905.546 523.718C909.829 524.548 912.075 525.076 912.056 525.246C912.037 525.416 909.735 525.208 905.395 524.661C901.055 524.114 894.658 523.228 886.45 522.039C870.014 519.644 846.257 516.003 816.933 511.363C758.286 502.101 677.353 488.821 587.985 474.014H588.004Z" fill="#EBEBEB"/>
<path d="M583.003 493.65C497.07 465.204 419.288 439.456 362.924 420.8C334.751 411.633 311.957 404.2 296.125 399.051C288.256 396.561 282.142 394.618 277.915 393.279C275.877 392.656 274.292 392.185 273.16 391.826C272.085 391.506 271.537 391.374 271.519 391.392C271.519 391.43 272.047 391.638 273.085 392.015C274.198 392.411 275.764 392.939 277.783 393.637C281.991 395.052 288.067 397.089 295.898 399.692C311.73 404.861 334.525 412.293 362.679 421.479C419.232 439.626 497.24 464.657 583.437 492.311C669.616 519.889 747.624 544.977 803.969 563.5C832.142 572.743 854.918 580.345 870.618 585.702C878.468 588.381 884.544 590.512 888.657 592.003C892.771 593.493 894.885 594.36 894.847 594.511C894.79 594.662 892.564 594.115 888.356 592.908C884.148 591.701 877.996 589.833 870.071 587.381C854.22 582.458 831.35 575.177 803.139 566.047C746.699 547.787 668.899 522.114 583.022 493.612L583.003 493.65Z" fill="#EBEBEB"/>
<path d="M574.946 512.249C494.617 470.826 421.911 433.363 369.227 406.182C342.865 392.751 321.543 381.886 306.73 374.34C299.37 370.662 293.634 367.795 289.671 365.814C287.747 364.871 286.275 364.154 285.199 363.645C284.18 363.173 283.671 362.947 283.652 362.966C283.652 363.004 284.124 363.287 285.105 363.834C286.143 364.381 287.596 365.173 289.483 366.173C293.408 368.21 299.087 371.171 306.409 374.963C321.222 382.527 342.545 393.411 368.887 406.842C421.836 433.533 494.862 470.354 575.569 511.061C656.275 551.673 729.283 588.57 781.986 615.582C808.347 629.088 829.614 640.104 844.257 647.838C851.578 651.705 857.239 654.742 861.07 656.855C864.881 658.967 866.844 660.156 866.768 660.288C866.693 660.439 864.579 659.533 860.617 657.685C856.673 655.836 850.88 653.025 843.445 649.366C828.576 642.047 807.158 631.314 780.741 617.902C727.924 591.116 655.181 553.692 574.927 512.23L574.946 512.249Z" fill="#EBEBEB"/>
<path d="M564.039 529.377C491.258 476.089 425.402 427.874 377.661 392.921C353.753 375.604 334.412 361.57 320.976 351.837C314.278 347.064 309.069 343.348 305.484 340.783C303.729 339.557 302.39 338.632 301.427 337.953C300.503 337.331 300.031 337.01 299.993 337.048C299.974 337.067 300.408 337.444 301.295 338.123C302.239 338.84 303.541 339.821 305.239 341.104C308.786 343.726 313.938 347.517 320.561 352.403C333.997 362.155 353.319 376.189 377.209 393.524C425.27 428.044 491.56 475.674 564.832 528.302C638.103 580.855 704.374 628.541 752.134 663.344C776.023 680.736 795.289 694.921 808.536 704.805C815.159 709.747 820.273 713.633 823.707 716.293C827.142 718.971 828.896 720.443 828.802 720.575C828.708 720.707 826.764 719.499 823.141 717.047C819.537 714.614 814.253 710.954 807.498 706.201C793.968 696.694 774.514 682.773 750.568 665.475C702.638 630.88 636.726 582.703 564.039 529.396V529.377Z" fill="#EBEBEB"/>
<path d="M550.547 544.619C487.069 480.823 429.61 423.102 387.964 381.245C367.094 360.476 350.187 343.65 338.45 331.974C332.6 326.239 328.034 321.769 324.882 318.675C323.354 317.204 322.165 316.072 321.316 315.261C320.505 314.507 320.071 314.129 320.052 314.148C320.033 314.167 320.41 314.601 321.165 315.412C321.976 316.261 323.127 317.43 324.599 318.958C327.694 322.09 332.185 326.636 337.959 332.464C349.677 344.141 366.566 360.985 387.436 381.773C429.459 423.253 487.446 480.465 551.509 543.676C615.592 606.811 673.541 664.079 715.224 705.805C736.076 726.649 752.87 743.607 764.399 755.415C770.155 761.319 774.608 765.922 777.57 769.091C780.533 772.26 782.043 773.976 781.929 774.09C781.816 774.203 780.08 772.713 776.891 769.751C773.702 766.79 769.079 762.376 763.154 756.622C751.304 745.153 734.264 728.422 713.337 707.653C671.446 666.136 613.95 608.433 550.547 544.619Z" fill="#EBEBEB"/>
<path d="M534.81 557.597C482.163 484.841 434.516 419.009 399.984 371.285C382.643 347.555 368.604 328.352 358.848 315.016C353.961 308.451 350.168 303.339 347.545 299.793C346.262 298.095 345.262 296.794 344.564 295.87C343.884 295.002 343.526 294.549 343.488 294.568C343.45 294.587 343.771 295.077 344.394 295.983C345.073 296.945 345.998 298.284 347.224 300.019C349.791 303.585 353.508 308.753 358.282 315.412C368.019 328.748 382.058 347.97 399.381 371.7C434.346 419.103 482.597 484.52 535.923 556.804C589.268 629.013 637.481 694.468 672.069 742.06C689.373 765.846 703.299 785.181 712.809 798.593C717.564 805.308 721.225 810.552 723.659 814.136C726.093 817.72 727.301 819.644 727.169 819.739C727.037 819.833 725.565 818.097 722.886 814.683C720.206 811.269 716.319 806.195 711.375 799.611C701.468 786.464 687.297 767.318 669.88 743.607C635.046 696.166 587.343 630.352 534.791 557.597H534.81Z" fill="#EBEBEB"/>
<path d="M517.223 568.008C476.766 488.028 440.158 415.669 413.608 363.211C400.23 337.104 389.417 315.977 381.907 301.302C378.133 294.058 375.189 288.418 373.151 284.532C372.151 282.665 371.378 281.231 370.83 280.194C370.302 279.232 370 278.741 369.981 278.741C369.944 278.741 370.17 279.269 370.642 280.288C371.151 281.344 371.868 282.797 372.793 284.702C374.755 288.626 377.605 294.303 381.266 301.603C388.776 316.279 399.569 337.425 412.929 363.531C439.951 415.745 477.238 487.783 518.431 567.386C559.68 646.913 596.91 719.008 623.536 771.335C636.858 797.498 647.538 818.738 654.803 833.452C658.445 840.808 661.219 846.561 663.049 850.466C664.88 854.39 665.766 856.484 665.634 856.54C665.483 856.616 664.313 854.673 662.2 850.881C660.105 847.09 657.067 841.487 653.218 834.225C645.519 819.7 634.556 798.63 621.12 772.505C594.25 720.291 557.567 647.932 517.204 567.952L517.223 568.008Z" fill="#EBEBEB"/>
<path d="M498.202 575.555C471.011 490.293 446.404 413.161 428.572 357.232C419.534 329.371 412.212 306.829 407.136 291.173C404.551 283.439 402.551 277.422 401.173 273.253C400.475 271.253 399.947 269.707 399.569 268.612C399.192 267.575 398.984 267.047 398.947 267.047C398.909 267.047 399.06 267.613 399.362 268.669C399.701 269.782 400.173 271.348 400.777 273.366C402.098 277.554 404.004 283.59 406.457 291.38C411.533 307.037 418.817 329.597 427.836 357.458C446.197 413.218 471.52 490.142 499.504 575.14C527.545 660.081 552.812 737.043 570.757 792.859C579.739 820.776 586.89 843.393 591.721 859.069C594.136 866.897 595.967 873.008 597.156 877.158C598.344 881.308 598.892 883.515 598.722 883.572C598.571 883.628 597.703 881.516 596.231 877.46C594.759 873.405 592.665 867.387 590.023 859.616C584.739 844.091 577.267 821.569 568.172 793.689C549.962 737.948 525.299 660.797 498.183 575.573L498.202 575.555Z" fill="#EBEBEB"/>
<path d="M478.2 580.063C464.954 491.651 452.971 411.652 444.272 353.667C439.8 324.768 436.158 301.359 433.648 285.099C432.346 277.063 431.327 270.801 430.629 266.481C430.271 264.406 429.988 262.803 429.78 261.652C429.573 260.558 429.459 260.011 429.422 260.011C429.384 260.011 429.422 260.577 429.573 261.671C429.723 262.821 429.95 264.444 430.233 266.537C430.875 270.876 431.78 277.139 432.969 285.193C435.479 301.453 439.083 324.844 443.536 353.761C452.764 411.671 465.482 491.557 479.559 579.855C493.692 668.078 506.354 748.002 515.166 805.912C519.582 834.867 523.035 858.314 525.299 874.536C526.432 882.647 527.262 888.948 527.771 893.23C528.281 897.512 528.469 899.775 528.3 899.794C528.13 899.813 527.639 897.606 526.828 893.362C526.016 889.118 524.922 882.855 523.544 874.781C520.808 858.635 517.034 835.225 512.487 806.289C503.41 748.417 491.352 668.418 478.181 580.044L478.2 580.063Z" fill="#EBEBEB"/>
<path d="M457.707 581.439C458.519 492.084 459.255 411.199 459.802 352.591C459.934 323.353 460.028 299.679 460.104 283.231C460.085 275.082 460.066 268.744 460.047 264.367C460.01 262.255 459.991 260.633 459.972 259.463C459.953 258.35 459.915 257.784 459.877 257.784C459.84 257.784 459.802 258.35 459.764 259.463C459.745 260.633 459.708 262.255 459.651 264.367C459.594 268.744 459.519 275.082 459.425 283.231C459.349 299.66 459.236 323.334 459.085 352.591C459.085 411.217 459.085 492.084 459.085 581.458C459.141 670.775 459.085 751.661 458.67 810.231C458.481 839.507 458.198 863.199 457.896 879.572C457.745 887.759 457.575 894.116 457.405 898.435C457.236 902.755 457.066 905.018 456.896 905C456.726 905 456.575 902.736 456.462 898.416C456.33 894.097 456.236 887.74 456.141 879.553C455.99 863.18 455.934 839.488 456.009 810.193C456.141 751.642 456.821 670.756 457.689 581.439H457.707Z" fill="#EBEBEB"/>
<path d="M437.253 579.666C452.16 491.518 465.633 411.746 475.407 353.911C480.144 325.05 483.974 301.679 486.635 285.438C487.899 277.383 488.862 271.12 489.541 266.801C489.843 264.707 490.069 263.104 490.239 261.953C490.39 260.859 490.447 260.293 490.409 260.293C490.371 260.293 490.239 260.84 490.032 261.934C489.824 263.085 489.522 264.688 489.145 266.763C488.409 271.083 487.333 277.326 485.937 285.362C483.257 301.585 479.427 324.956 474.672 353.817C465.444 411.727 452.688 491.612 438.611 579.892C424.61 668.134 411.797 748.039 402.173 805.817C397.362 834.715 393.361 858.068 390.474 874.196C389.021 882.269 387.87 888.513 387.021 892.738C386.172 896.964 385.643 899.171 385.474 899.152C385.304 899.133 385.511 896.87 386.059 892.588C386.606 888.306 387.512 882.005 388.719 873.913C391.135 857.709 394.814 834.3 399.513 805.383C408.872 747.548 422.289 667.757 437.253 579.666Z" fill="#EBEBEB"/>
<path d="M417.345 574.762C446.14 490.028 472.2 413.349 491.088 357.76C500.372 329.993 507.882 307.508 513.109 291.889C515.638 284.136 517.6 278.1 518.959 273.931C519.582 271.913 520.072 270.366 520.431 269.235C520.752 268.178 520.903 267.631 520.865 267.612C520.827 267.612 520.62 268.122 520.223 269.159C519.827 270.253 519.28 271.8 518.563 273.781C517.148 277.93 515.072 283.929 512.43 291.644C507.203 307.263 499.674 329.729 490.371 357.495C472.011 413.255 446.669 490.16 418.666 575.158C390.738 660.137 365.339 737.042 346.602 792.613C337.242 820.399 329.543 842.846 324.128 858.332C321.41 866.066 319.259 872.065 317.75 876.12C316.24 880.176 315.353 882.27 315.202 882.213C315.051 882.157 315.599 879.969 316.825 875.819C318.052 871.669 319.939 865.595 322.429 857.785C327.411 842.167 334.789 819.606 344.035 791.783C362.509 736.137 388.512 659.42 417.383 574.743L417.345 574.762Z" fill="#EBEBEB"/>
<path d="M398.475 566.84C440.441 487.614 478.408 415.934 505.939 363.966C519.544 337.972 530.545 316.94 538.187 302.34C541.924 295.078 544.83 289.419 546.83 285.514C547.773 283.609 548.509 282.156 549.019 281.119C549.509 280.119 549.736 279.61 549.698 279.591C549.66 279.591 549.377 280.062 548.83 281.024C548.264 282.043 547.49 283.477 546.471 285.344C544.396 289.211 541.414 294.832 537.565 302.038C529.904 316.638 518.884 337.671 505.259 363.645C478.219 415.859 440.913 487.878 399.683 567.462C358.546 647.046 321.165 719.047 293.785 771.015C280.104 797.009 268.933 817.984 261.102 832.434C257.177 839.658 254.102 845.242 251.969 849.014C249.837 852.768 248.629 854.711 248.478 854.636C248.327 854.56 249.233 852.485 251.12 848.581C252.988 844.676 255.838 838.979 259.536 831.641C266.952 816.985 277.84 795.858 291.407 769.808C318.542 717.727 356.471 645.99 398.456 566.84H398.475Z" fill="#EBEBEB"/>
<path d="M381.077 556.087C435.082 484.313 483.955 419.348 519.374 372.265C536.923 348.686 551.132 329.615 561.001 316.355C565.851 309.753 569.606 304.622 572.21 301.075C573.436 299.34 574.399 298.02 575.078 297.076C575.72 296.171 576.021 295.681 576.003 295.662C575.965 295.643 575.606 296.077 574.908 296.944C574.191 297.869 573.191 299.17 571.889 300.849C569.228 304.358 565.379 309.432 560.454 315.959C550.585 329.2 536.357 348.271 518.789 371.831C483.804 419.235 435.535 484.614 382.19 556.879C328.939 629.144 280.595 694.505 245.327 741.626C227.684 765.186 213.324 784.181 203.304 797.253C198.285 803.78 194.36 808.835 191.661 812.212C188.944 815.607 187.453 817.324 187.321 817.229C187.189 817.135 188.416 815.211 190.888 811.646C193.36 808.081 197.058 802.874 201.889 796.216C211.531 782.879 225.627 763.695 243.176 740.06C278.236 692.789 327.071 627.786 381.096 556.087H381.077Z" fill="#EBEBEB"/>
<path d="M365.622 542.789C430.29 480.163 488.824 423.498 531.243 382.414C552.302 361.815 569.36 345.159 581.192 333.577C587.023 327.805 591.551 323.296 594.665 320.203C596.156 318.694 597.307 317.524 598.137 316.675C598.911 315.883 599.288 315.449 599.269 315.43C599.25 315.411 598.816 315.789 597.986 316.543C597.137 317.354 595.929 318.467 594.382 319.92C591.212 322.976 586.607 327.408 580.701 333.086C568.851 344.649 551.793 361.306 530.715 381.885C488.673 423.347 430.667 480.54 366.585 543.732C302.578 606.942 244.516 664.098 202.228 705.239C181.094 725.799 163.904 742.38 151.94 753.736C145.958 759.414 141.279 763.79 138.071 766.733C134.863 769.656 133.108 771.147 132.995 771.033C132.882 770.92 134.391 769.204 137.391 766.072C140.392 762.941 144.883 758.357 150.695 752.51C162.319 740.815 179.283 724.026 200.341 703.371C242.44 662.061 300.918 605.32 365.604 542.789H365.622Z" fill="#EBEBEB"/>
<path d="M352.432 527.302C426.195 475.353 492.956 428.346 541.339 394.279C565.398 377.17 584.871 363.306 598.382 353.685C605.043 348.875 610.233 345.121 613.818 342.537C615.535 341.273 616.856 340.292 617.799 339.594C618.686 338.915 619.139 338.557 619.12 338.538C619.101 338.5 618.611 338.821 617.686 339.425C616.705 340.085 615.365 341.009 613.591 342.216C609.968 344.744 604.722 348.422 597.986 353.119C584.456 362.74 564.983 376.566 540.905 393.675C492.843 428.176 426.516 475.787 353.225 528.396C280.01 581.025 213.645 628.598 165.394 662.74C141.279 679.811 121.673 693.544 108.068 702.938C101.256 707.634 95.9532 711.237 92.3113 713.652C88.6694 716.047 86.7259 717.255 86.6315 717.123C86.5372 716.991 88.3109 715.538 91.7641 712.897C95.2173 710.256 100.369 706.427 107.049 701.542C120.39 691.771 139.788 677.774 163.847 660.608C211.946 626.24 278.67 579.176 352.451 527.321L352.432 527.302Z" fill="#EBEBEB"/>
<path d="M341.865 509.966C422.968 470.033 496.353 433.891 549.547 407.69C576.021 394.486 597.439 383.809 612.327 376.396C619.667 372.661 625.385 369.756 629.329 367.757C631.216 366.776 632.688 366.002 633.726 365.455C634.707 364.927 635.197 364.644 635.197 364.607C635.197 364.569 634.65 364.795 633.631 365.267C632.574 365.776 631.084 366.474 629.14 367.398C625.159 369.341 619.403 372.152 612.006 375.774C597.118 383.187 575.682 393.845 549.207 407.03C496.259 433.703 423.213 470.505 342.488 511.174C261.838 551.88 188.736 588.626 135.655 614.921C109.124 628.069 87.594 638.614 72.649 645.782C65.1766 649.366 59.3646 652.12 55.3831 653.93C51.4204 655.741 49.2881 656.628 49.2126 656.477C49.1372 656.326 51.1185 655.175 54.9491 653.1C58.7797 651.026 64.4784 648.045 71.8376 644.235C86.5561 636.633 107.936 625.805 134.41 612.563C187.359 586.042 260.744 549.843 341.828 509.985L341.865 509.966Z" fill="#EBEBEB"/>
<path d="M334.204 491.217C420.666 464.356 498.919 440.06 555.623 422.442C583.871 413.52 606.742 406.295 622.611 401.277C630.461 398.731 636.556 396.75 640.783 395.392C642.802 394.713 644.368 394.185 645.481 393.808C646.538 393.43 647.067 393.242 647.067 393.204C647.067 393.166 646.5 393.317 645.425 393.619C644.293 393.958 642.708 394.411 640.651 395.015C636.405 396.316 630.272 398.203 622.385 400.617C606.496 405.616 583.626 412.841 555.378 421.744C498.825 439.872 420.817 464.884 334.6 492.519C248.459 520.21 170.414 545.166 113.804 562.897C85.4993 571.763 62.5536 578.837 46.6651 583.609C38.7209 585.986 32.5316 587.797 28.3236 588.985C24.1156 590.155 21.8701 590.702 21.8324 590.532C21.7758 590.381 23.9269 589.532 28.0406 588.08C32.1542 586.627 38.268 584.552 46.1368 581.949C61.8931 576.724 84.7257 569.349 112.993 560.37C169.527 542.393 247.761 518.022 334.204 491.236V491.217Z" fill="#EBEBEB"/>
<path d="M329.6 471.486C419.269 458.376 500.429 446.511 559.246 437.909C588.57 433.476 612.308 429.892 628.782 427.402C636.933 426.101 643.293 425.101 647.67 424.403C649.784 424.045 651.406 423.762 652.576 423.573C653.671 423.366 654.237 423.253 654.237 423.215C654.237 423.177 653.652 423.215 652.539 423.366C651.369 423.517 649.727 423.743 647.614 424.007C643.217 424.63 636.858 425.554 628.687 426.723C612.195 429.194 588.457 432.778 559.133 437.192C500.391 446.322 419.364 458.923 329.807 472.844C240.308 486.822 159.262 499.366 100.52 508.08C71.1583 512.457 47.3634 515.871 30.9088 518.116C22.6816 519.247 16.2847 520.058 11.9446 520.568C7.60456 521.077 5.30244 521.266 5.28357 521.096C5.2647 520.926 7.51021 520.436 11.8125 519.644C16.1149 518.851 22.474 517.757 30.6635 516.399C47.0426 513.683 70.7809 509.948 100.142 505.458C158.847 496.479 239.987 484.539 329.638 471.505L329.6 471.486Z" fill="#EBEBEB"/>
<path d="M328.203 451.302C418.854 452.056 500.882 452.735 560.341 453.226C590.004 453.339 614.025 453.414 630.687 453.471C638.952 453.433 645.368 453.414 649.821 453.396C651.973 453.358 653.614 453.339 654.803 453.32C655.916 453.301 656.501 453.264 656.501 453.226C656.501 453.188 655.935 453.15 654.803 453.113C653.614 453.094 651.973 453.056 649.821 452.999C645.387 452.943 638.952 452.886 630.687 452.792C614.006 452.717 590.004 452.622 560.341 452.509C500.882 452.547 418.835 452.584 328.185 452.641C237.572 452.754 155.525 452.735 96.1231 452.377C66.4219 452.207 42.3817 451.962 25.7762 451.66C17.4735 451.509 11.02 451.358 6.64219 451.189C2.30212 451.057 0 450.887 0 450.717C0 450.547 2.30212 450.415 6.67993 450.283C11.0577 450.151 17.5112 450.038 25.814 449.962C42.4195 449.793 66.4597 449.736 96.1608 449.774C155.563 449.868 237.609 450.472 328.203 451.302Z" fill="#EBEBEB"/>
<path d="M329.977 431.138C419.402 445.776 500.334 459.018 559.001 468.6C588.287 473.241 611.987 477.013 628.461 479.616C636.631 480.842 642.972 481.804 647.368 482.465C649.482 482.766 651.124 482.993 652.294 483.144C653.407 483.295 653.973 483.351 653.992 483.313C653.992 483.276 653.445 483.163 652.331 482.936C651.161 482.729 649.538 482.446 647.444 482.069C643.066 481.333 636.726 480.277 628.593 478.918C612.138 476.296 588.419 472.524 559.152 467.846C500.41 458.772 419.364 446.266 329.789 432.439C240.27 418.688 159.205 406.106 100.595 396.656C71.2904 391.94 47.571 387.998 31.2108 385.168C23.0213 383.753 16.681 382.603 12.3976 381.773C8.09522 380.943 5.86858 380.415 5.88745 380.264C5.90632 380.094 8.20844 380.302 12.5485 380.849C16.8886 381.396 23.2855 382.263 31.4939 383.452C47.9295 385.828 71.6867 389.45 101.01 394.053C159.677 403.239 240.629 416.425 329.996 431.119L329.977 431.138Z" fill="#EBEBEB"/>
<path d="M334.94 411.501C420.911 439.833 498.712 465.487 555.114 484.068C583.286 493.197 606.1 500.592 621.951 505.723C629.819 508.213 635.933 510.137 640.16 511.476C642.217 512.098 643.783 512.57 644.915 512.91C645.991 513.23 646.538 513.362 646.557 513.325C646.557 513.287 646.029 513.079 644.972 512.702C643.859 512.306 642.292 511.778 640.273 511.08C636.065 509.684 629.97 507.647 622.158 505.044C606.326 499.894 583.513 492.481 555.34 483.332C498.768 465.261 420.741 440.324 334.487 412.784C248.271 385.319 170.244 360.306 113.861 341.877C85.6692 332.672 62.8932 325.107 47.1935 319.75C39.3436 317.072 33.2675 314.959 29.1539 313.469C25.0403 311.979 22.908 311.111 22.9646 310.96C23.0212 310.809 25.2479 311.356 29.4558 312.563C33.6638 313.771 39.8343 315.619 47.7596 318.071C63.6103 322.976 86.4994 330.219 114.729 339.33C171.187 357.514 249.026 383.093 334.94 411.482V411.501Z" fill="#EBEBEB"/>
<path d="M342.979 392.882C423.364 434.193 496.108 471.58 548.83 498.686C575.21 512.079 596.552 522.925 611.365 530.452C618.743 534.13 624.479 536.997 628.442 538.959C630.367 539.883 631.839 540.6 632.914 541.128C633.933 541.6 634.461 541.826 634.461 541.807C634.461 541.77 633.99 541.487 633.008 540.959C631.971 540.412 630.518 539.638 628.631 538.62C624.706 536.582 619.007 533.64 611.704 529.848C596.892 522.303 575.55 511.457 549.189 498.045C496.221 471.41 423.119 434.683 342.375 394.09C261.631 353.572 188.548 316.788 135.825 289.833C109.464 276.364 88.16 265.367 73.5169 257.652C66.1954 253.804 60.5156 250.767 56.7039 248.654C52.8922 246.542 50.9109 245.372 50.9863 245.221C51.0618 245.07 53.1752 245.976 57.1379 247.824C61.1006 249.673 66.8936 252.465 74.3284 256.105C89.1978 263.405 110.634 274.12 137.071 287.494C189.925 314.204 262.706 351.553 343.016 392.901L342.979 392.882Z" fill="#EBEBEB"/>
<path d="M353.885 375.755C426.723 428.95 492.654 477.089 540.433 511.985C564.36 529.283 583.72 543.28 597.175 552.994C603.873 557.766 609.081 561.464 612.686 564.029C614.44 565.236 615.78 566.179 616.762 566.859C617.686 567.481 618.177 567.802 618.196 567.764C618.214 567.745 617.781 567.368 616.894 566.689C615.95 565.972 614.648 564.991 612.931 563.708C609.365 561.086 604.213 557.314 597.59 552.428C584.154 542.695 564.794 528.679 540.886 511.382C492.787 476.919 426.421 429.383 353.093 376.831C279.765 324.372 213.418 276.761 165.602 242.015C141.694 224.642 122.409 210.495 109.162 200.629C102.539 195.687 97.4251 191.82 93.9719 189.161C90.5376 186.501 88.7827 185.03 88.877 184.897C88.9714 184.765 90.915 185.973 94.538 188.406C98.161 190.839 103.426 194.499 110.2 199.234C123.73 208.741 143.203 222.624 167.187 239.903C215.154 274.441 281.123 322.523 353.904 375.755H353.885Z" fill="#EBEBEB"/>
<path d="M367.359 360.494C430.931 424.214 488.447 481.86 530.149 523.661C551.057 544.411 567.964 561.199 579.72 572.875C585.589 578.61 590.155 583.08 593.306 586.155C594.854 587.626 596.024 588.758 596.873 589.569C597.684 590.324 598.118 590.701 598.137 590.682C598.156 590.663 597.779 590.229 597.024 589.418C596.212 588.569 595.061 587.4 593.589 585.872C590.495 582.741 585.985 578.214 580.211 572.385C568.474 560.708 551.566 543.901 530.677 523.152C488.598 481.728 430.554 424.592 366.396 361.438C302.22 298.378 244.214 241.185 202.474 199.516C181.604 178.691 164.772 161.771 153.242 149.981C147.468 144.096 143.034 139.474 140.052 136.324C137.071 133.155 135.58 131.439 135.693 131.325C135.806 131.212 137.542 132.702 140.732 135.664C143.921 138.625 148.563 143.039 154.488 148.774C166.357 160.224 183.396 176.937 204.361 197.686C246.308 239.147 303.88 296.775 367.359 360.513V360.494Z" fill="#EBEBEB"/>
<path d="M383.058 347.498C435.8 420.178 483.521 485.973 518.11 533.641C535.489 557.333 549.547 576.535 559.322 589.853C564.209 596.417 568.021 601.529 570.644 605.057C571.927 606.754 572.927 608.037 573.625 608.98C574.304 609.848 574.682 610.301 574.701 610.282C574.738 610.263 574.418 609.791 573.795 608.867C573.116 607.905 572.172 606.566 570.964 604.83C568.398 601.265 564.662 596.097 559.888 589.457C550.132 576.12 536.074 556.937 518.714 533.226C483.672 485.86 435.347 420.518 381.945 348.291C328.506 276.158 280.218 210.759 245.554 163.205C228.212 139.437 214.267 120.121 204.738 106.71C199.964 99.9942 196.303 94.7691 193.869 91.1851C191.435 87.6011 190.208 85.6771 190.359 85.5828C190.491 85.4884 191.963 87.2239 194.643 90.6381C197.322 94.0523 201.209 99.1265 206.172 105.691C216.098 118.839 230.288 137.947 247.724 161.658C282.614 209.061 330.393 274.8 383.058 347.498Z" fill="#EBEBEB"/>
<path d="M400.626 337.067C441.196 416.99 477.898 489.312 504.505 541.733C517.902 567.821 528.752 588.947 536.3 603.604C540.093 610.848 543.037 616.469 545.075 620.355C546.075 622.222 546.849 623.656 547.415 624.693C547.943 625.655 548.245 626.146 548.283 626.146C548.321 626.146 548.094 625.617 547.603 624.599C547.094 623.543 546.377 622.09 545.452 620.185C543.471 616.261 540.622 610.584 536.942 603.302C529.413 588.627 518.582 567.5 505.203 541.412C478.106 489.237 440.743 417.236 399.437 337.69C358.093 258.2 320.769 186.18 294.068 133.873C280.708 107.728 270.009 86.5071 262.725 71.7938C259.083 64.4372 256.291 58.7027 254.441 54.7792C252.592 50.8745 251.705 48.7807 251.856 48.7052C252.007 48.6298 253.177 50.5727 255.29 54.3642C257.404 58.1368 260.442 63.7581 264.291 71.0016C272.009 85.5074 283.01 106.578 296.464 132.684C323.411 184.879 360.169 257.181 400.645 337.105L400.626 337.067Z" fill="#EBEBEB"/>
<path d="M419.647 329.484C446.952 414.708 471.652 491.82 489.56 547.712C498.636 575.554 505.977 598.096 511.071 613.733C513.657 621.467 515.676 627.485 517.053 631.635C517.751 633.634 518.28 635.181 518.657 636.275C519.034 637.312 519.242 637.841 519.28 637.841C519.318 637.841 519.167 637.275 518.865 636.218C518.525 635.105 518.053 633.54 517.431 631.521C516.11 627.353 514.185 621.297 511.732 613.526C506.637 597.869 499.315 575.328 490.258 547.486C471.822 491.745 446.404 414.859 418.326 329.899C390.172 244.995 364.811 168.071 346.79 112.274C337.771 84.3752 330.581 61.7582 325.732 46.1018C323.316 38.2735 321.467 32.1807 320.278 28.0308C319.089 23.8809 318.542 21.6739 318.693 21.6173C318.844 21.5607 319.712 23.6734 321.184 27.729C322.656 31.7846 324.769 37.8019 327.411 45.5547C332.713 61.0791 340.205 83.583 349.338 111.444C367.623 167.166 392.38 244.279 419.609 329.465L419.647 329.484Z" fill="#EBEBEB"/>
<path d="M439.649 324.956C453.009 413.349 465.104 493.329 473.86 551.315C478.37 580.213 482.031 603.622 484.578 619.863C485.899 627.899 486.918 634.162 487.635 638.481C487.994 640.556 488.277 642.16 488.484 643.31C488.692 644.404 488.805 644.952 488.843 644.952C488.88 644.952 488.843 644.386 488.692 643.292C488.541 642.141 488.314 640.519 488.031 638.425C487.39 634.086 486.465 627.824 485.276 619.769C482.748 603.528 479.106 580.119 474.615 551.22C465.312 493.329 452.481 413.443 438.309 325.182C424.063 236.978 411.306 157.074 402.419 99.1635C397.965 70.2085 394.475 46.7616 392.191 30.5392C391.04 22.428 390.21 16.1277 389.682 11.8458C389.172 7.56382 388.983 5.30023 389.134 5.28137C389.304 5.26251 389.814 7.4695 390.625 11.7137C391.437 15.9579 392.55 22.2205 393.927 30.294C396.682 46.4409 400.494 69.8501 405.061 98.7674C414.212 156.621 426.365 236.62 439.649 324.975V324.956Z" fill="#EBEBEB"/>
<path d="M460.123 323.542C459.425 412.897 458.783 493.782 458.33 552.39C458.236 581.628 458.179 605.301 458.123 621.75C458.16 629.899 458.179 636.237 458.198 640.613C458.236 642.726 458.255 644.348 458.274 645.518C458.311 646.631 458.33 647.197 458.368 647.197C458.406 647.197 458.443 646.631 458.481 645.518C458.5 644.348 458.538 642.726 458.594 640.613C458.651 636.237 458.708 629.899 458.802 621.75C458.858 605.32 458.953 581.647 459.047 552.39C458.972 493.763 458.877 412.897 458.764 323.523C458.594 234.206 458.557 153.32 458.877 94.7499C459.028 65.4742 459.274 41.782 459.557 25.4087C459.708 17.2221 459.859 10.8652 460.028 6.54553C460.179 2.26358 460.349 0 460.5 0C460.67 0 460.821 2.26358 460.953 6.58326C461.085 10.9029 461.198 17.2598 461.293 25.4465C461.481 41.8197 461.557 65.5119 461.519 94.8065C461.463 153.358 460.896 234.243 460.123 323.561V323.542Z" fill="#EBEBEB"/>
<path d="M480.578 325.296C465.803 413.463 452.424 493.254 442.725 551.089C438.026 579.969 434.233 603.34 431.592 619.562C430.346 627.617 429.384 633.88 428.704 638.199C428.403 640.293 428.176 641.896 428.006 643.047C427.855 644.141 427.799 644.707 427.836 644.707C427.874 644.707 428.006 644.16 428.214 643.066C428.421 641.915 428.723 640.312 429.101 638.237C429.837 633.917 430.912 627.674 432.29 619.638C434.931 603.415 438.762 580.044 443.48 551.164C452.631 493.236 465.274 413.331 479.238 325.032C493.126 236.771 505.826 156.848 515.374 99.0511C520.148 70.1526 524.11 46.7811 526.979 30.6531C528.413 22.5796 529.564 16.3359 530.413 12.0917C531.262 7.86634 531.772 5.64048 531.941 5.67821C532.111 5.69707 531.904 7.96065 531.356 12.2426C530.809 16.5245 529.922 22.8249 528.734 30.9172C526.337 47.1207 522.676 70.5488 518.034 99.4661C508.75 157.301 495.428 237.111 480.578 325.24V325.296Z" fill="#EBEBEB"/>
<path d="M500.504 330.182C471.822 414.953 445.857 491.67 427.044 547.279C417.798 575.064 410.306 597.549 405.117 613.187C402.607 620.939 400.645 626.976 399.286 631.144C398.664 633.163 398.173 634.709 397.833 635.841C397.513 636.898 397.38 637.445 397.399 637.464C397.437 637.464 397.645 636.954 398.022 635.917C398.418 634.823 398.966 633.276 399.664 631.295C401.079 627.145 403.136 621.147 405.778 613.432C410.986 597.813 418.496 575.328 427.761 547.543C446.065 491.764 471.294 414.821 499.183 329.786C526.998 244.769 552.302 167.826 570.964 112.236C580.286 84.4321 587.947 61.9848 593.363 46.4981C596.061 38.7642 598.212 32.7657 599.722 28.7101C601.232 24.6546 602.1 22.5607 602.269 22.6173C602.42 22.6739 601.873 24.8621 600.647 29.012C599.42 33.1619 597.552 39.2358 595.061 47.0452C590.098 62.6828 582.758 85.2432 573.55 113.085C555.133 168.751 529.243 245.505 500.504 330.22V330.182Z" fill="#EBEBEB"/>
<path d="M519.393 338.085C477.54 417.348 439.649 489.085 412.212 541.091C398.645 567.103 387.662 588.154 380.039 602.773C376.322 610.036 373.416 615.695 371.415 619.599C370.472 621.505 369.736 622.957 369.227 623.995C368.736 624.994 368.51 625.504 368.547 625.523C368.585 625.523 368.868 625.051 369.415 624.089C369.981 623.07 370.755 621.637 371.774 619.769C373.831 615.902 376.831 610.281 380.662 603.075C388.304 588.456 399.305 567.424 412.891 541.43C439.875 489.198 477.087 417.122 518.204 337.481C559.246 257.841 596.533 185.783 623.838 133.796C637.481 107.784 648.633 86.7894 656.445 72.3402C660.351 65.1156 663.427 59.5132 665.559 55.7594C667.691 51.9868 668.88 50.0439 669.031 50.1193C669.182 50.1948 668.276 52.2886 666.408 56.1744C664.54 60.0791 661.709 65.7946 658.011 73.1324C650.614 87.808 639.764 108.935 626.215 135.004C599.156 187.123 561.322 258.897 519.431 338.104L519.393 338.085Z" fill="#EBEBEB"/>
<path d="M536.791 348.818C482.88 420.668 434.082 485.671 398.72 532.81C381.19 556.408 367.019 575.497 357.15 588.758C352.319 595.36 348.564 600.51 345.96 604.056C344.734 605.792 343.771 607.112 343.092 608.074C342.45 608.979 342.148 609.47 342.167 609.489C342.186 609.508 342.564 609.074 343.262 608.206C343.979 607.282 344.979 605.98 346.281 604.301C348.942 600.793 352.772 595.719 357.697 589.173C367.566 575.912 381.756 556.823 399.305 533.244C434.233 485.803 482.427 420.347 535.659 348.026C588.815 275.704 637.066 210.268 672.296 163.11C689.901 139.531 704.242 120.517 714.243 107.445C719.244 100.918 723.169 95.8625 725.867 92.4672C728.566 89.0718 730.056 87.3364 730.188 87.4495C730.32 87.5439 729.094 89.4679 726.622 93.033C724.15 96.5982 720.452 101.804 715.64 108.482C706.016 121.837 691.939 141.04 674.428 164.694C639.424 212.003 590.683 277.081 536.735 348.837L536.791 348.818Z" fill="#EBEBEB"/>
<path d="M552.264 362.079C487.673 424.781 429.214 481.521 386.851 522.662C365.811 543.279 348.791 559.973 336.959 571.574C331.147 577.365 326.619 581.855 323.505 584.967C322.014 586.476 320.863 587.646 320.052 588.494C319.278 589.306 318.901 589.721 318.92 589.739C318.938 589.758 319.373 589.381 320.203 588.626C321.052 587.815 322.26 586.702 323.807 585.231C326.977 582.175 331.581 577.742 337.469 572.046C349.3 560.464 366.34 543.789 387.379 523.171C429.365 481.653 487.295 424.403 551.302 361.117C615.233 297.812 673.22 240.581 715.451 199.403C736.566 178.804 753.719 162.224 765.683 150.83C771.664 145.134 776.325 140.757 779.533 137.815C782.741 134.872 784.477 133.401 784.59 133.514C784.703 133.627 783.194 135.344 780.193 138.475C777.193 141.625 772.721 146.19 766.909 152.056C755.285 163.77 738.359 180.578 717.338 201.271C675.296 242.638 616.875 299.435 552.283 362.061L552.264 362.079Z" fill="#EBEBEB"/>
<path d="M565.473 377.566C491.768 429.609 425.081 476.692 376.737 510.834C352.715 527.981 333.261 541.864 319.75 551.503C313.089 556.332 307.918 560.086 304.333 562.67C302.616 563.934 301.295 564.915 300.352 565.613C299.465 566.292 299.012 566.651 299.031 566.669C299.05 566.707 299.54 566.386 300.465 565.783C301.427 565.123 302.786 564.198 304.56 562.991C308.183 560.463 313.41 556.785 320.146 552.05C333.657 542.43 353.131 528.566 377.171 511.438C425.195 476.881 491.447 429.175 564.662 376.491C637.801 323.768 704.11 276.119 752.323 241.92C776.419 224.812 795.988 211.06 809.593 201.648C816.386 196.951 821.707 193.329 825.33 190.914C828.953 188.5 830.916 187.311 831.01 187.444C831.104 187.576 829.349 189.028 825.877 191.669C822.424 194.31 817.273 198.158 810.612 203.043C797.289 212.833 777.91 226.849 753.87 244.052C705.808 278.477 639.141 325.617 565.454 377.585L565.473 377.566Z" fill="#EBEBEB"/>
<path d="M576.059 394.883C495.013 434.911 421.666 471.147 368.51 497.404C342.054 510.627 320.637 521.342 305.767 528.774C298.427 532.509 292.709 535.414 288.766 537.432C286.879 538.432 285.407 539.186 284.369 539.733C283.388 540.262 282.897 540.544 282.897 540.582C282.897 540.62 283.444 540.394 284.463 539.922C285.52 539.413 287.011 538.715 288.935 537.79C292.917 535.848 298.672 533.018 306.069 529.396C320.939 521.964 342.375 511.269 368.83 498.065C421.741 471.316 494.749 434.439 575.418 393.676C656.011 352.874 729.056 316.035 782.099 289.664C808.611 276.478 830.123 265.915 845.049 258.709C852.503 255.106 858.333 252.352 862.296 250.542C866.259 248.731 868.391 247.844 868.467 247.995C868.542 248.146 866.561 249.315 862.73 251.39C858.9 253.465 853.201 256.465 845.842 260.275C831.123 267.896 809.762 278.742 783.307 292.041C730.377 318.638 657.068 354.931 576.021 394.883H576.059Z" fill="#EBEBEB"/>
<path d="M583.758 413.632C497.334 440.606 419.119 464.996 362.434 482.69C334.204 491.65 311.334 498.912 295.464 503.949C287.615 506.495 281.52 508.495 277.293 509.872C275.274 510.551 273.707 511.079 272.594 511.456C271.537 511.834 271.009 512.041 271.009 512.06C271.009 512.098 271.575 511.947 272.651 511.645C273.783 511.306 275.368 510.834 277.425 510.23C281.652 508.929 287.803 507.024 295.672 504.59C311.542 499.573 334.412 492.329 362.66 483.388C419.194 465.185 497.164 440.078 583.343 412.33C669.446 384.526 747.473 359.476 804.045 341.669C832.331 332.765 855.277 325.654 871.165 320.863C879.109 318.467 885.299 316.656 889.507 315.468C893.715 314.279 895.96 313.751 895.998 313.902C896.054 314.053 893.903 314.902 889.79 316.373C885.676 317.826 879.581 319.901 871.712 322.523C855.975 327.767 833.142 335.161 804.875 344.196C748.36 362.249 670.163 386.714 583.758 413.613V413.632Z" fill="#EBEBEB"/>
<path d="M588.381 433.344C498.731 446.567 417.59 458.545 358.792 467.223C329.468 471.693 305.748 475.315 289.275 477.824C281.123 479.125 274.783 480.144 270.386 480.842C268.273 481.2 266.65 481.483 265.48 481.691C264.386 481.898 263.82 482.011 263.82 482.049C263.82 482.087 264.405 482.049 265.518 481.898C266.688 481.747 268.329 481.521 270.443 481.238C274.84 480.597 281.199 479.691 289.369 478.503C305.843 475.994 329.581 472.391 358.905 467.958C417.628 458.753 498.655 446.058 588.174 432.024C677.655 417.933 758.682 405.295 817.405 396.486C846.766 392.072 870.542 388.62 886.997 386.356C895.224 385.224 901.621 384.394 905.961 383.885C910.301 383.376 912.603 383.187 912.622 383.357C912.641 383.526 910.395 384.017 906.112 384.828C901.81 385.639 895.469 386.733 887.261 388.091C870.882 390.827 847.144 394.599 817.801 399.126C759.116 408.181 677.975 420.215 588.362 433.382L588.381 433.344Z" fill="#EBEBEB"/>
<path d="M705.582 681.489C694.902 668.927 680.145 661.362 669.88 658.476C660.275 655.779 645.708 653.308 630.857 656.93C621.649 659.174 613.572 663.513 606.874 669.832C598.929 677.302 592.872 687.62 588.872 700.485C588.268 702.409 588.476 704.465 589.438 706.238C590.4 708.03 592.023 709.313 593.986 709.86L619.177 716.952C622.724 717.952 626.536 716.16 628.027 712.784C631.367 705.201 639.802 693.222 658.747 698.202C673.182 702.013 676.183 714.066 676.805 719.065C677.806 727.214 674.598 735.646 668.22 741.606C658.407 750.774 645.595 749.001 638.82 747.115C631.046 744.964 622.951 749.491 620.781 757.206L613.138 784.313C612.025 788.274 614.346 792.405 618.29 793.518L642.84 800.422C646.802 801.535 650.935 799.215 652.048 795.272L653.652 789.576C653.69 789.444 653.803 789.349 653.954 789.33C660.068 788.953 672.182 787.255 684.599 780.352C700.468 771.524 711.224 757.395 716.583 738.343C724.263 711.086 714.828 692.392 705.563 681.489H705.582Z" fill="#E0E0E0"/>
<path d="M629.895 804.138L627.744 803.535C617.479 800.649 606.779 806.647 603.873 816.909C600.967 827.17 606.987 837.866 617.252 840.771L619.403 841.374C629.669 844.261 640.368 838.262 643.274 828C646.18 817.739 640.16 807.043 629.895 804.138Z" fill="#E0E0E0"/>
<path d="M759.701 531.358C752.285 527.302 743.831 526.378 738.378 526.887C733.283 527.359 725.848 528.849 719.414 533.282C715.413 536.036 712.337 539.601 710.299 543.845C707.865 548.882 706.865 554.918 707.299 561.822C707.356 562.859 707.827 563.802 708.62 564.482C709.413 565.161 710.413 565.481 711.469 565.387L724.829 564.161C726.716 563.991 728.207 562.425 728.301 560.539C728.509 556.295 730.358 549.014 740.34 547.92C747.945 547.09 751.606 552.315 752.813 554.616C754.795 558.332 754.795 562.954 752.813 566.99C749.794 573.177 743.322 574.668 739.755 575.007C735.642 575.403 732.585 579.044 732.962 583.137L734.283 597.511C734.472 599.605 736.34 601.17 738.434 600.963L751.455 599.775C753.549 599.586 755.115 597.719 754.908 595.625L754.625 592.607C754.625 592.607 754.662 592.475 754.719 592.437C757.568 591.135 763.06 588.117 767.739 582.515C773.721 575.384 776.287 566.632 775.363 556.54C774.042 542.091 766.098 534.847 759.663 531.339L759.701 531.358Z" fill="#F5F5F5"/>
<path d="M745.926 603.962L744.794 604.076C739.34 604.566 735.321 609.414 735.812 614.847C736.302 620.298 741.152 624.316 746.586 623.825L747.718 623.712C753.172 623.222 757.191 618.374 756.7 612.941C756.21 607.49 751.36 603.472 745.926 603.962Z" fill="#F5F5F5"/>
<path d="M224.4 224.378C219.381 219.436 212.795 216.776 208.323 215.927C204.134 215.135 197.832 214.644 191.642 216.738C187.812 218.04 184.528 220.19 181.905 223.133C178.811 226.623 176.622 231.244 175.395 236.865C175.207 237.714 175.377 238.563 175.848 239.299C176.32 240.015 177.075 240.506 177.924 240.676L188.925 242.751C190.472 243.034 192.039 242.128 192.529 240.638C193.661 237.28 196.813 231.848 205.059 233.262C211.361 234.338 213.079 239.355 213.531 241.468C214.267 244.901 213.229 248.617 210.72 251.409C206.889 255.691 201.36 255.408 198.398 254.861C195.001 254.238 191.718 256.464 191.095 259.841L188.868 271.687C188.548 273.422 189.68 275.082 191.416 275.403L202.134 277.421C203.87 277.742 205.531 276.61 205.851 274.875L206.323 272.385C206.323 272.385 206.38 272.272 206.436 272.272C209.021 271.875 214.116 270.706 219.155 267.292C225.57 262.934 229.627 256.502 231.194 248.183C233.439 236.281 228.703 228.679 224.344 224.378H224.4Z" fill="#F5F5F5"/>
<path d="M196.794 279.497L195.85 279.327C191.359 278.478 187.038 281.439 186.189 285.929C185.34 290.418 188.302 294.738 192.793 295.587L193.737 295.757C198.228 296.605 202.549 293.644 203.398 289.155C204.247 284.665 201.285 280.345 196.794 279.497Z" fill="#F5F5F5"/>
<path d="M739.793 228.169C732.396 224.076 723.942 223.132 718.489 223.604C713.394 224.057 705.959 225.509 699.487 229.923C695.468 232.677 692.392 236.224 690.335 240.449C687.882 245.467 686.844 251.522 687.259 258.407C687.316 259.444 687.788 260.387 688.58 261.066C689.373 261.745 690.373 262.066 691.411 261.991L704.789 260.821C706.676 260.651 708.167 259.105 708.28 257.218C708.507 252.974 710.375 245.693 720.376 244.655C727.999 243.863 731.622 249.107 732.83 251.39C734.792 255.124 734.774 259.746 732.792 263.764C729.754 269.932 723.282 271.403 719.697 271.743C715.583 272.12 712.507 275.761 712.866 279.854L714.13 294.247C714.319 296.341 716.168 297.906 718.281 297.718L731.301 296.586C733.396 296.397 734.962 294.549 734.774 292.436L734.509 289.418C734.509 289.418 734.547 289.286 734.604 289.248C737.472 287.946 742.963 284.947 747.681 279.383C753.681 272.271 756.285 263.537 755.398 253.446C754.134 238.978 746.228 231.715 739.793 228.169Z" fill="#EBEBEB"/>
<path d="M725.735 300.717L724.603 300.811C719.149 301.283 715.111 306.112 715.583 311.544C716.055 316.996 720.885 321.033 726.32 320.561L727.452 320.467C732.906 319.995 736.944 315.166 736.472 309.734C736 304.301 731.17 300.245 725.735 300.717Z" fill="#EBEBEB"/>
<path d="M337.771 662.834C328.506 658.477 318.221 657.986 311.674 658.986C305.541 659.929 296.672 662.268 289.219 668.116C284.595 671.756 281.142 676.265 278.972 681.565C276.406 687.828 275.632 695.203 276.67 703.503C276.821 704.748 277.463 705.842 278.463 706.616C279.463 707.37 280.708 707.691 281.954 707.502L298.012 705.05C300.276 704.71 301.975 702.711 301.937 700.429C301.88 695.279 303.56 686.357 315.561 684.3C324.694 682.754 329.487 688.79 331.128 691.469C333.789 695.826 334.148 701.409 332.072 706.427C328.883 714.123 321.184 716.406 316.882 717.085C311.938 717.858 308.522 722.499 309.277 727.422L311.919 744.701C312.296 747.228 314.674 748.964 317.203 748.567L332.846 746.172C335.374 745.795 337.11 743.418 336.714 740.89L336.167 737.268C336.167 737.268 336.204 737.099 336.28 737.061C339.639 735.269 346.055 731.213 351.3 724.121C357.999 715.066 360.452 704.314 358.584 692.166C355.923 674.793 345.79 666.645 337.752 662.853L337.771 662.834Z" fill="#EBEBEB"/>
<path d="M326.468 751.586L325.09 751.793C318.542 752.793 314.032 758.942 315.032 765.469C316.033 772.014 322.184 776.523 328.713 775.523L330.091 775.316C336.638 774.316 341.148 768.166 340.148 761.64C339.148 755.113 332.997 750.586 326.468 751.586Z" fill="#EBEBEB"/>
<path d="M196.907 335.859C183.887 329.767 169.432 329.106 160.243 330.521C151.638 331.86 139.184 335.18 128.73 343.405C122.239 348.517 117.408 354.892 114.37 362.325C110.785 371.134 109.709 381.508 111.181 393.166C111.408 394.92 112.295 396.467 113.71 397.523C115.125 398.599 116.88 399.032 118.635 398.749L141.203 395.26C144.392 394.769 146.751 391.978 146.713 388.752C146.619 381.527 148.978 368.964 165.809 366.059C178.641 363.852 185.396 372.341 187.699 376.076C191.454 382.188 191.963 390.035 189.057 397.071C184.585 407.898 173.773 411.124 167.734 412.086C160.79 413.18 155.997 419.706 157.073 426.629L160.828 450.906C161.375 454.452 164.715 456.886 168.263 456.339L190.246 452.925C193.793 452.378 196.228 449.039 195.68 445.492L194.888 440.399C194.869 440.286 194.926 440.154 195.039 440.098C199.756 437.589 208.738 431.854 216.098 421.876C225.495 409.124 228.91 394.015 226.269 376.962C222.495 352.572 208.229 341.141 196.926 335.841L196.907 335.859Z" fill="#EBEBEB"/>
<path d="M181.264 460.564L179.339 460.865C170.15 462.299 163.828 470.92 165.243 480.125C166.659 489.33 175.301 495.63 184.509 494.216L186.434 493.914C195.624 492.48 201.945 483.86 200.53 474.654C199.115 465.449 190.472 459.149 181.264 460.564Z" fill="#EBEBEB"/>
</g>
<defs>
<clipPath id="clip0_485_40165">
<rect width="918" height="905" fill="white"/>
</clipPath>
</defs>
</svg>
