<svg width="24" height="24" viewBox="0 0 24 24" fill="none" xmlns="http://www.w3.org/2000/svg">
<path d="M9 22H15C20 22 22 20 22 15V9C22 4 20 2 15 2H9C4 2 2 4 2 9V15C2 20 4 22 9 22Z" stroke="#5F5E5E" stroke-width="1.5" stroke-linecap="round" stroke-linejoin="round"/>
<path d="M17 2.43945V12.4195C17 14.3895 15.59 15.1595 13.86 14.1195L12.54 13.3295C12.24 13.1495 11.76 13.1495 11.46 13.3295L10.14 14.1195C8.41 15.1495 7 14.3895 7 12.4195V2.43945" stroke="#5F5E5E" stroke-width="1.5" stroke-linecap="round" stroke-linejoin="round"/>
<path d="M9 22H15C20 22 22 20 22 15V9C22 4 20 2 15 2H9C4 2 2 4 2 9V15C2 20 4 22 9 22Z" stroke="#292D32" stroke-width="1.5" stroke-linecap="round" stroke-linejoin="round"/>
<path d="M17 2.43945V12.4195C17 14.3895 15.59 15.1595 13.86 14.1195L12.54 13.3295C12.24 13.1495 11.76 13.1495 11.46 13.3295L10.14 14.1195C8.41 15.1495 7 14.3895 7 12.4195V2.43945" stroke="#292D32" stroke-width="1.5" stroke-linecap="round" stroke-linejoin="round"/>
</svg>
