<svg width="20" height="20" viewBox="0 0 20 20" fill="none" xmlns="http://www.w3.org/2000/svg">
<path d="M5.63315 18.3333H14.3665C16.6665 18.3333 17.5831 16.925 17.6915 15.2083L18.1248 8.32496C18.2415 6.52496 16.8081 4.99996 14.9998 4.99996C14.4915 4.99996 14.0248 4.70829 13.7915 4.25829L13.1915 3.04996C12.8081 2.29163 11.8081 1.66663 10.9581 1.66663H9.04981C8.19148 1.66663 7.19148 2.29163 6.80815 3.04996L6.20815 4.25829C5.97481 4.70829 5.50815 4.99996 4.99981 4.99996C3.19148 4.99996 1.75815 6.52496 1.87481 8.32496L2.30815 15.2083C2.40815 16.925 3.33315 18.3333 5.63315 18.3333Z" stroke="#1EBBA3" stroke-width="1.5" stroke-linecap="round" stroke-linejoin="round"/>
<path d="M8.75 6.66663H11.25" stroke="#1EBBA3" stroke-width="1.5" stroke-linecap="round" stroke-linejoin="round"/>
<path d="M9.99984 15C11.4915 15 12.7082 13.7834 12.7082 12.2917C12.7082 10.8 11.4915 9.58337 9.99984 9.58337C8.50817 9.58337 7.2915 10.8 7.2915 12.2917C7.2915 13.7834 8.50817 15 9.99984 15Z" stroke="#1EBBA3" stroke-width="1.5" stroke-linecap="round" stroke-linejoin="round"/>
</svg>
