<svg width="12" height="12" viewBox="0 0 12 12" fill="none" xmlns="http://www.w3.org/2000/svg">
<path d="M11.4754 0.519923C11.7681 0.812664 11.7681 1.28784 11.4754 1.58058L7.05597 6L11.4754 10.4194C11.7681 10.7122 11.7681 11.1873 11.4754 11.4801C11.1826 11.7728 10.7075 11.7728 10.4147 11.4801L5.99531 7.06066L1.57589 11.4801C1.28315 11.7728 0.807976 11.7728 0.515234 11.4801C0.222491 11.1873 0.222492 10.7122 0.515234 10.4194L4.93465 6L0.515234 1.58058C0.222492 1.28784 0.222491 0.812665 0.515234 0.519923C0.807976 0.227181 1.28315 0.22718 1.57589 0.519923L5.99531 4.93934L10.4147 0.519923C10.7075 0.227181 11.1826 0.22718 11.4754 0.519923Z" fill="#25314C"/>
</svg>
