<svg width="24" height="24" viewBox="0 0 24 24" fill="none" xmlns="http://www.w3.org/2000/svg">
<path d="M5.21739 0C4.64674 0 4.17391 0.453125 4.17391 1V2H1.04348C0.770381 2 0.493207 2.0957 0.297555 2.28516C0.099864 2.47266 0 2.73828 0 3V23C0 23.2617 0.099864 23.5273 0.297555 23.7168C0.493207 23.9043 0.770381 24 1.04348 24H22.9565C23.2296 24 23.5068 23.9043 23.7045 23.7168C23.9001 23.5273 24 23.2617 24 23V3C24 2.73828 23.9001 2.47266 23.7045 2.28516C23.5068 2.0957 23.2296 2 22.9565 2H19.8261V1C19.8261 0.453125 19.3533 0 18.7826 0H17.7391C17.1685 0 16.6957 0.453125 16.6957 1V2H7.30435V1C7.30435 0.453125 6.83152 0 6.26087 0H5.21739ZM5.21739 1H6.26087V4H5.21739V1ZM17.7391 1H18.7826V4H17.7391V1ZM1.04348 3H4.17391V4C4.17391 4.54688 4.64674 5 5.21739 5H6.26087C6.83152 5 7.30435 4.54688 7.30435 4V3H16.6957V4C16.6957 4.54688 17.1685 5 17.7391 5H18.7826C19.3533 5 19.8261 4.54688 19.8261 4V3H22.9565V6.5H1.04348V3ZM1.04348 7.5H22.9565V23H1.04348V7.5ZM4.17391 9.5V21H19.8261V9.5H4.17391ZM5.21739 10.5H7.82609V13H5.21739V10.5ZM8.86957 10.5H11.4783V13H8.86957V10.5ZM12.5217 10.5H15.1304V13H12.5217V10.5ZM16.1739 10.5H18.7826V13H16.1739V10.5ZM5.21739 14H7.82609V16.5H5.21739V14ZM8.86957 14H11.4783V16.5H8.86957V14ZM12.5217 14H15.1304V16.5H12.5217V14ZM16.1739 14H18.7826V16.5H16.1739V14ZM5.21739 17.5H7.82609V20H5.21739V17.5ZM8.86957 17.5H11.4783V20H8.86957V17.5ZM12.5217 17.5H15.1304V20H12.5217V17.5ZM16.1739 17.5H18.7826V20H16.1739V17.5Z" fill="#38C1AC"/>
</svg>
