<svg width="24" height="25" viewBox="0 0 24 25" fill="none" xmlns="http://www.w3.org/2000/svg">
<path d="M15.5799 12.4999C15.5799 14.4799 13.9799 16.0799 11.9999 16.0799C10.0199 16.0799 8.41992 14.4799 8.41992 12.4999C8.41992 10.5199 10.0199 8.91992 11.9999 8.91992C13.9799 8.91992 15.5799 10.5199 15.5799 12.4999Z" stroke="#1F1E1E" stroke-width="1.5" stroke-linecap="round" stroke-linejoin="round"/>
<path d="M11.9998 20.7707C15.5298 20.7707 18.8198 18.6907 21.1098 15.0907C22.0098 13.6807 22.0098 11.3107 21.1098 9.9007C18.8198 6.3007 15.5298 4.2207 11.9998 4.2207C8.46984 4.2207 5.17984 6.3007 2.88984 9.9007C1.98984 11.3107 1.98984 13.6807 2.88984 15.0907C5.17984 18.6907 8.46984 20.7707 11.9998 20.7707Z" stroke="#1F1E1E" stroke-width="1.5" stroke-linecap="round" stroke-linejoin="round"/>
</svg>
