<svg width="270" height="341" viewBox="0 0 270 341" fill="none" xmlns="http://www.w3.org/2000/svg">
<g clip-path="url(#clip0_76_72)">
<path d="M116.796 312.697L111.754 315.214L117.684 271.213L122.745 271.896L116.796 312.697Z" fill="#FFC50C"/>
<path d="M104.285 320.932C111.692 317.364 117.274 313.598 116.753 312.517C116.231 311.435 109.805 313.449 102.397 317.016C94.9893 320.584 89.4072 324.35 89.9288 325.431C90.4504 326.513 96.8769 324.499 104.285 320.932Z" fill="#FFC50C"/>
<path d="M103.775 316.172C111.078 315.351 116.896 313.723 116.759 312.53C116.629 311.337 110.593 311.032 103.291 311.852C95.989 312.673 90.1709 314.301 90.3075 315.494C90.4441 316.688 96.4733 316.986 103.775 316.172Z" fill="#FFC50C"/>
<path d="M115.256 319.167C113.096 314.158 112.232 309.708 113.338 309.229C114.437 308.751 117.082 312.43 119.243 317.439C121.404 322.448 122.267 326.898 121.161 327.377C120.062 327.855 117.417 324.176 115.256 319.167Z" fill="#FFC50C"/>
<path d="M161.919 313.959L166.961 316.47L161.031 272.474L155.97 273.158L161.919 313.959Z" fill="#FFC50C"/>
<path d="M174.431 322.193C167.023 318.626 161.441 314.86 161.962 313.778C162.484 312.697 168.911 314.71 176.318 318.278C183.726 321.845 189.308 325.611 188.787 326.693C188.265 327.774 181.838 325.761 174.431 322.193Z" fill="#FFC50C"/>
<path d="M174.946 317.433C167.644 316.613 161.826 314.978 161.962 313.791C162.099 312.598 168.128 312.293 175.43 313.12C182.732 313.94 188.551 315.569 188.414 316.762C188.277 317.955 182.248 318.253 174.946 317.439V317.433Z" fill="#FFC50C"/>
<path d="M159.479 318.701C161.64 313.692 164.285 310.012 165.384 310.491C166.483 310.97 165.626 315.413 163.465 320.429C161.304 325.438 158.659 329.117 157.56 328.638C156.461 328.16 157.318 323.716 159.479 318.701Z" fill="#FFC50C"/>
<path d="M32.4932 201.848C16.0635 191.755 -0.341376 177.299 3.24758 170.22C6.83653 163.142 29.0595 166.125 45.4892 176.218C61.9189 186.311 68.8484 179.456 68.0971 188.2C64.5082 195.279 69.3328 217.043 32.4994 201.848H32.4932Z" fill="#18B49C"/>
<path opacity="0.3" d="M45.483 176.218C29.0533 166.125 6.8303 163.142 3.24135 170.22C2.85016 170.991 2.69493 171.855 2.75703 172.787C6.43291 175.559 10.3944 178.25 14.3497 180.68C30.7794 190.773 48.7428 187.79 52.3318 180.711C52.4684 180.444 52.5802 180.177 52.6733 179.903C50.5187 179.021 48.1219 177.84 45.483 176.218Z" fill="#1CA892"/>
<path d="M29.7487 187.721C13.319 177.628 -3.08591 163.172 0.496839 156.093C4.07958 149.015 26.3025 151.998 42.7385 162.091C59.1682 172.184 71.3135 180.673 67.7307 187.752C64.1418 194.831 46.1784 197.814 29.7487 187.721Z" fill="#18B49C"/>
<path d="M34.4801 183.676C50.7732 193.688 64.5826 192.849 68.3082 185.925C69.2334 179.226 57.7835 171.327 42.7385 162.085C29.699 154.074 13.0085 150.544 4.88678 152.968C3.0178 160.32 18.7396 173.999 34.4801 183.669V183.676Z" fill="#1CA892"/>
<path d="M31.2327 179.717C16.1877 167.287 -2.88719 145.031 2.42173 137.281C7.73686 129.531 35.4302 139.233 50.4752 151.663C65.5203 164.092 73.406 180.456 68.0909 188.2C62.7758 195.95 46.2715 192.147 31.2265 179.717H31.2327Z" fill="#18B49C"/>
<path d="M158.969 79.6758C150.916 84.1381 143.036 85.3128 141.36 82.2923C139.683 79.2719 147.352 76.8978 155.405 72.4355C163.459 67.9732 168.848 63.1069 170.519 66.1273C172.189 69.1478 167.017 75.2135 158.963 79.6821L158.969 79.6758Z" fill="#5BB7AA"/>
<path d="M155.455 66.7738C152.22 75.4001 151.407 83.6038 148.178 82.3918C144.949 81.1799 144.955 73.2 148.184 64.5737C151.419 55.9474 156.66 49.9376 159.888 51.1495C163.117 52.3614 158.69 58.1413 155.455 66.7676V66.7738Z" fill="#82C8BE"/>
<path d="M230.035 192.439C230.035 174.422 198.616 213.346 192.773 177.361C192.773 124.305 181.702 68.2029 120.342 69.6323C65.8306 69.6323 55.1631 115.666 55.1631 167.747C51.8349 322.865 230.035 317.079 230.035 192.445V192.439Z" fill="#1EBBA3"/>
<path d="M225.502 193.763C221.838 204.688 212.468 210.207 208.122 208.343C207.749 208.181 207.427 207.976 207.147 207.721C204.173 204.999 206.396 196.994 209.743 187.007L217.678 190.413L225.502 193.769V193.763Z" fill="#5C85EE"/>
<path d="M211.612 205.807C210.432 205.987 208.88 206.746 207.147 207.715C203.397 209.81 198.783 212.886 195.163 213.284C192.605 213.563 190.55 212.507 189.637 208.821C186.843 197.504 197.566 153.359 201.161 149.053C204.831 144.652 209.693 158.45 213.195 170.823C214.598 175.789 215.784 180.519 216.585 183.763C217.15 186.062 217.51 188.3 217.684 190.413C218.342 198.716 216.033 205.13 211.618 205.813L211.612 205.807Z" fill="#1EBBA3"/>
<path d="M217.678 190.407C217.51 188.294 217.15 186.056 216.579 183.757C215.778 180.519 214.592 175.783 213.189 170.817C211.798 171.818 210.513 172.75 209.37 173.583C203.658 177.734 198.994 182.352 195.66 186.889C195.66 186.889 198.075 191.674 201.248 192.445C204.428 193.216 217.678 190.407 217.678 190.407Z" fill="#15AE97"/>
<path d="M160.783 96.5612C158.994 100.477 156.368 96.5177 151.183 94.1436C145.998 91.7695 140.224 91.8876 142.012 87.966C143.8 84.0444 149.457 82.7952 154.642 85.1693C159.826 87.5434 162.577 92.6396 160.789 96.5612H160.783Z" fill="#1CA892"/>
<path d="M68.2335 92.1245C69.5685 96.2201 72.6235 92.5844 78.0442 90.8131C83.4649 89.0419 89.1898 89.8125 87.8548 85.7169C86.5198 81.6213 81.0432 79.7382 75.6288 81.5032C70.2081 83.2745 66.8985 88.0289 68.2335 92.1245Z" fill="#1CA892"/>
<path d="M95.9704 189.605C79.4351 189.605 66.9359 193.843 57.5413 201.196C69.4941 269.286 123.397 294.276 167.805 282.182C169.289 233.973 151.518 188.312 95.9642 189.605H95.9704Z" fill="#9FE7DC"/>
<path d="M211.512 174.503C227.303 163.03 268.756 133.286 268.687 146.729C268.644 156.126 234.772 224.235 218.982 235.707C203.198 247.18 200.255 215.192 194.089 208.107C187.923 201.022 195.722 185.976 211.506 174.503H211.512Z" fill="#1EBBA3"/>
<g opacity="0.3">
<path d="M184.061 177.088C186.57 192.564 193.81 194.186 201.248 192.445C197.392 190.811 194.257 186.504 192.773 177.356C192.773 124.498 181.782 68.6134 121.019 69.6078C174.133 73.9023 184.061 126.86 184.061 177.088Z" fill="#00907A"/>
</g>
<path d="M138.547 160.631C148.777 160.631 157.07 148.936 157.07 134.51C157.07 120.084 148.777 108.389 138.547 108.389C128.318 108.389 120.025 120.084 120.025 134.51C120.025 148.936 128.318 160.631 138.547 160.631Z" fill="white"/>
<path d="M138.547 117.935C147.619 117.935 155.17 127.133 156.759 139.283C156.964 137.736 157.07 136.138 157.07 134.51C157.07 120.085 148.774 108.389 138.547 108.389C128.321 108.389 120.025 120.085 120.025 134.51C120.025 136.138 120.131 137.736 120.336 139.283C121.925 127.133 129.476 117.935 138.547 117.935Z" fill="#EBEBFF"/>
<path d="M139.884 148.811C146.401 146.128 149.511 138.664 146.83 132.141C144.149 125.618 136.692 122.505 130.175 125.188C123.658 127.872 120.548 135.335 123.229 141.858C125.91 148.382 133.366 151.494 139.884 148.811Z" fill="#0B1254"/>
<path d="M146.036 134.497C149.136 134.497 151.649 131.982 151.649 128.879C151.649 125.776 149.136 123.261 146.036 123.261C142.936 123.261 140.422 125.776 140.422 128.879C140.422 131.982 142.936 134.497 146.036 134.497Z" fill="white"/>
<path d="M143.941 138.339C144.259 136.391 142.939 134.554 140.993 134.236C139.047 133.917 137.212 135.238 136.894 137.186C136.576 139.134 137.895 140.971 139.841 141.289C141.787 141.608 143.623 140.287 143.941 138.339Z" fill="white"/>
<path d="M120.025 134.51C118.858 122.975 124.763 108.134 137.951 107.525C151.866 107.208 158.286 122.49 157.069 134.51C156.169 125.038 152.487 113.684 142.527 110.539C135.765 108.364 128.612 112.285 125.073 118.102C121.95 122.925 120.621 128.817 120.025 134.503V134.51Z" fill="#0B1254"/>
<path d="M83.558 160.631C93.7875 160.631 102.08 148.936 102.08 134.51C102.08 120.084 93.7875 108.389 83.558 108.389C73.3285 108.389 65.0358 120.084 65.0358 134.51C65.0358 148.936 73.3285 160.631 83.558 160.631Z" fill="white"/>
<path d="M83.558 117.935C92.6297 117.935 100.18 127.133 101.77 139.283C101.975 137.736 102.08 136.138 102.08 134.51C102.08 120.085 93.7909 108.389 83.558 108.389C73.3251 108.389 65.0358 120.085 65.0358 134.51C65.0358 136.138 65.1413 137.736 65.3462 139.283C66.9358 127.133 74.4863 117.935 83.558 117.935Z" fill="#EBEBFF"/>
<path d="M79.4228 149.139C86.4699 149.139 92.1828 143.421 92.1828 136.368C92.1828 129.314 86.4699 123.596 79.4228 123.596C72.3756 123.596 66.6627 129.314 66.6627 136.368C66.6627 143.421 72.3756 149.139 79.4228 149.139Z" fill="#0B1254"/>
<path d="M86.4579 124.286C88.6497 122.092 92.2014 122.092 94.3933 124.286C96.5852 126.48 96.5852 130.035 94.3933 132.229C92.2014 134.423 88.6497 134.423 86.4579 132.229C84.266 130.035 84.266 126.48 86.4579 124.286Z" fill="white"/>
<path d="M84.8124 146.933C86.7842 146.933 88.3827 145.333 88.3827 143.36C88.3827 141.386 86.7842 139.786 84.8124 139.786C82.8406 139.786 81.2421 141.386 81.2421 143.36C81.2421 145.333 82.8406 146.933 84.8124 146.933Z" fill="white"/>
<path d="M65.0359 134.51C63.8685 122.975 69.7735 108.134 82.962 107.525C96.877 107.208 103.297 122.49 102.08 134.51C101.18 125.038 97.4979 113.684 87.5382 110.539C80.7763 108.364 73.6233 112.285 70.084 118.102C66.9607 122.925 65.632 128.817 65.0359 134.503V134.51Z" fill="#0B1254"/>
<path d="M102.962 186.616C98.2553 185.578 93.9772 178.108 92.1765 168.655C91.7294 166.287 91.4314 163.801 91.3258 161.253L112.655 165.945C112.717 167.412 112.717 168.835 112.655 170.202C112.17 180.656 108.178 187.766 102.968 186.622L102.962 186.616Z" fill="#FFC50C"/>
<g clip-path="url(#clip1_76_72)">
<path d="M99.5578 181.879C96.0732 177.655 94.1525 170.169 93.6768 167.69C95.5796 167.381 108.156 167.977 110.606 167.69C110.856 175.245 107.241 190.722 99.5578 181.885V181.879Z" fill="#984B52"/>
<path d="M99.5579 181.879C100.718 179.481 101.092 177.947 103.726 177.129C105.647 176.528 107.722 176.402 109.156 178.256C108.412 181.839 104.791 188.169 99.552 181.885L99.5579 181.879Z" fill="#D53C8C"/>
</g>
<path d="M112.655 166.381C109.463 166.343 100.522 166.175 92.1766 165.492C91.7295 164.137 91.4315 162.708 91.3259 161.247L112.655 163.938C112.717 164.777 112.717 165.598 112.655 166.381Z" fill="#FFB709"/>
<path d="M72.3069 162.577C70.9222 157.039 82.0182 142.689 93.1638 143.062C104.309 143.435 113.033 152.782 112.661 163.938C112.661 163.938 73.6916 168.114 72.3069 162.577Z" fill="#FFC50C"/>
<path d="M95.8338 145.684C100.416 145.84 104.589 147.511 107.892 150.202C104.34 146.001 99.0936 143.267 93.1638 143.068C82.0182 142.695 70.9222 157.045 72.3069 162.582C72.4994 163.353 73.4183 163.937 74.8651 164.366C74.6354 158.35 85.2159 145.33 95.8338 145.684Z" fill="#FCD575"/>
<path d="M209.873 200.587C223.366 217.218 235.095 238.579 228.445 245.017C221.795 251.456 199.286 240.543 185.794 223.912C172.301 207.28 162.174 212.321 166.464 203.092C173.114 196.653 196.38 183.956 209.873 200.587Z" fill="#18B49C"/>
<path d="M185.794 223.917C199.286 240.548 221.795 251.468 228.445 245.023C229.171 244.321 229.681 243.438 229.985 242.407C227.172 238.125 224.024 233.843 220.77 229.834C207.278 213.203 186.93 210.232 180.28 216.677C180.031 216.919 179.802 217.174 179.597 217.435C181.546 219.138 183.626 221.251 185.794 223.924V223.917Z" fill="#1CA892"/>
<path d="M207.166 216.864C220.659 233.495 232.388 254.855 225.738 261.294C219.088 267.733 196.579 256.819 183.086 240.188C169.594 223.557 160.025 210.145 166.675 203.7C173.325 197.256 193.673 200.226 207.166 216.857V216.864Z" fill="#18B49C"/>
<path d="M200.51 219.623C187.129 203.128 172.065 199.263 165.334 205.484C161.671 212.432 170.736 224.961 183.086 240.188C193.797 253.388 210.184 262.99 219.82 263.165C224.751 255.831 213.444 235.552 200.51 219.617V219.623Z" fill="#1CA892"/>
<path d="M202.391 225.043C213.475 243.731 224.937 274.482 216.176 281.051C207.414 287.621 181.751 267.528 170.668 248.84C159.584 230.151 157.703 209.667 166.458 203.098C175.219 196.529 191.301 206.355 202.385 225.043H202.391Z" fill="#18B49C"/>
<path d="M225.744 111.03C224.539 110.75 222.993 110.918 221.876 111.452C218.727 112.963 215.778 114.902 212.636 116.431C209.749 117.829 208.886 117.276 208.954 114.007C209.022 110.502 209.289 106.984 209.774 103.516C210.078 101.335 209.767 99.6938 208.377 97.8542C200.733 87.7053 202.18 75.9218 211.686 69.6572C215.921 66.8605 220.646 65.3067 225.669 65.0954C241.379 64.4242 254.896 69.3029 264.471 82.2299C273.766 94.784 268.457 109.091 253.332 113.124C249.972 114.019 241.851 115.188 225.75 111.036L225.744 111.03Z" fill="#00907A"/>
</g>
<g clip-path="url(#clip2_76_72)">
<path d="M195 55.8696L204.01 57.3696C208.44 62.6696 214.51 66.7196 221.78 68.6596C238.94 73.2296 257.09 63.8096 263.27 47.1596C270.41 27.9296 259.51 6.68962 239.53 1.38962C222.57 -3.12038 204.63 6.01962 198.27 22.3696C195.11 30.4796 195.2 38.9796 197.85 46.5196V46.4996L195 55.8696Z" fill="white"/>
<path d="M195 55.8696C195 55.8696 195.05 55.6696 195.16 55.2696C195.28 54.8496 195.45 54.2496 195.68 53.4796C196.15 51.8696 196.84 49.5096 197.74 46.4696L197.8 46.2596L197.93 46.4396V46.4596L197.75 46.5596C196.31 42.4796 195.08 36.6696 196.1 29.8296C196.6 26.4196 197.69 22.8196 199.45 19.2396C201.24 15.6796 203.79 12.1996 207.09 9.18962C210.4 6.18962 214.47 3.68962 219.08 2.05962C223.68 0.429619 228.83 -0.380381 234.05 0.179619C239.27 0.689619 244.53 2.42962 249.24 5.33962C253.98 8.21962 258.02 12.4396 260.92 17.4196C262.45 19.9096 263.48 22.6396 264.35 25.3596C264.55 26.0496 264.68 26.7496 264.84 27.4396C264.98 28.1396 265.2 28.8196 265.26 29.5296C265.35 30.2296 265.43 30.9296 265.51 31.6296L265.63 32.6796L265.65 33.7296C265.85 39.3296 264.66 44.7996 262.48 49.6196C260.32 54.4696 256.98 58.5396 253.23 61.6996C249.46 64.8696 245.19 67.1196 240.9 68.4496C236.59 69.7696 232.28 70.1896 228.28 69.9196C227.29 69.7996 226.31 69.6896 225.35 69.5796C224.39 69.4496 223.47 69.1896 222.56 69.0096C220.73 68.6096 219.03 68.0096 217.43 67.3696C211.01 64.7396 206.66 60.7196 203.93 57.4396L203.99 57.4796C201.09 56.9696 198.83 56.5696 197.28 56.2996C196.54 56.1696 195.97 56.0596 195.56 55.9896C195.18 55.9096 195 55.8696 195 55.8696C195 55.8696 195.22 55.8896 195.61 55.9496C196.02 56.0096 196.6 56.0996 197.36 56.2196C198.9 56.4596 201.14 56.8196 204.03 57.2696H204.07L204.1 57.3096C206.85 60.5396 211.2 64.4896 217.57 67.0596C219.16 67.6896 220.85 68.2796 222.65 68.6596C223.56 68.8396 224.47 69.0796 225.42 69.2096C226.37 69.3196 227.34 69.4296 228.32 69.5396C232.27 69.7896 236.54 69.3596 240.79 68.0396C245.03 66.7096 249.23 64.4796 252.95 61.3396C256.65 58.1996 259.94 54.1896 262.05 49.4096C264.18 44.6496 265.36 39.2596 265.15 33.7496L265.13 32.7096L265.01 31.6796C264.93 30.9896 264.84 30.2996 264.76 29.6096C264.7 28.9096 264.48 28.2396 264.34 27.5596C264.18 26.8796 264.05 26.1796 263.85 25.5096C262.99 22.8296 261.98 20.1396 260.47 17.6896C257.62 12.7796 253.63 8.61962 248.97 5.77962C244.33 2.90962 239.14 1.19962 234.01 0.679619C228.86 0.119619 223.79 0.909619 219.25 2.49962C214.7 4.09962 210.68 6.55962 207.4 9.50962C204.13 12.4796 201.6 15.8996 199.81 19.4096C198.05 22.9396 196.95 26.5096 196.44 29.8796C195.39 36.6596 196.56 42.4196 197.95 46.4796L198.2 47.2196L197.76 46.5696V46.5496L197.94 46.5196C197 49.5196 196.28 51.8396 195.78 53.4296C195.53 54.2096 195.34 54.8096 195.21 55.2296C195.08 55.6496 195 55.8696 195 55.8696Z" fill="#263238"/>
<path d="M238.04 18.9697C235.37 17.1997 232.21 16.5897 230.14 16.5997C228.2 16.6097 225.35 16.9397 222.78 18.4097C221.18 19.3197 219.91 20.5697 219 22.1097C217.92 23.9297 217.35 26.1797 217.29 28.7997C217.29 29.1897 217.43 29.5597 217.7 29.8397C217.98 30.1197 218.35 30.2697 218.74 30.2697L223.82 30.2397C224.54 30.2397 225.15 29.6997 225.24 28.9897C225.45 27.3997 226.38 24.7097 230.18 24.6197C233.08 24.5497 234.28 26.6397 234.67 27.5397C235.3 29.0097 235.15 30.7497 234.28 32.2097C232.94 34.4497 230.46 34.8097 229.1 34.8197C227.53 34.8397 226.27 36.1197 226.28 37.6697L226.32 43.1397C226.32 43.9397 226.98 44.5797 227.78 44.5797L232.73 44.5497C233.53 44.5497 234.17 43.8897 234.17 43.0897V41.9397C234.17 41.9397 234.17 41.8897 234.21 41.8797C235.33 41.4797 237.5 40.5097 239.44 38.5497C241.92 36.0497 243.17 32.8297 243.14 28.9897C243.1 23.4897 240.34 20.5097 238.02 18.9797L238.04 18.9697Z" fill="#FFC234"/>
<path d="M230.54 45.9297H230.11C228.04 45.9497 226.37 47.6397 226.38 49.7097C226.39 51.7797 228.09 53.4497 230.16 53.4397H230.59C232.66 53.4197 234.33 51.7297 234.32 49.6597C234.31 47.5897 232.61 45.9197 230.54 45.9297Z" fill="#FFC234"/>
</g>
<defs>
<clipPath id="clip0_76_72">
<rect width="269.072" height="290" fill="white" transform="translate(0 51)"/>
</clipPath>
<clipPath id="clip1_76_72">
<rect width="16.9416" height="16.9416" fill="white" transform="translate(93.6768 167.599)"/>
</clipPath>
<clipPath id="clip2_76_72">
<rect width="70.68" height="70" fill="white" transform="translate(195)"/>
</clipPath>
</defs>
</svg>
