<svg width="31" height="37" viewBox="0 0 31 37" fill="none" xmlns="http://www.w3.org/2000/svg">
<path d="M19.2504 2.32074C21.5504 4.32074 21.8004 7.95074 19.7904 10.2507C17.7904 12.5507 14.1604 12.7907 11.8604 10.7907C9.56042 8.79074 9.31042 5.16074 11.3104 2.86074C13.3104 0.560743 16.9404 0.310743 19.2404 2.32074M14.1304 8.37074C15.0704 9.19074 16.5504 9.08074 17.3604 8.15074C18.1804 7.21074 18.0704 5.73074 17.1404 4.92074C16.2004 4.10074 14.7304 4.21074 13.9104 5.14074C13.0904 6.08074 13.2004 7.56074 14.1304 8.37074Z" fill="#EBAF53"/>
<path d="M29.5201 12.2514C29.3101 12.0714 29.0701 11.9114 28.8101 11.7814C28.1001 11.4414 27.3701 11.3914 26.4201 11.6414C18.7901 13.5614 10.9301 16.2414 2.39011 19.8514C1.48011 20.2314 0.890107 20.7514 0.540107 21.4914C0.180107 22.2314 0.130113 23.1014 0.390113 23.8814C0.560113 24.4114 0.890106 24.8914 1.32011 25.2714C1.54011 25.4614 1.78011 25.6214 2.03011 25.7414C2.67011 26.0514 3.65011 26.2114 4.42011 25.8814C12.9801 22.2814 20.8301 19.5914 28.4501 17.6814C29.2901 17.4714 29.9901 16.7014 30.3001 16.0414C30.6601 15.3014 30.7101 14.4314 30.4401 13.6514C30.2601 13.1214 29.9401 12.6414 29.5101 12.2614" fill="#EBAF53"/>
<path d="M17.8404 26.6899C20.1404 28.6899 20.3904 32.3199 18.3904 34.6199C16.3904 36.9199 12.7603 37.1699 10.4603 35.1599C8.16035 33.1599 7.91035 29.5299 9.92035 27.2299C11.9204 24.9299 15.5503 24.6799 17.8503 26.6899M12.6104 32.4699C13.5504 33.2899 15.0304 33.1799 15.8404 32.2499C16.6604 31.3099 16.5504 29.8299 15.6204 29.0199C14.6804 28.1999 13.2004 28.3099 12.3904 29.2399C11.5704 30.1799 11.6804 31.6599 12.6104 32.4699Z" fill="#EBAF53"/>
</svg>
