<svg width="24" height="25" viewBox="0 0 24 25" fill="none" xmlns="http://www.w3.org/2000/svg">
<path d="M15.5799 12.4999C15.5799 14.4799 13.9799 16.0799 11.9999 16.0799C10.0199 16.0799 8.41992 14.4799 8.41992 12.4999C8.41992 10.5199 10.0199 8.91992 11.9999 8.91992C13.9799 8.91992 15.5799 10.5199 15.5799 12.4999Z" stroke="#C9C9C9" stroke-width="1.5" stroke-linecap="round" stroke-linejoin="round"/>
<path d="M12.0001 20.7707C15.5301 20.7707 18.8201 18.6907 21.1101 15.0907C22.0101 13.6807 22.0101 11.3107 21.1101 9.9007C18.8201 6.3007 15.5301 4.2207 12.0001 4.2207C8.47009 4.2207 5.18009 6.3007 2.89009 9.9007C1.99009 11.3107 1.99009 13.6807 2.89009 15.0907C5.18009 18.6907 8.47009 20.7707 12.0001 20.7707Z" stroke="#C9C9C9" stroke-width="1.5" stroke-linecap="round" stroke-linejoin="round"/>
</svg>
