<svg width="21" height="17" viewBox="0 0 21 17" fill="none" xmlns="http://www.w3.org/2000/svg">
<path d="M18.6346 0H1.55288C1.14103 0 0.746052 0.162824 0.454829 0.452653C0.163607 0.742482 0 1.13557 0 1.54545V15.4545C0 15.8644 0.163607 16.2575 0.454829 16.5473C0.746052 16.8372 1.14103 17 1.55288 17H18.6346C19.0465 17 19.4414 16.8372 19.7327 16.5473C20.0239 16.2575 20.1875 15.8644 20.1875 15.4545V1.54545C20.1875 1.13557 20.0239 0.742482 19.7327 0.452653C19.4414 0.162824 19.0465 0 18.6346 0ZM18.6346 1.54545V11.4702L16.1044 8.95301C15.9602 8.80947 15.789 8.6956 15.6005 8.61791C15.4121 8.54022 15.2102 8.50023 15.0062 8.50023C14.8022 8.50023 14.6003 8.54022 14.4119 8.61791C14.2234 8.6956 14.0522 8.80947 13.908 8.95301L11.9669 10.8848L7.69648 6.63483C7.40529 6.34522 7.01046 6.18253 6.59879 6.18253C6.18711 6.18253 5.79229 6.34522 5.50109 6.63483L1.55288 10.5641V1.54545H18.6346ZM1.55288 12.75L6.59976 7.72727L14.3642 15.4545H1.55288V12.75ZM18.6346 15.4545H16.5605L13.0666 11.9773L15.0077 10.0455L18.6346 13.656V15.4545ZM11.6466 5.79545C11.6466 5.56621 11.7149 5.34211 11.8429 5.1515C11.9709 4.96089 12.1528 4.81232 12.3656 4.72459C12.5784 4.63687 12.8126 4.61391 13.0385 4.65864C13.2644 4.70336 13.472 4.81375 13.6348 4.97585C13.7977 5.13796 13.9086 5.34449 13.9536 5.56933C13.9985 5.79417 13.9755 6.02722 13.8873 6.23902C13.7992 6.45082 13.6499 6.63184 13.4583 6.7592C13.2668 6.88657 13.0416 6.95455 12.8113 6.95455C12.5024 6.95455 12.2062 6.83243 11.9878 6.61506C11.7693 6.39768 11.6466 6.10286 11.6466 5.79545Z" fill="#1EBBA3"/>
</svg>
