<svg width="56" height="56" viewBox="0 0 56 56" fill="none" xmlns="http://www.w3.org/2000/svg">
<path d="M50.8098 18.2218V18.2232V37.7765C50.8098 41.9237 49.5756 45.1737 47.3629 47.3863C45.1503 49.5989 41.9004 50.8332 37.7532 50.8332H18.2232C14.0759 50.8332 10.8262 49.5989 8.61361 47.3836C6.40098 45.1682 5.1665 41.9124 5.1665 37.7532V18.2232C5.1665 14.0759 6.40077 10.826 8.61339 8.61339C10.826 6.40077 14.0759 5.1665 18.2232 5.1665H37.7765C41.9238 5.1665 45.1736 6.40081 47.3831 8.61317C49.5926 10.8254 50.8212 14.0749 50.8098 18.2218ZM36.1934 36.1934C37.0653 35.3215 37.0653 33.8849 36.1934 33.0129L31.1803 27.9998L36.1934 22.9867C37.0653 22.1148 37.0653 20.6782 36.1934 19.8063C35.3215 18.9344 33.8849 18.9344 33.0129 19.8063L27.9998 24.8194L22.9867 19.8063C22.1148 18.9344 20.6782 18.9344 19.8063 19.8063C18.9344 20.6782 18.9344 22.1148 19.8063 22.9867L24.8194 27.9998L19.8063 33.0129C18.9344 33.8849 18.9344 35.3215 19.8063 36.1934C20.255 36.6421 20.8277 36.8532 21.3965 36.8532C21.9653 36.8532 22.538 36.6421 22.9867 36.1934L27.9998 31.1803L33.0129 36.1934C33.4617 36.6421 34.0344 36.8532 34.6032 36.8532C35.172 36.8532 35.7447 36.6421 36.1934 36.1934Z" fill="#F64C4C" stroke="#FAFCFC"/>
</svg>
