<svg width="383" height="429" viewBox="0 0 383 429" fill="none" xmlns="http://www.w3.org/2000/svg">
<g clip-path="url(#clip0_770_6606)">
<path d="M63.2768 295.98C31.2811 276.177 -0.666302 247.814 6.32295 233.925C13.3122 220.036 56.5899 225.889 88.5857 245.692C120.581 265.495 134.076 252.045 132.613 269.202C125.624 283.091 135.019 325.795 63.2889 295.98H63.2768Z" fill="#18B49C"/>
<path opacity="0.3" d="M88.5728 245.692C56.577 225.889 13.2993 220.036 6.31006 233.925C5.54825 235.437 5.24595 237.132 5.36687 238.961C12.5254 244.399 20.2402 249.679 27.9429 254.447C59.9386 274.25 94.9211 268.397 101.91 254.508C102.176 253.984 102.394 253.46 102.575 252.923C98.3795 251.191 93.7119 248.875 88.5728 245.692Z" fill="#1CA892"/>
<path d="M57.9313 268.262C25.9356 248.458 -6.0118 220.095 0.96535 206.206C7.94251 192.317 51.2202 198.17 83.2281 217.973C115.224 237.776 138.876 254.433 131.899 268.322C124.91 282.212 89.9271 288.065 57.9313 268.262Z" fill="#18B49C"/>
<path d="M67.1454 260.32C98.8751 279.965 125.768 278.319 133.023 264.734C134.825 251.589 112.527 236.09 83.2279 217.958C57.8345 202.24 25.3309 195.313 9.51438 200.069C5.87465 214.495 36.4919 241.334 67.1454 260.308V260.32Z" fill="#1CA892"/>
<path d="M60.8224 252.555C31.5232 228.166 -5.62382 184.499 4.71495 169.293C15.0658 154.087 68.9967 173.122 98.2959 197.511C127.595 221.899 142.952 254.006 132.601 269.2C122.25 284.406 90.1095 276.943 60.8103 252.555H60.8224Z" fill="#18B49C"/>
<path d="M309.581 56.2632C293.897 65.0185 278.553 67.3232 275.288 61.3969C272.023 55.4706 286.957 50.8124 302.64 42.0571C318.324 33.3017 328.82 23.7538 332.072 29.6801C335.325 35.6064 325.252 47.5078 309.569 56.2754L309.581 56.2632Z" fill="#15AE97"/>
<path d="M302.739 30.951C296.439 47.8764 294.855 63.9725 288.567 61.5947C282.279 59.2169 282.291 43.5597 288.579 26.6343C294.879 9.7089 305.085 -2.08277 311.373 0.295076C317.661 2.67292 309.039 14.0134 302.739 30.9388V30.951Z" fill="#1EBBA3"/>
<path d="M447.977 277.509C447.977 242.159 386.79 318.53 375.412 247.927C375.412 143.826 353.851 33.7498 234.357 36.5544C128.2 36.5544 107.426 126.876 107.426 229.062C100.945 533.414 447.977 522.062 447.977 277.522V277.509Z" fill="#1EBBA3"/>
<path d="M412.098 303.74C409.801 304.094 406.778 305.581 403.404 307.483C396.101 311.593 387.116 317.629 380.066 318.409C375.084 318.958 371.082 316.885 369.304 309.654C363.863 287.449 384.746 200.834 391.747 192.384C398.894 183.75 408.362 210.821 415.182 235.099C417.915 244.843 420.224 254.122 421.784 260.487C422.885 264.999 423.586 269.389 423.924 273.535C425.206 289.826 420.708 302.411 412.111 303.752L412.098 303.74Z" fill="#1EBBA3"/>
<path d="M423.913 273.524C423.587 269.378 422.886 264.988 421.773 260.476C420.213 254.123 417.904 244.831 415.171 235.088C412.462 237.051 409.959 238.88 407.734 240.514C396.609 248.66 387.528 257.72 381.035 266.622C381.035 266.622 385.739 276.011 391.918 277.523C398.109 279.035 423.913 273.524 423.913 273.524Z" fill="#15AE97"/>
<path d="M313.112 89.3927C309.63 97.075 304.515 89.3074 294.418 84.6492C284.321 79.9911 273.075 80.2228 276.558 72.5283C280.04 64.8339 291.056 62.3829 301.153 67.041C311.25 71.6991 316.607 81.6983 313.124 89.3927H313.112Z" fill="#1CA892"/>
<path d="M132.879 80.6862C135.479 88.7221 141.428 81.5886 151.985 78.1133C162.541 74.638 173.69 76.15 171.09 68.1141C168.491 60.0782 157.825 56.3834 147.281 59.8465C136.725 63.3219 130.279 72.6503 132.879 80.6862Z" fill="#1CA892"/>
<path d="M186.893 271.955C154.692 271.955 130.351 280.271 112.055 294.697C135.333 428.295 240.304 477.328 326.787 453.598C329.677 359.008 295.069 269.419 186.881 271.955H186.893Z" fill="#24CCB2"/>
<path d="M411.904 242.321C442.655 219.811 523.382 161.45 523.249 187.826C523.164 206.263 457.202 339.898 426.451 362.408C395.713 384.918 389.981 322.156 377.974 308.254C365.966 294.353 381.154 264.831 411.892 242.321H411.904Z" fill="#1EBBA3"/>
<g opacity="0.3">
<path d="M358.446 247.392C363.331 277.756 377.43 280.938 391.917 277.524C384.408 274.317 378.301 265.866 375.411 247.917C375.411 144.206 354.008 34.557 235.675 36.5081C339.111 44.9342 358.446 148.84 358.446 247.392Z" fill="#00907A"/>
</g>
<path d="M269.808 215.105C289.729 215.105 305.878 192.159 305.878 163.853C305.878 135.548 289.729 112.602 269.808 112.602C249.886 112.602 233.737 135.548 233.737 163.853C233.737 192.159 249.886 215.105 269.808 215.105Z" fill="white"/>
<path d="M269.808 131.332C287.474 131.332 302.178 149.379 305.274 173.218C305.673 170.182 305.878 167.048 305.878 163.853C305.878 135.551 289.723 112.602 269.808 112.602C249.892 112.602 233.737 135.551 233.737 163.853C233.737 167.048 233.942 170.182 234.341 173.218C237.437 149.379 252.141 131.332 269.808 131.332Z" fill="#EBEBFF"/>
<path d="M272.416 191.916C285.108 186.652 291.164 172.01 285.942 159.211C280.72 146.412 266.198 140.304 253.506 145.568C240.813 150.832 234.757 165.475 239.979 178.274C245.201 191.072 259.723 197.18 272.416 191.916Z" fill="#0B1254"/>
<path d="M284.393 163.828C290.43 163.828 295.324 158.893 295.324 152.805C295.324 146.717 290.43 141.781 284.393 141.781C278.356 141.781 273.462 146.717 273.462 152.805C273.462 158.893 278.356 163.828 284.393 163.828Z" fill="white"/>
<path d="M280.312 171.365C280.931 167.543 278.361 163.939 274.571 163.314C270.781 162.69 267.207 165.282 266.588 169.104C265.969 172.925 268.539 176.53 272.329 177.154C276.119 177.779 279.693 175.187 280.312 171.365Z" fill="white"/>
<path d="M233.738 163.855C231.465 141.222 242.965 112.103 268.648 110.908C295.747 110.286 308.25 140.271 305.88 163.855C304.126 145.271 296.956 122.992 277.56 116.822C264.392 112.554 250.462 120.249 243.569 131.662C237.487 141.125 234.899 152.685 233.738 163.842V163.855Z" fill="#0B1254"/>
<path d="M162.726 215.105C182.648 215.105 198.797 192.159 198.797 163.853C198.797 135.548 182.648 112.602 162.726 112.602C142.805 112.602 126.656 135.548 126.656 163.853C126.656 192.159 142.805 215.105 162.726 215.105Z" fill="white"/>
<path d="M162.726 131.332C180.393 131.332 195.097 149.379 198.193 173.218C198.592 170.182 198.797 167.048 198.797 163.853C198.797 135.551 182.654 112.602 162.726 112.602C142.799 112.602 126.656 135.551 126.656 163.853C126.656 167.048 126.861 170.182 127.26 173.218C130.356 149.379 145.06 131.332 162.726 131.332Z" fill="#EBEBFF"/>
<path d="M154.673 192.561C168.397 192.561 179.522 181.342 179.522 167.502C179.522 153.663 168.397 142.443 154.673 142.443C140.949 142.443 129.823 153.663 129.823 167.502C129.823 181.342 140.949 192.561 154.673 192.561Z" fill="#0B1254"/>
<path d="M168.373 143.797C172.642 139.492 179.558 139.492 183.827 143.797C188.096 148.101 188.096 155.076 183.827 159.381C179.558 163.685 172.642 163.685 168.373 159.381C164.105 155.076 164.105 148.101 168.373 143.797Z" fill="white"/>
<path d="M165.167 188.23C169.007 188.23 172.12 185.091 172.12 181.219C172.12 177.346 169.007 174.207 165.167 174.207C161.327 174.207 158.214 177.346 158.214 181.219C158.214 185.091 161.327 188.23 165.167 188.23Z" fill="white"/>
<path d="M126.654 163.855C124.381 141.222 135.881 112.103 161.564 110.908C188.663 110.286 201.166 140.271 198.796 163.855C197.043 145.271 189.872 122.992 170.476 116.822C157.308 112.554 143.378 120.249 136.485 131.662C130.403 141.125 127.815 152.685 126.654 163.842V163.855Z" fill="#0B1254"/>
<path d="M200.513 266.088C191.347 264.052 183.016 249.395 179.509 230.847C178.638 226.201 178.058 221.324 177.852 216.324L219.389 225.531C219.51 228.409 219.51 231.201 219.389 233.884C218.446 254.394 210.67 268.344 200.525 266.1L200.513 266.088Z" fill="#FFC50C"/>
<g clip-path="url(#clip1_770_6606)">
<path d="M193.882 256.792C187.096 248.505 183.355 233.816 182.429 228.953C186.135 228.347 210.627 229.515 215.398 228.953C215.885 243.777 208.844 274.143 193.882 256.804V256.792Z" fill="#984B52"/>
<path d="M193.88 256.793C196.139 252.088 196.868 249.078 201.998 247.472C205.739 246.293 209.78 246.046 212.571 249.685C211.124 256.715 204.071 269.135 193.869 256.805L193.88 256.793Z" fill="#D53C8C"/>
</g>
<path d="M219.389 226.385C213.173 226.312 195.761 225.982 179.509 224.641C178.638 221.983 178.058 219.178 177.852 216.312L219.389 221.593C219.51 223.239 219.51 224.848 219.389 226.385Z" fill="#FFB709"/>
<path d="M140.812 218.921C138.116 208.056 159.724 179.9 181.43 180.631C203.135 181.363 220.124 199.703 219.399 221.591C219.399 221.591 143.509 229.785 140.812 218.921Z" fill="#FFC50C"/>
<path d="M186.629 185.777C195.553 186.081 203.679 189.362 210.112 194.642C203.195 186.398 192.978 181.033 181.43 180.643C159.724 179.911 138.116 208.067 140.812 218.932C141.187 220.444 142.977 221.591 145.794 222.432C145.347 210.628 165.952 185.082 186.629 185.777Z" fill="#FCD575"/>
<path d="M408.709 293.501C434.986 326.132 457.828 368.043 444.877 380.676C431.926 393.309 388.092 371.897 361.816 339.265C335.54 306.634 315.818 316.523 324.173 298.415C337.124 285.782 382.433 260.87 408.709 293.501Z" fill="#18B49C"/>
<path d="M361.818 339.28C388.095 371.912 431.929 393.337 444.879 380.691C446.294 379.313 447.286 377.582 447.878 375.558C442.4 367.156 436.27 358.754 429.933 350.889C403.657 318.258 364.031 312.429 351.081 325.074C350.597 325.55 350.15 326.05 349.75 326.562C353.547 329.903 357.598 334.049 361.818 339.292V339.28Z" fill="#1CA892"/>
<path d="M403.439 325.436C429.715 358.068 452.557 399.979 439.606 412.612C426.656 425.245 382.822 403.832 356.546 371.201C330.27 338.569 311.636 312.255 324.586 299.609C337.537 286.964 377.163 292.793 403.439 325.424V325.436Z" fill="#18B49C"/>
<path d="M390.475 330.851C364.417 298.488 335.081 290.903 321.973 303.109C314.839 316.742 332.493 341.326 356.545 371.201C377.404 397.101 409.315 415.941 428.082 416.283C437.683 401.894 415.663 362.104 390.475 330.839V330.851Z" fill="#1CA892"/>
<path d="M394.14 341.486C415.724 378.154 438.046 438.49 420.984 451.379C403.922 464.268 353.946 424.845 332.361 388.177C310.777 351.51 307.113 311.318 324.163 298.429C341.225 285.54 372.543 304.819 394.128 341.486H394.14Z" fill="#18B49C"/>
</g>
<defs>
<clipPath id="clip0_770_6606">
<rect width="524" height="569" fill="white"/>
</clipPath>
<clipPath id="clip1_770_6606">
<rect width="32.9926" height="33.2405" fill="white" transform="translate(182.429 228.773)"/>
</clipPath>
</defs>
</svg>
