<svg width="21" height="21" viewBox="0 0 21 21" fill="none" xmlns="http://www.w3.org/2000/svg">
<g clip-path="url(#clip0_24_9)">
<path d="M10.5263 0.420044C7.711 0.420044 5.1024 1.55372 3.17631 3.62254C2.85967 3.96215 2.87607 4.50028 3.21568 4.81692C3.55529 5.13192 4.09342 5.11715 4.41006 4.77754C6.01459 3.05489 8.18186 2.10004 10.5263 2.10004C15.1348 2.10004 18.8869 5.86856 18.8869 10.5C18.8869 15.1315 15.1348 18.9 10.5263 18.9C8.16873 18.9 5.98998 17.937 4.38381 16.1963C4.06881 15.855 3.53068 15.8419 3.18943 16.1569C2.84818 16.4719 2.83506 16.9969 3.15006 17.3382C5.0499 19.3955 7.73561 20.58 10.5263 20.58C16.0601 20.58 20.5669 16.0585 20.5669 10.5C20.5669 4.94161 16.0601 0.420044 10.5263 0.420044ZM4.20006 6.72004C3.98514 6.72004 3.7735 6.80536 3.60943 6.96942L0.669434 9.90942C0.341309 10.2375 0.341309 10.7625 0.669434 11.0907L3.60943 14.0307C3.93756 14.3588 4.46256 14.3588 4.79068 14.0307C5.11881 13.7025 5.11881 13.1775 4.79068 12.8494L3.28131 11.34H10.4869C10.9512 11.34 11.3269 10.9643 11.3269 10.5C11.3269 10.0357 10.9512 9.66004 10.4869 9.66004H3.28131L4.79068 8.15067C5.11881 7.82254 5.11881 7.29754 4.79068 6.96942C4.62662 6.80536 4.41498 6.72004 4.20006 6.72004Z" fill="#BBBABA"/>
</g>
<defs>
<clipPath id="clip0_24_9">
<rect width="21" height="21" fill="white"/>
</clipPath>
</defs>
</svg>
