<svg width="20" height="20" viewBox="0 0 20 20" fill="none" xmlns="http://www.w3.org/2000/svg">
<path d="M10.0167 2.42578C7.25841 2.42578 5.01674 4.66745 5.01674 7.42578V9.83411C5.01674 10.3424 4.80007 11.1174 4.54174 11.5508L3.58341 13.1424C2.99174 14.1258 3.40007 15.2174 4.48341 15.5841C8.07507 16.7841 11.9501 16.7841 15.5417 15.5841C16.5501 15.2508 16.9917 14.0591 16.4417 13.1424L15.4834 11.5508C15.2334 11.1174 15.0167 10.3424 15.0167 9.83411V7.42578C15.0167 4.67578 12.7667 2.42578 10.0167 2.42578Z" stroke="#1F1E1E" stroke-width="1.5" stroke-miterlimit="10" stroke-linecap="round"/>
<path d="M11.5584 2.66719C11.3001 2.59219 11.0334 2.53385 10.7584 2.50052C9.95843 2.40052 9.19176 2.45885 8.4751 2.66719C8.71676 2.05052 9.31676 1.61719 10.0168 1.61719C10.7168 1.61719 11.3168 2.05052 11.5584 2.66719Z" stroke="#1F1E1E" stroke-width="1.5" stroke-miterlimit="10" stroke-linecap="round" stroke-linejoin="round"/>
<path d="M12.5166 15.8828C12.5166 17.2578 11.3916 18.3828 10.0166 18.3828C9.33327 18.3828 8.69993 18.0995 8.24993 17.6495C7.79993 17.1995 7.5166 16.5661 7.5166 15.8828" stroke="#1F1E1E" stroke-width="1.5" stroke-miterlimit="10"/>
</svg>
