<svg width="83" height="22" viewBox="0 0 83 22" fill="none" xmlns="http://www.w3.org/2000/svg">
<rect y="1" width="20" height="20" rx="10" fill="#3B82F6"/>
<path d="M10.6302 6.80011L6.52517 11.1451C6.37017 11.3101 6.22017 11.6351 6.19017 11.8601L6.00517 13.4801C5.94017 14.0651 6.36017 14.4651 6.94017 14.3651L8.55017 14.0901C8.77517 14.0501 9.09017 13.8851 9.24517 13.7151L13.3502 9.37011C14.0602 8.62011 14.3802 7.76511 13.2752 6.72011C12.1752 5.68511 11.3402 6.05011 10.6302 6.80011Z" stroke="white" stroke-miterlimit="10" stroke-linecap="round" stroke-linejoin="round"/>
<path d="M9.94482 7.5249C10.1598 8.9049 11.2798 9.9599 12.6698 10.0999" stroke="white" stroke-miterlimit="10" stroke-linecap="round" stroke-linejoin="round"/>
<path d="M5.5 16H14.5" stroke="white" stroke-miterlimit="10" stroke-linecap="round" stroke-linejoin="round"/>
<path d="M33.056 16.112C32.8427 16.112 32.672 16.0587 32.544 15.952C32.416 15.8453 32.3093 15.6747 32.224 15.44L28.736 5.488C28.64 5.24267 28.6507 5.03467 28.768 4.864C28.896 4.69333 29.104 4.608 29.392 4.608C29.5947 4.608 29.7547 4.656 29.872 4.752C29.9893 4.848 30.0853 5.008 30.16 5.232L33.376 14.672H32.8L36.096 5.264C36.1813 5.04 36.2827 4.87467 36.4 4.768C36.5173 4.66133 36.672 4.608 36.864 4.608C37.0667 4.608 37.2213 4.66133 37.328 4.768C37.4453 4.87467 37.5413 5.04533 37.616 5.28L40.848 14.672H40.336L43.584 5.232C43.6587 5.01867 43.7547 4.864 43.872 4.768C43.9893 4.66133 44.1547 4.608 44.368 4.608C44.6133 4.608 44.7947 4.69333 44.912 4.864C45.0293 5.03467 45.0453 5.24267 44.96 5.488L41.44 15.456C41.3653 15.68 41.264 15.8453 41.136 15.952C41.008 16.0587 40.8373 16.112 40.624 16.112C40.4 16.112 40.224 16.0587 40.096 15.952C39.968 15.8453 39.8613 15.6747 39.776 15.44L36.656 6.48H37.008L33.872 15.456C33.7867 15.68 33.68 15.8453 33.552 15.952C33.4347 16.0587 33.2693 16.112 33.056 16.112ZM46.67 16.112C46.4247 16.112 46.238 16.048 46.11 15.92C45.982 15.792 45.918 15.6053 45.918 15.36V8.832C45.918 8.58667 45.982 8.40533 46.11 8.288C46.238 8.16 46.414 8.096 46.638 8.096C46.862 8.096 47.0327 8.16 47.15 8.288C47.278 8.40533 47.342 8.58667 47.342 8.832V10.064H47.182C47.3527 9.424 47.6727 8.93867 48.142 8.608C48.6113 8.27733 49.2033 8.09067 49.918 8.048C50.0887 8.03733 50.2273 8.08 50.334 8.176C50.4407 8.26133 50.4993 8.41067 50.51 8.624C50.5207 8.82667 50.4727 8.992 50.366 9.12C50.2593 9.23733 50.094 9.30667 49.87 9.328L49.582 9.344C48.878 9.41867 48.334 9.648 47.95 10.032C47.5767 10.416 47.39 10.944 47.39 11.616V15.36C47.39 15.6053 47.326 15.792 47.198 15.92C47.0807 16.048 46.9047 16.112 46.67 16.112ZM52.4818 16.08C52.2578 16.08 52.0818 16.0107 51.9538 15.872C51.8258 15.7333 51.7618 15.5413 51.7618 15.296V8.912C51.7618 8.656 51.8258 8.464 51.9538 8.336C52.0818 8.19733 52.2578 8.128 52.4818 8.128C52.7164 8.128 52.8978 8.19733 53.0258 8.336C53.1538 8.464 53.2178 8.656 53.2178 8.912V15.296C53.2178 15.5413 53.1538 15.7333 53.0258 15.872C52.9084 16.0107 52.7271 16.08 52.4818 16.08ZM52.4818 6.4C52.1938 6.4 51.9644 6.32533 51.7938 6.176C51.6338 6.016 51.5538 5.808 51.5538 5.552C51.5538 5.27467 51.6338 5.06667 51.7938 4.928C51.9644 4.77867 52.1938 4.704 52.4818 4.704C52.7911 4.704 53.0204 4.77867 53.1698 4.928C53.3298 5.06667 53.4098 5.27467 53.4098 5.552C53.4098 5.808 53.3298 6.016 53.1698 6.176C53.0204 6.32533 52.7911 6.4 52.4818 6.4ZM58.7906 16.144C58.1613 16.144 57.6333 16.032 57.2066 15.808C56.7906 15.584 56.476 15.2587 56.2626 14.832C56.06 14.4053 55.9586 13.8827 55.9586 13.264V9.328H54.9346C54.7426 9.328 54.5933 9.28 54.4866 9.184C54.38 9.07733 54.3266 8.93867 54.3266 8.768C54.3266 8.58667 54.38 8.448 54.4866 8.352C54.5933 8.256 54.7426 8.208 54.9346 8.208H55.9586V6.464C55.9586 6.21867 56.0226 6.03733 56.1506 5.92C56.2786 5.792 56.46 5.728 56.6946 5.728C56.9293 5.728 57.1053 5.792 57.2226 5.92C57.3506 6.03733 57.4146 6.21867 57.4146 6.464V8.208H59.3506C59.5533 8.208 59.708 8.256 59.8146 8.352C59.9213 8.448 59.9746 8.58667 59.9746 8.768C59.9746 8.93867 59.9213 9.07733 59.8146 9.184C59.708 9.28 59.5533 9.328 59.3506 9.328H57.4146V13.136C57.4146 13.7227 57.5373 14.1653 57.7826 14.464C58.028 14.7627 58.4333 14.912 58.9986 14.912C59.2013 14.912 59.372 14.896 59.5106 14.864C59.6493 14.8213 59.772 14.8 59.8786 14.8C59.9746 14.7893 60.0546 14.8213 60.1186 14.896C60.1933 14.9707 60.2306 15.1093 60.2306 15.312C60.2306 15.4613 60.204 15.6 60.1506 15.728C60.108 15.8453 60.0173 15.9253 59.8786 15.968C59.7506 16.0107 59.58 16.048 59.3666 16.08C59.1533 16.1227 58.9613 16.144 58.7906 16.144ZM62.138 16.08C61.914 16.08 61.738 16.0107 61.61 15.872C61.482 15.7333 61.418 15.5413 61.418 15.296V8.912C61.418 8.656 61.482 8.464 61.61 8.336C61.738 8.19733 61.914 8.128 62.138 8.128C62.3727 8.128 62.554 8.19733 62.682 8.336C62.81 8.464 62.874 8.656 62.874 8.912V15.296C62.874 15.5413 62.81 15.7333 62.682 15.872C62.5647 16.0107 62.3833 16.08 62.138 16.08ZM62.138 6.4C61.85 6.4 61.6207 6.32533 61.45 6.176C61.29 6.016 61.21 5.808 61.21 5.552C61.21 5.27467 61.29 5.06667 61.45 4.928C61.6207 4.77867 61.85 4.704 62.138 4.704C62.4473 4.704 62.6767 4.77867 62.826 4.928C62.986 5.06667 63.066 5.27467 63.066 5.552C63.066 5.808 62.986 6.016 62.826 6.176C62.6767 6.32533 62.4473 6.4 62.138 6.4ZM65.9349 16.112C65.7109 16.112 65.5349 16.048 65.4069 15.92C65.2789 15.792 65.2149 15.6053 65.2149 15.36V8.832C65.2149 8.58667 65.2789 8.40533 65.4069 8.288C65.5349 8.16 65.7109 8.096 65.9349 8.096C66.1589 8.096 66.3295 8.16 66.4469 8.288C66.5749 8.40533 66.6389 8.58667 66.6389 8.832V10.144L66.4629 9.904C66.6869 9.296 67.0495 8.83733 67.5509 8.528C68.0629 8.21867 68.6442 8.064 69.2949 8.064C69.9242 8.064 70.4415 8.176 70.8469 8.4C71.2522 8.624 71.5562 8.96533 71.7589 9.424C71.9615 9.88267 72.0629 10.464 72.0629 11.168V15.36C72.0629 15.6053 71.9989 15.792 71.8709 15.92C71.7535 16.048 71.5775 16.112 71.3429 16.112C71.1082 16.112 70.9269 16.048 70.7989 15.92C70.6709 15.792 70.6069 15.6053 70.6069 15.36V11.248C70.6069 10.5547 70.4735 10.048 70.2069 9.728C69.9402 9.408 69.5135 9.248 68.9269 9.248C68.2442 9.248 67.6949 9.46133 67.2789 9.888C66.8735 10.304 66.6709 10.8693 66.6709 11.584V15.36C66.6709 15.8613 66.4255 16.112 65.9349 16.112ZM77.8751 19.024C77.2991 19.024 76.7391 18.96 76.1951 18.832C75.6618 18.704 75.1765 18.5067 74.7391 18.24C74.6005 18.1547 74.5045 18.0533 74.4511 17.936C74.4085 17.8293 74.3978 17.7173 74.4191 17.6C74.4511 17.4827 74.5045 17.376 74.5791 17.28C74.6645 17.1947 74.7605 17.136 74.8671 17.104C74.9845 17.0827 75.1018 17.1093 75.2191 17.184C75.6885 17.4507 76.1365 17.632 76.5631 17.728C76.9898 17.824 77.3951 17.872 77.7791 17.872C78.5365 17.872 79.1018 17.6747 79.4751 17.28C79.8591 16.896 80.0511 16.3307 80.0511 15.584V13.856H80.1951C80.0458 14.4533 79.7098 14.928 79.1871 15.28C78.6751 15.632 78.0778 15.808 77.3951 15.808C76.6911 15.808 76.0778 15.648 75.5551 15.328C75.0325 14.9973 74.6271 14.544 74.3391 13.968C74.0511 13.3813 73.9071 12.704 73.9071 11.936C73.9071 11.3493 73.9871 10.8213 74.1471 10.352C74.3178 9.872 74.5525 9.46667 74.8511 9.136C75.1605 8.79467 75.5285 8.53333 75.9551 8.352C76.3818 8.16 76.8618 8.064 77.3951 8.064C78.0885 8.064 78.6911 8.24 79.2031 8.592C79.7151 8.944 80.0458 9.41867 80.1951 10.016L80.0191 10.24V8.832C80.0191 8.58667 80.0831 8.40533 80.2111 8.288C80.3391 8.16 80.5205 8.096 80.7551 8.096C80.9791 8.096 81.1551 8.16 81.2831 8.288C81.4111 8.40533 81.4751 8.58667 81.4751 8.832V15.392C81.4751 16.5973 81.1658 17.504 80.5471 18.112C79.9391 18.72 79.0485 19.024 77.8751 19.024ZM77.7151 14.656C78.1951 14.656 78.6058 14.5493 78.9471 14.336C79.2991 14.112 79.5658 13.7973 79.7471 13.392C79.9391 12.976 80.0351 12.4907 80.0351 11.936C80.0351 11.0933 79.8271 10.432 79.4111 9.952C78.9951 9.46133 78.4298 9.216 77.7151 9.216C77.2351 9.216 76.8191 9.328 76.4671 9.552C76.1258 9.76533 75.8591 10.0747 75.6671 10.48C75.4751 10.8853 75.3791 11.3707 75.3791 11.936C75.3791 12.768 75.5871 13.4293 76.0031 13.92C76.4298 14.4107 77.0005 14.656 77.7151 14.656Z" fill="#3B82F6"/>
</svg>
