<svg width="21" height="22" viewBox="0 0 21 22" fill="none" xmlns="http://www.w3.org/2000/svg">
<path d="M11.5951 0.440002C11.4489 0.440002 11.3045 0.470002 11.1601 0.515002C10.8695 0.606877 10.592 0.779377 10.3501 1.025L4.71011 6.665H1.44011C0.639482 6.665 -0.0148926 7.31938 -0.0148926 8.12V13.88C-0.0148926 14.6806 0.639482 15.335 1.44011 15.335H4.71011L10.3351 20.93C10.8714 21.4681 11.5595 21.7044 12.1201 21.44C12.6845 21.1738 12.9601 20.5325 12.9601 19.79V2.03C12.9601 1.31 12.5926 0.711877 12.0301 0.515002C11.8895 0.466253 11.7414 0.440002 11.5951 0.440002ZM11.6101 1.4C11.6589 1.4 11.6964 1.40375 11.7301 1.415C11.867 1.46188 12.0001 1.58375 12.0001 2.03V19.79C12.0001 20.3019 11.8314 20.5306 11.7151 20.585C11.5989 20.6394 11.3645 20.645 10.9951 20.27L4.95011 14.225C4.94073 14.2194 4.92948 14.2138 4.92011 14.21C4.95573 14.2419 4.80011 13.9381 4.80011 13.76V8.24C4.80011 8.06188 4.96136 7.75438 4.92011 7.79C4.93136 7.78063 4.94073 7.77125 4.95011 7.76L11.0251 1.7C11.2501 1.47313 11.462 1.40188 11.6101 1.4ZM1.44011 7.655H3.93011C3.86823 7.83875 3.84011 8.03938 3.84011 8.24V13.76C3.84011 13.9606 3.87011 14.1594 3.93011 14.345H1.44011C1.18136 14.345 0.975107 14.1388 0.975107 13.88V8.12C0.975107 7.86125 1.18136 7.655 1.44011 7.655ZM15.3151 8.105C15.2945 8.10875 15.2739 8.11438 15.2551 8.12C15.0751 8.15188 14.9307 8.28313 14.8801 8.4575C14.8295 8.63375 14.882 8.82125 15.0151 8.945L17.0701 11L15.0151 13.055C14.8239 13.2463 14.8239 13.5538 15.0151 13.745C15.2064 13.9363 15.5139 13.9363 15.7051 13.745L17.7601 11.69L19.8151 13.745C20.0064 13.9363 20.3139 13.9363 20.5051 13.745C20.6964 13.5538 20.6964 13.2463 20.5051 13.055L18.4501 11L20.5051 8.945C20.6607 8.80063 20.702 8.57188 20.6082 8.3825C20.5164 8.19125 20.3082 8.08625 20.1001 8.12C19.9932 8.13125 19.892 8.18 19.8151 8.255L17.7601 10.31L15.7051 8.255C15.6057 8.14813 15.4614 8.09375 15.3151 8.105Z" fill="#38C1AC"/>
</svg>
