<svg width="24" height="24" viewBox="0 0 24 24" fill="none" xmlns="http://www.w3.org/2000/svg">
<path d="M11.5883 0C11.4423 0 11.2982 0.0341092 11.1541 0.0852729C10.864 0.189732 10.587 0.38586 10.3456 0.665129L4.71616 7.07765H1.45228C0.65315 7.07765 0 7.82166 0 8.73195V15.2809C0 16.1912 0.65315 16.9352 1.45228 16.9352H4.71616L10.3306 23.2966C10.8659 23.9084 11.5527 24.177 12.1123 23.8764C12.6756 23.5737 12.9507 22.8446 12.9507 22.0004V1.80779C12.9507 0.989166 12.5839 0.309114 12.0225 0.0852729C11.8821 0.0298458 11.7342 0 11.5883 0ZM11.6032 1.09149C11.6519 1.09149 11.6893 1.09576 11.723 1.10855C11.8596 1.16184 11.9925 1.30041 11.9925 1.80779V22.0004C11.9925 22.5824 11.8241 22.8425 11.708 22.9043C11.592 22.9661 11.3581 22.9725 10.9894 22.5462L4.95571 15.6732C4.94635 15.6668 4.93512 15.6604 4.92576 15.6561C4.96132 15.6924 4.80599 15.347 4.80599 15.1445V8.86838C4.80599 8.66586 4.96694 8.31624 4.92576 8.35675C4.93699 8.34609 4.94635 8.33543 4.95571 8.32264L11.0193 1.43259C11.2439 1.17463 11.4554 1.09363 11.6032 1.09149ZM18.3556 2.08066C18.146 2.12116 17.985 2.31516 17.9607 2.55606C17.9382 2.79695 18.0543 3.02719 18.2508 3.12099C21.1011 4.75823 23.0418 8.11585 23.0418 12.0064C23.0418 15.897 21.1011 19.2546 18.2508 20.8919C18.0749 20.9601 17.9513 21.1392 17.9308 21.3481C17.9102 21.5591 17.9981 21.7638 18.1572 21.8746C18.3144 21.9834 18.5147 21.9791 18.67 21.864C21.8328 20.0455 24 16.3148 24 12.0064C24 7.69801 21.8328 3.96732 18.67 2.14888C18.5876 2.09558 18.4941 2.07213 18.4005 2.08066C18.3855 2.08066 18.3706 2.08066 18.3556 2.08066ZM16.6488 4.97994C16.4354 5.00978 16.2651 5.19952 16.2352 5.44254C16.2034 5.68344 16.3175 5.92007 16.514 6.02027C18.3837 7.16932 19.6581 9.412 19.6581 12.0064C19.6581 14.5923 18.3893 16.8414 16.529 17.9926C16.2969 18.1376 16.2127 18.4701 16.3419 18.7345C16.4691 18.9988 16.7611 19.0947 16.9931 18.9476C19.1528 17.611 20.6163 14.9995 20.6163 12.0064C20.6163 9.00482 19.1491 6.38268 16.9782 5.04816C16.8921 4.99273 16.7929 4.96928 16.6937 4.97994C16.6787 4.97994 16.6638 4.97994 16.6488 4.97994ZM1.45228 8.20326H3.93762C3.87586 8.41217 3.84779 8.64028 3.84779 8.86838V15.1445C3.84779 15.3726 3.87773 15.5986 3.93762 15.8096H1.45228C1.19401 15.8096 0.988147 15.5751 0.988147 15.2809V8.73195C0.988147 8.43776 1.19401 8.20326 1.45228 8.20326ZM14.6425 8.40791C14.4105 8.43989 14.2346 8.65733 14.2233 8.92381C14.2121 9.18816 14.3693 9.42479 14.5976 9.48235C15.5783 9.77441 16.3044 10.7934 16.3044 12.0064C16.3044 13.2194 15.5783 14.2384 14.5976 14.5305C14.3412 14.6051 14.1878 14.9036 14.2533 15.1956C14.3188 15.4877 14.5808 15.6625 14.8372 15.5879C16.2314 15.1722 17.2626 13.7183 17.2626 12.0064C17.2626 10.2946 16.2314 8.84067 14.8372 8.42497C14.7735 8.40365 14.708 8.39938 14.6425 8.40791Z" fill="#38C1AC"/>
</svg>
