<svg width="20" height="21" viewBox="0 0 20 21" fill="none" xmlns="http://www.w3.org/2000/svg">
<path d="M15.8833 16.0583L14.1 12.5L12.3167 16.0583" stroke="#1EBBA3" stroke-width="1.5" stroke-linecap="round" stroke-linejoin="round"/>
<path d="M12.6416 15.4258H15.5749" stroke="#1EBBA3" stroke-width="1.5" stroke-linecap="round" stroke-linejoin="round"/>
<path d="M14.1 18.8338C11.7667 18.8338 9.8667 16.9422 9.8667 14.6005C9.8667 12.2672 11.7584 10.3672 14.1 10.3672C16.4334 10.3672 18.3334 12.2588 18.3334 14.6005C18.3334 16.9422 16.4417 18.8338 14.1 18.8338Z" stroke="#1EBBA3" stroke-width="1.5" stroke-linecap="round" stroke-linejoin="round"/>
<path d="M4.18342 2.16602H7.45008C9.17508 2.16602 10.0084 2.99937 9.96675 4.6827V7.94935C10.0084 9.67435 9.17508 10.5077 7.45008 10.466H4.18342C2.50008 10.4994 1.66675 9.66601 1.66675 7.94101V4.67436C1.66675 2.99936 2.50008 2.16602 4.18342 2.16602Z" stroke="#1EBBA3" stroke-width="1.5" stroke-linecap="round" stroke-linejoin="round"/>
<path d="M7.50833 5.375H4.125" stroke="#1EBBA3" stroke-width="1.5" stroke-linecap="round" stroke-linejoin="round"/>
<path d="M5.80835 4.80859V5.37525" stroke="#1EBBA3" stroke-width="1.5" stroke-linecap="round" stroke-linejoin="round"/>
<path d="M6.65837 5.36719C6.65837 6.82552 5.5167 8.00884 4.1167 8.00884" stroke="#1EBBA3" stroke-width="1.5" stroke-linecap="round" stroke-linejoin="round"/>
<path d="M7.50846 8.00769C6.90012 8.00769 6.35013 7.68268 5.9668 7.16602" stroke="#1EBBA3" stroke-width="1.5" stroke-linecap="round" stroke-linejoin="round"/>
<path d="M1.66675 13C1.66675 16.225 4.27508 18.8333 7.50008 18.8333L6.62508 17.375" stroke="#1EBBA3" stroke-width="1.5" stroke-linecap="round" stroke-linejoin="round"/>
<path d="M18.3333 7.99935C18.3333 4.77435 15.725 2.16602 12.5 2.16602L13.375 3.62435" stroke="#1EBBA3" stroke-width="1.5" stroke-linecap="round" stroke-linejoin="round"/>
</svg>
