<svg width="20" height="25" viewBox="0 0 20 25" fill="none" xmlns="http://www.w3.org/2000/svg">
<path d="M17.7098 2.40187C17.8312 2.53111 17.9432 2.6742 18.0459 2.81268L18.1906 3.01577C18.5079 3.45889 18.8393 3.91124 19.0446 4.43283L19.0913 4.54822C19.306 5.08365 19.5254 5.63755 19.5954 6.20991L19.614 6.37608C19.67 6.81919 19.7307 7.32693 19.6747 7.82082C19.6094 8.3701 19.5347 9.05324 19.278 9.61637L19.222 9.74561L19.1567 9.89793C19.0493 10.1472 18.9373 10.4057 18.7926 10.6365C18.6293 10.9042 18.4472 11.1534 18.2419 11.4119C17.6818 12.1089 17.0938 12.6397 16.403 13.0782C16.067 13.2905 15.717 13.4613 15.3063 13.6137L15.3529 13.6783C15.6563 14.1583 15.899 14.6384 16.0903 15.1415C16.319 15.7323 16.5477 16.3601 16.6224 17.0063L16.6364 17.1447C16.7017 17.7125 16.7671 18.3033 16.6831 18.871L16.6551 19.0511C16.5851 19.5265 16.515 20.0158 16.333 20.4589C16.109 21.0036 15.8523 21.5759 15.4649 22.0836C15.2362 22.3837 14.9282 22.7622 14.6155 23.0299C14.3448 23.2561 14.0741 23.4453 13.7474 23.6669C12.7907 24.3177 11.5772 24.7331 10.1491 24.8993C9.42565 24.9824 8.48288 25.0655 7.55879 24.9224C6.60202 24.7793 5.74793 24.6362 4.92185 24.3269C4.09576 24.0177 3.22301 23.6669 2.46693 23.1684C1.84153 22.7576 1.23947 22.2775 0.674746 21.7375C0.646743 21.7098 0.61874 21.6821 0.595404 21.6544C0.278038 21.3128 0.0960185 20.8743 0.0586813 20.3804C-0.0346616 19.9835 -0.0159928 19.5726 0.11002 19.1988C0.394716 18.3264 0.665411 17.454 0.940773 16.577L1.01545 16.337C1.73886 14.0014 2.4856 11.5919 3.4657 9.27942C4.24511 7.43771 5.10387 5.49907 6.31733 3.84662C6.85405 3.11732 7.49345 2.28648 8.2682 1.65411C8.60423 1.38178 9.05694 1.03098 9.54699 0.758645C9.9297 0.546318 10.3171 0.40323 10.7511 0.255524C11.6099 -0.0445027 12.5526 -0.0768134 13.7148 0.140129C14.7742 0.338609 15.7963 0.804805 16.6644 1.47871C17.0191 1.75566 17.3878 2.05569 17.7098 2.40187ZM8.9356 9.16402C10.1351 9.34404 11.3765 9.52867 12.6133 9.48251C12.9167 9.43635 13.1967 9.38096 13.4674 9.30711C13.6494 9.22864 13.8174 9.14094 13.9808 9.04863C14.1395 8.91938 14.2888 8.78553 14.4382 8.6332C14.5642 8.46242 14.6762 8.29163 14.7835 8.11162C14.8395 7.95468 14.8909 7.80236 14.9282 7.64542C14.9422 7.48387 14.9469 7.32693 14.9469 7.17C14.9095 6.94844 14.8629 6.74996 14.8069 6.55609C14.7089 6.33453 14.5922 6.11759 14.4568 5.89142C14.3682 5.78064 14.2795 5.67909 14.1861 5.57293C14.0975 5.47599 13.9995 5.38368 13.9061 5.29136C13.7008 5.14366 13.5001 5.01903 13.29 4.90364C13.0894 4.82978 12.884 4.76516 12.66 4.70977C12.5573 4.70054 12.4593 4.69593 12.3613 4.69131C12.2726 4.70516 12.1886 4.72362 12.1046 4.7467C11.9506 4.81594 11.8012 4.8944 11.6612 4.9821C11.3298 5.24059 11.0125 5.54062 10.6904 5.90065C9.99504 6.78688 9.36497 7.81159 8.70224 9.13171L8.94026 9.16864L8.9356 9.16402ZM5.07586 19.2311C5.31389 19.3742 5.57058 19.5173 5.84128 19.6557C6.45734 19.9004 7.06874 20.085 7.70347 20.2189C8.24953 20.2835 8.78625 20.3066 9.3463 20.2835C9.79435 20.2235 10.1957 20.1404 10.5738 20.0342C10.8165 19.9281 11.0358 19.8173 11.2412 19.6973C11.3625 19.5957 11.4745 19.4942 11.5865 19.388C11.6659 19.2726 11.7359 19.1572 11.8059 19.0372C11.8572 18.8895 11.9039 18.7418 11.9412 18.5941C11.9646 18.3818 11.9692 18.1602 11.9692 17.9433C11.9226 17.6386 11.8526 17.3386 11.7592 17.0155C11.5912 16.6278 11.3998 16.2585 11.1712 15.8985C11.0265 15.7138 10.8725 15.5338 10.7138 15.363C10.5551 15.1923 10.3871 15.0261 10.2097 14.8645C9.83169 14.583 9.43965 14.3337 9.0056 14.1122C8.49688 13.9137 7.98816 13.7614 7.44678 13.6552C7.26476 13.6183 7.09207 13.5444 6.93339 13.4383C6.66736 14.1814 6.40133 14.9707 6.12131 15.8477C5.89262 16.5631 5.67326 17.2878 5.4539 18.0079C5.33256 18.4187 5.20654 18.8249 5.07586 19.2357" fill="#F47458"/>
</svg>
