<svg width="137" height="127" viewBox="0 0 137 127" fill="none" xmlns="http://www.w3.org/2000/svg">
<path d="M1.55896 -80.7442C0.523566 -80.2507 -0.104463 -79.1445 0.0143524 -78.0044C0.0143524 -78.0044 5.08946 -29.6578 10.1985 18.6888C12.7445 42.8706 15.3075 67.0524 17.2256 85.193C18.3458 95.7098 19.0927 102.687 19.6019 107.316C19.0248 110.634 19.3473 113.68 20.5863 116.369C27.2909 131.055 58.9467 130.459 92.6393 114.991C115.095 104.695 131.967 90.7747 138.74 78.2839C142.134 72.0215 143 66.1335 140.759 61.2154C140.403 60.4326 139.962 59.6668 139.419 58.9181C139.334 58.3395 139.079 57.8289 138.689 57.4205L4.63117 -80.1826C3.83341 -80.9994 2.59433 -81.2377 1.54197 -80.7442H1.55896ZM6.2267 -70.789L125.127 51.2432C110.937 48.7246 89.7707 52.9279 68.7234 62.5768C48.1005 72.0385 31.6362 84.7165 23.9301 96.9351C19.6867 57.1482 9.70629 -37.7581 6.44736 -68.6788L6.2267 -70.806V-70.789ZM90.3988 110.038C61.306 123.397 31.9417 125.49 25.8651 114.735C25.8142 114.395 25.5257 111.842 25.0674 107.571C27.7662 95.3354 47.0312 78.5222 70.981 67.5289C85.5613 60.841 100.498 56.7739 113.042 56.0932C125.11 55.4295 133.427 58.1182 135.854 63.4617C138.281 68.8052 134.887 76.8715 126.502 85.6014C117.794 94.6718 104.962 103.351 90.3818 110.038H90.3988Z" fill="white" fill-opacity="0.1"/>
</svg>
