<svg width="200" height="127" viewBox="0 0 200 127" fill="none" xmlns="http://www.w3.org/2000/svg">
<path d="M199.012 -11.8622C197.906 -15.1572 194.806 -17.1949 191.49 -17.1299C190.449 -17.5418 189.344 -17.7369 188.195 -17.6935C184.726 -19.1242 180.911 -19.2977 177.573 -19.2977C162.333 -19.3844 147.354 -17.0648 134.044 -14.03C134.044 -14.0733 134.044 -14.1167 134.044 -14.1817C136.298 -32.6294 137.989 -53.7868 129.318 -71.5625C128.321 -73.5785 127.15 -75.6596 125.156 -77.0903C121.298 -79.8651 116.182 -78.9329 112.822 -76.7651C109.375 -74.554 107.055 -71.0856 105.148 -68.029C95.3276 -52.2043 88.7376 -34.8189 84.1637 -19.6878C71.3738 -28.9876 55.6358 -38.8726 38.2503 -45.5493C34.8686 -46.85 30.9233 -48.2156 26.8479 -47.8905C25.0486 -47.7604 23.141 -47.1751 21.4502 -46.1996C19.4775 -47.587 16.9195 -48.0856 14.4699 -47.2402C10.3945 -45.8745 8.18342 -41.4522 9.57079 -37.3768C10.698 -34.0385 13.8846 -31.9791 17.223 -32.1091C21.5152 -13.4663 35.1504 1.88144 47.7235 14.823C40.5265 17.7928 33.5246 21.2396 26.7829 25.1199C25.1354 26.0737 23.4879 27.0492 21.862 28.0247C18.9572 29.7589 15.944 31.5365 12.9525 33.1623C9.89596 34.8315 2.59058 39.3621 0.531205 45.757C-0.465968 48.857 -0.552679 53.561 4.75835 58.3084C10.9365 63.8145 23.7046 63.9663 32.1589 64.0747C33.026 64.0747 33.8498 64.0747 34.6302 64.118C44.7536 64.3131 55.3323 63.2943 66.2579 61.1482C65.0873 68.627 64.4153 76.1925 64.2202 83.758C64.1768 85.6656 64.1335 87.5949 64.1118 89.5026C64.0685 92.8843 64.0034 96.3744 63.83 99.7561C63.6783 102.791 63.6999 109.75 66.6047 114.844C65.4125 116.751 65.0006 119.158 65.781 121.455C67.1467 125.531 71.5689 127.742 75.6443 126.355C78.5925 125.357 80.5218 122.778 80.8687 119.895C80.8903 119.895 80.912 119.895 80.9554 119.895C81.0854 119.851 81.1938 119.808 81.3239 119.765C89.1062 117.142 95.7612 106.585 100.183 99.5393C100.66 98.8023 101.094 98.1086 101.506 97.4583C106.578 89.5459 110.979 80.7664 114.686 71.2066C123.422 76.5827 132.223 80.9182 141.046 84.1699C141.761 84.43 142.542 84.7335 143.365 85.037C151.148 87.9635 162.854 92.3857 170.614 89.7627C170.744 89.7194 170.853 89.676 170.983 89.6326C177.659 87.1614 179.285 82.7391 179.48 79.4875C179.871 72.7891 174.711 65.8956 172.478 63.2509C170.289 60.6713 168.143 57.9182 166.084 55.2735C164.913 53.7561 163.721 52.2387 162.528 50.7429C157.673 44.6732 152.405 38.9069 146.79 33.5308C163.699 25.8136 182.624 16.1887 193.224 -0.50309C193.527 -0.979996 193.809 -1.45693 194.091 -1.95552C198.167 -3.32121 200.356 -7.74343 198.99 -11.8188L199.012 -11.8622ZM108.291 -66.078C110.068 -68.9395 112.019 -71.866 114.816 -73.6652C115.423 -74.0554 116.117 -74.4023 116.875 -74.6407C118.891 -75.3127 121.232 -75.3561 123.01 -74.0988C124.332 -73.145 125.221 -71.5408 126.002 -69.9584C134.239 -53.0931 132.678 -33.3881 130.38 -14.6369C130.315 -14.1384 130.25 -13.6398 130.185 -13.1195C121.254 -10.9301 113.168 -8.50217 106.405 -6.31272C105.191 -5.92252 103.977 -5.51065 102.763 -5.09878C101.788 -5.92253 100.812 -6.74625 99.8149 -7.54833C96.1297 -10.5398 91.9459 -13.8782 87.3286 -17.325C91.8375 -32.4993 98.3842 -50.1233 108.291 -66.0564V-66.078ZM122.902 26.2038C121.991 30.4743 121.059 34.7665 120.17 39.102C120.084 39.5139 119.975 39.9258 119.888 40.3376C115.488 41.9418 111.044 43.5026 106.513 45.1067C102.395 46.5591 98.2541 48.0115 94.092 49.5073C93.5067 49.724 92.9431 49.8975 92.3578 50.0926C91.8809 49.6807 91.4257 49.3122 90.9488 48.9003C87.6104 45.9738 84.2937 43.1124 80.977 40.2726C79.0477 38.6251 77.1618 36.9776 75.2758 35.3518C75.8828 32.2952 76.5114 29.2387 77.0967 26.2471C78.354 19.7872 79.6547 13.1755 81.1288 6.58549C81.584 6.41206 82.0609 6.23866 82.5162 6.06524C88.8677 3.70238 95.3927 1.27448 101.983 -0.980003C107.272 3.50728 112.475 8.12462 117.526 12.6336C119.802 14.6713 122.143 16.7306 124.484 18.79C123.964 21.2396 123.444 23.6892 122.902 26.1604V26.2038ZM127.671 21.6081C130.12 23.7542 132.592 25.9003 135.084 27.9597C136.797 29.3904 138.488 30.8645 140.157 32.3602C134.781 34.6797 129.427 36.7825 124.007 38.7985C124.831 34.8315 125.676 30.8862 126.522 26.9625C126.912 25.1633 127.302 23.364 127.671 21.5864V21.6081ZM118.935 44.6081C117.222 51.9569 115.184 58.937 112.822 65.5487C107.077 61.7768 101.354 57.5714 95.6745 52.8673C99.7282 51.3932 103.76 49.9842 107.771 48.5751C111.543 47.2528 115.271 45.9305 118.956 44.6081H118.935ZM88.3041 51.4799C82.3861 53.4309 76.5548 55.1001 70.8319 56.4008C71.2871 53.9295 71.7857 51.4799 72.371 49.0304C73.108 45.8654 73.78 42.6788 74.452 39.4705C75.8394 40.6628 77.2051 41.8551 78.6142 43.0473C81.8441 45.8221 85.0741 48.6185 88.3258 51.4583L88.3041 51.4799ZM72.0892 32.5554C66.0194 27.2443 60.1014 21.9116 54.3135 16.2104C56.2862 15.4733 58.2588 14.758 60.2315 14.086C60.3616 14.0426 60.4916 13.9993 60.6217 13.9559C66.1061 12.0916 71.6123 10.0973 77.0317 8.10291C75.7527 13.9559 74.6038 19.8089 73.4766 25.5318C73.0213 27.8513 72.5444 30.2142 72.0675 32.5554H72.0892ZM82.1476 2.27165C82.2994 1.59964 82.4511 0.949318 82.6029 0.277306C83.6217 -3.90648 84.814 -8.58889 86.223 -13.5748C90.3635 -10.4532 94.1354 -7.46165 97.4737 -4.73026C97.8639 -4.4051 98.2541 -4.0799 98.666 -3.75474C93.0732 -1.80375 87.5454 0.233925 82.1476 2.24995V2.27165ZM120.019 9.8805C115.488 5.82677 110.849 1.70802 106.101 -2.3457C106.578 -2.49744 107.077 -2.67087 107.554 -2.82262C113.884 -4.86031 121.384 -7.13647 129.665 -9.19585C128.494 -1.11008 126.999 6.71555 125.351 14.6496C123.552 13.0671 121.753 11.463 119.997 9.90217L120.019 9.8805ZM50.3898 12.2217C37.5783 -0.980011 24.8102 -15.3523 20.7998 -33.1063C23.9864 -34.9056 25.5472 -38.7642 24.355 -42.3627C24.2466 -42.7095 24.0732 -43.013 23.9214 -43.3165C24.2466 -43.4682 24.5717 -43.6417 24.9186 -43.7501C25.6773 -44.0102 26.436 -44.1619 27.1514 -44.2053C30.4464 -44.4654 33.7847 -43.3165 36.928 -42.1025C54.4436 -35.3825 70.2899 -25.3023 83.0581 -15.9159C81.4539 -10.3664 80.1316 -5.18549 79.0044 -0.589821C78.6575 0.862587 78.3107 2.33666 77.9855 3.81075C71.8941 6.0869 65.6509 8.36306 59.4511 10.4224C56.7631 11.3112 54.0967 12.2867 51.452 13.3272C51.0835 12.9587 50.7367 12.6119 50.3682 12.2434L50.3898 12.2217ZM34.7169 60.3678C33.9365 60.3678 33.1127 60.3461 32.224 60.3244C24.3333 60.2377 12.3889 60.086 7.2296 55.4903C4.10802 52.7156 3.08917 49.8758 4.06466 46.8409C5.21358 43.2858 9.20227 39.3838 14.7518 36.3706C17.7866 34.7231 20.8432 32.9022 23.7697 31.168C25.3955 30.1925 27.0213 29.2387 28.6688 28.2849C35.6924 24.2311 43.0194 20.6543 50.5633 17.6194C57.305 24.3612 64.1768 30.5176 71.2654 36.6958C70.485 40.5327 69.6613 44.3913 68.7725 48.1849C68.0788 51.1765 67.4718 54.168 66.9299 57.2029C55.7876 59.479 44.9921 60.5846 34.7169 60.3895V60.3678ZM98.4276 95.3989C98.0157 96.0492 97.5605 96.7646 97.0835 97.5016C92.9865 104.005 86.9167 113.738 80.4134 116.079C78.9177 112.221 74.6472 110.183 70.7018 111.527C70.2466 111.679 69.813 111.874 69.4228 112.112C67.9921 109.078 67.2984 104.742 67.5369 99.8862C67.7103 96.4394 67.7753 92.9059 67.8187 89.5026C67.8404 87.5949 67.8837 85.709 67.9271 83.8013C68.1222 75.9324 68.8809 68.085 70.1599 60.3027C76.8366 58.8287 83.6434 56.9644 90.5369 54.6449C90.9054 54.5148 91.2523 54.3848 91.6208 54.2547C98.1891 59.8042 104.844 64.7467 111.543 69.0822C107.857 78.6854 103.478 87.4865 98.4276 95.3989ZM159.667 52.954C160.859 54.4498 162.03 55.9456 163.2 57.4413C165.303 60.1293 167.471 62.9041 169.682 65.5271C173.736 70.3395 176.034 75.4555 175.817 79.1623C175.622 82.349 173.627 84.6251 169.725 86.0558C163.244 88.4837 152.08 84.2566 144.688 81.4602C143.864 81.1567 143.084 80.8532 142.347 80.593C133.545 77.3631 124.744 72.9842 115.986 67.5431C118.783 59.8475 121.146 51.675 123.053 43.0256C129.773 40.5544 136.429 37.9531 143.127 35.0266C149.045 40.5978 154.573 46.5808 159.645 52.9324L159.667 52.954ZM145.295 30.0624C144.839 30.2792 144.363 30.4743 143.907 30.6911C141.805 28.7618 139.68 26.8975 137.491 25.0765C134.499 22.5836 131.529 20.0256 128.581 17.4243C130.51 8.25467 132.245 -0.784897 133.545 -10.193C146.964 -13.3363 162.16 -15.7642 177.594 -15.6775C179.394 -15.6775 181.215 -15.6124 182.992 -15.3523C181.085 -13.3363 180.282 -10.3664 181.236 -7.52666C182.342 -4.23166 185.442 -2.19398 188.758 -2.25901C189.062 -2.12894 189.365 -1.99887 189.691 -1.91216C179.545 13.5007 162.225 22.3452 145.295 30.0624Z" fill="white" fill-opacity="0.1"/>
</svg>
