<svg width="24" height="25" viewBox="0 0 24 25" fill="none" xmlns="http://www.w3.org/2000/svg">
<path d="M22 15.5V9.5C22 4.5 20 2.5 15 2.5H9C4 2.5 2 4.5 2 9.5V15.5C2 20.5 4 22.5 9 22.5H15C20 22.5 22 20.5 22 15.5Z" stroke="#C9C9C9" stroke-width="1.5" stroke-linecap="round" stroke-linejoin="round"/>
<path d="M2.52002 7.60938H21.48" stroke="#C9C9C9" stroke-width="1.5" stroke-linecap="round" stroke-linejoin="round"/>
<path d="M8.52002 2.60938V7.46937" stroke="#C9C9C9" stroke-width="1.5" stroke-linecap="round" stroke-linejoin="round"/>
<path d="M15.48 2.60938V7.01937" stroke="#C9C9C9" stroke-width="1.5" stroke-linecap="round" stroke-linejoin="round"/>
<path d="M9.75 14.9501V13.7501C9.75 12.2101 10.84 11.5801 12.17 12.3501L13.21 12.9501L14.25 13.5501C15.58 14.3201 15.58 15.5801 14.25 16.3501L13.21 16.9501L12.17 17.5501C10.84 18.3201 9.75 17.6901 9.75 16.1501V14.9501Z" stroke="#C9C9C9" stroke-width="1.5" stroke-miterlimit="10" stroke-linecap="round" stroke-linejoin="round"/>
</svg>
