<svg width="20" height="22" viewBox="0 0 20 22" fill="none" xmlns="http://www.w3.org/2000/svg">
<path d="M1 13V9C1 5.229 1 3.343 2.172 2.172C3.343 1 5.229 1 9 1H11C14.771 1 16.657 1 17.828 2.172C18.482 2.825 18.771 3.7 18.898 5M19 9V13C19 16.771 19 18.657 17.828 19.828C16.657 21 14.771 21 11 21H9C5.229 21 3.343 21 2.172 19.828C1.518 19.175 1.229 18.3 1.102 17" stroke="#1EBBA3" stroke-width="1.5" stroke-linecap="round"/>
<path d="M7.5 14.5V14.375C7.5 13.892 7.892 13.5 8.375 13.5H11.625C12.108 13.5 12.5 13.892 12.5 14.375V14.5C12.5 15.163 12.2366 15.7989 11.7678 16.2678C11.2989 16.7366 10.663 17 10 17C9.33696 17 8.70107 16.7366 8.23223 16.2678C7.76339 15.7989 7.5 15.163 7.5 14.5Z" stroke="#1EBBA3" stroke-width="1.5" stroke-linecap="round"/>
<path d="M7.5 2C7.5 1.529 7.5 1.293 7.646 1.146C7.793 1 8.03 1 8.5 1H9C9.471 1 9.707 1 9.854 1.146C10 1.293 10 1.53 10 2V2.5C10 2.971 10 3.207 9.854 3.354C9.707 3.5 9.471 3.5 9 3.5H8.5C8.029 3.5 7.793 3.5 7.646 3.354C7.5 3.207 7.5 2.97 7.5 2.5V2ZM7.5 7C7.5 6.529 7.5 6.293 7.646 6.146C7.793 6 8.03 6 8.5 6H9C9.471 6 9.707 6 9.854 6.146C10 6.293 10 6.53 10 7V7.5C10 7.971 10 8.207 9.854 8.354C9.707 8.5 9.471 8.5 9 8.5H8.5C8.029 8.5 7.793 8.5 7.646 8.354C7.5 8.207 7.5 7.97 7.5 7.5V7ZM10 4.5C10 4.029 10 3.793 10.146 3.646C10.293 3.5 10.529 3.5 11 3.5H11.5C11.971 3.5 12.207 3.5 12.354 3.646C12.5 3.793 12.5 4.029 12.5 4.5V5C12.5 5.471 12.5 5.707 12.354 5.854C12.207 6 11.97 6 11.5 6H11C10.529 6 10.293 6 10.146 5.854C10 5.707 10 5.47 10 5V4.5ZM10 9.5C10 9.029 10 8.793 10.146 8.646C10.293 8.5 10.529 8.5 11 8.5H11.5C11.971 8.5 12.207 8.5 12.354 8.646C12.5 8.793 12.5 9.029 12.5 9.5V10C12.5 10.471 12.5 10.707 12.354 10.854C12.207 11 11.971 11 11.5 11H11C10.529 11 10.293 11 10.146 10.854C10 10.707 10 10.47 10 10V9.5Z" stroke="#1EBBA3" stroke-width="1.5"/>
</svg>
